<svg xmlns="http://www.w3.org/2000/svg" width="50" height="50" version="1.0" viewBox="0 0 37.5 37.5"><defs><clipPath id="a"><path d="M3 0h31.95v15H3Zm0 0"/></clipPath><clipPath id="b"><path d="M2.383 10H28v19H2.383Zm0 0"/></clipPath><clipPath id="c"><path d="M2.383 21H34v16H2.383Zm0 0"/></clipPath><clipPath id="d"><path d="M9 8h25.95v19H9Zm0 0"/></clipPath></defs><g clip-path="url(#a)"><path fill="#003d60" fill-rule="evenodd" d="M3.484 8.867 18.73.004l15.961 9.25.063 5.715-16.281-9.313-10.188 6.04Zm0 0"/></g><g clip-path="url(#b)"><path fill="#ffa914" fill-rule="evenodd" d="m2.383 10.41.062 9.38 16.157 9.12 9.21-5.14v-2.504l-2.851-1.414-6.426 3.468-11.031-6.23v-3.531Zm0 0"/></g><g clip-path="url(#c)"><path fill="#ff6a0c" fill-rule="evenodd" d="m29.047 25.57 4.605 2.89L18.535 37l-16.09-9.313.13-5.78 16.09 9.378Zm0 0"/></g><g clip-path="url(#d)"><path fill="#0061a9" fill-rule="evenodd" d="m9.648 13.492-.195 2.25 2.918 1.54 6.098-3.595 11.16 6.485.324 3.855 4.996 2.762-.324-9.633-15.7-8.867Zm0 0"/></g></svg>