<svg xmlns="http://www.w3.org/2000/svg" width="50" height="50" version="1.0" viewBox="0 0 37.5 37.5"><defs><clipPath id="a"><path d="M.54 0h36.265v37H.539Zm0 0"/></clipPath><clipPath id="b"><path d="M6 0h13v19H6Zm0 0"/></clipPath><clipPath id="c"><path d="M18.672 13.094a9.046 9.046 0 0 1-2-2.96 9.08 9.08 0 0 1-.531-1.716 9.064 9.064 0 0 1-.18-1.781 9.11 9.11 0 0 1 .168-1.782 9.201 9.201 0 0 1 1.363-3.3c.336-.5.715-.965 1.14-1.39L6.563 12.042l6.547 6.488Zm0 0"/></clipPath><clipPath id="e"><path d="M18 18h13v19H18Zm0 0"/></clipPath><clipPath id="f"><path d="m24.188 18.488-5.516 5.461c.43.426.812.89 1.152 1.39.34.5.625 1.032.856 1.587.234.558.41 1.133.527 1.722.121.59.18 1.188.18 1.79 0 .601-.059 1.199-.18 1.789a8.949 8.949 0 0 1-.527 1.722 9.014 9.014 0 0 1-.856 1.586c-.34.5-.722.961-1.152 1.387L30.73 24.98Zm0 0"/></clipPath><linearGradient id="d" x1="42.625" x2="38.406" y1="27.998" y2="32.217" gradientTransform="matrix(3.63222 0 0 3.59748 -132.915 -97.349)" gradientUnits="userSpaceOnUse"><stop offset="0" stop-color="#0052CC"/><stop offset=".25" stop-color="#0052CC"/><stop offset=".313" stop-color="#0052CC"/><stop offset=".344" stop-color="#0052CC"/><stop offset=".359" stop-color="#0052CC"/><stop offset=".367" stop-color="#0052CC"/><stop offset=".375" stop-color="#0153CD"/><stop offset=".383" stop-color="#0154CE"/><stop offset=".391" stop-color="#0255CF"/><stop offset=".395" stop-color="#0356D0"/><stop offset=".398" stop-color="#0356D0"/><stop offset=".406" stop-color="#0357D1"/><stop offset=".414" stop-color="#0458D2"/><stop offset=".422" stop-color="#0558D3"/><stop offset=".43" stop-color="#0659D3"/><stop offset=".438" stop-color="#065AD4"/><stop offset=".445" stop-color="#075BD5"/><stop offset=".453" stop-color="#085CD6"/><stop offset=".461" stop-color="#085DD7"/><stop offset=".469" stop-color="#095ED8"/><stop offset=".477" stop-color="#0A5FD9"/><stop offset=".484" stop-color="#0B60DA"/><stop offset=".492" stop-color="#0B61DB"/><stop offset=".5" stop-color="#0C62DC"/><stop offset=".508" stop-color="#0D63DD"/><stop offset=".516" stop-color="#0E64DE"/><stop offset=".523" stop-color="#0E65DF"/><stop offset=".531" stop-color="#0F66E0"/><stop offset=".539" stop-color="#1067E1"/><stop offset=".547" stop-color="#1068E2"/><stop offset=".555" stop-color="#1169E3"/><stop offset=".563" stop-color="#126AE4"/><stop offset=".57" stop-color="#136BE5"/><stop offset=".578" stop-color="#136CE6"/><stop offset=".586" stop-color="#146CE7"/><stop offset=".594" stop-color="#156DE8"/><stop offset=".602" stop-color="#156EE9"/><stop offset=".605" stop-color="#166FEA"/><stop offset=".609" stop-color="#1770EA"/><stop offset=".617" stop-color="#1770EB"/><stop offset=".625" stop-color="#1871EC"/><stop offset=".633" stop-color="#1872ED"/><stop offset=".641" stop-color="#1973EE"/><stop offset=".648" stop-color="#1A74EF"/><stop offset=".656" stop-color="#1B75F0"/><stop offset=".664" stop-color="#1B76F1"/><stop offset=".672" stop-color="#1C77F2"/><stop offset=".68" stop-color="#1D78F3"/><stop offset=".688" stop-color="#1D79F3"/><stop offset=".695" stop-color="#1E7AF4"/><stop offset=".703" stop-color="#1F7BF5"/><stop offset=".711" stop-color="#207CF6"/><stop offset=".719" stop-color="#207DF7"/><stop offset=".727" stop-color="#217EF8"/><stop offset=".734" stop-color="#227FF9"/><stop offset=".742" stop-color="#227FFA"/><stop offset=".75" stop-color="#2380FB"/><stop offset=".758" stop-color="#2481FC"/><stop offset=".766" stop-color="#2582FD"/><stop offset=".773" stop-color="#2583FE"/><stop offset=".781" stop-color="#2684FF"/><stop offset=".813" stop-color="#2684FF"/><stop offset=".875" stop-color="#2684FF"/><stop offset="1" stop-color="#2684FF"/></linearGradient><linearGradient id="g" x1="40.832" x2="45.054" y1="36.422" y2="32.201" gradientTransform="matrix(3.63222 0 0 3.59748 -132.915 -97.349)" gradientUnits="userSpaceOnUse"><stop offset="0" stop-color="#0052CC"/><stop offset=".25" stop-color="#0052CC"/><stop offset=".375" stop-color="#0052CC"/><stop offset=".383" stop-color="#0153CD"/><stop offset=".391" stop-color="#0154CE"/><stop offset=".393" stop-color="#0255CF"/><stop offset=".398" stop-color="#0255CF"/><stop offset=".406" stop-color="#0356D0"/><stop offset=".414" stop-color="#0457D1"/><stop offset=".422" stop-color="#0458D2"/><stop offset=".43" stop-color="#0559D3"/><stop offset=".438" stop-color="#065AD4"/><stop offset=".445" stop-color="#065BD5"/><stop offset=".453" stop-color="#075CD6"/><stop offset=".461" stop-color="#085CD7"/><stop offset=".469" stop-color="#095DD8"/><stop offset=".477" stop-color="#095ED9"/><stop offset=".484" stop-color="#0A5FDA"/><stop offset=".492" stop-color="#0B60DA"/><stop offset=".5" stop-color="#0C61DB"/><stop offset=".508" stop-color="#0C62DC"/><stop offset=".516" stop-color="#0D63DD"/><stop offset=".523" stop-color="#0E64DE"/><stop offset=".531" stop-color="#0E65DF"/><stop offset=".539" stop-color="#0F66E0"/><stop offset=".547" stop-color="#1067E1"/><stop offset=".555" stop-color="#1168E2"/><stop offset=".563" stop-color="#1169E3"/><stop offset=".57" stop-color="#126AE4"/><stop offset=".578" stop-color="#136BE5"/><stop offset=".586" stop-color="#136CE6"/><stop offset=".594" stop-color="#146DE7"/><stop offset=".602" stop-color="#156EE8"/><stop offset=".607" stop-color="#166FE9"/><stop offset=".609" stop-color="#166FEA"/><stop offset=".617" stop-color="#1670EA"/><stop offset=".625" stop-color="#1770EB"/><stop offset=".633" stop-color="#1871EC"/><stop offset=".641" stop-color="#1972ED"/><stop offset=".648" stop-color="#1973EE"/><stop offset=".656" stop-color="#1A74EF"/><stop offset=".664" stop-color="#1B75F0"/><stop offset=".672" stop-color="#1B76F1"/><stop offset=".68" stop-color="#1C77F2"/><stop offset=".688" stop-color="#1D78F3"/><stop offset=".695" stop-color="#1E79F4"/><stop offset=".703" stop-color="#1E7AF5"/><stop offset=".711" stop-color="#1F7BF6"/><stop offset=".719" stop-color="#207CF7"/><stop offset=".727" stop-color="#217DF8"/><stop offset=".734" stop-color="#217EF9"/><stop offset=".742" stop-color="#227FFA"/><stop offset=".75" stop-color="#2380FB"/><stop offset=".758" stop-color="#2381FC"/><stop offset=".766" stop-color="#2482FD"/><stop offset=".773" stop-color="#2583FD"/><stop offset=".781" stop-color="#2684FE"/><stop offset=".813" stop-color="#2684FF"/><stop offset=".875" stop-color="#2684FF"/><stop offset="1" stop-color="#2684FF"/></linearGradient></defs><g clip-path="url(#a)"><path fill="#2684ff" d="M36.23 17.477 18.672.086 1.113 17.476a1.436 1.436 0 0 0-.316.473 1.423 1.423 0 0 0 0 1.113c.074.18.18.336.316.473l17.559 17.39 17.558-17.39c.137-.137.243-.293.317-.473a1.423 1.423 0 0 0 0-1.113 1.436 1.436 0 0 0-.317-.472Zm-17.558 6.472-5.5-5.445 5.5-5.445 5.5 5.445Zm0 0"/></g><g clip-path="url(#b)"><g clip-path="url(#c)"><path fill="url(#d)" d="M6.563.164v18.367h12.109V.164Zm0 0"/></g></g><g clip-path="url(#e)"><g clip-path="url(#f)"><path fill="url(#g)" d="M18.672 18.488v18.434H30.73V18.488Zm0 0"/></g></g></svg>