<svg xmlns="http://www.w3.org/2000/svg" width="50" height="50" version="1.0" viewBox="0 0 37.5 37.5"><defs><clipPath id="a"><path d="M1.156 0h34.785v18H1.156Zm0 0"/></clipPath><clipPath id="b"><path d="M1.156 16h34.785v12H1.156Zm0 0"/></clipPath><clipPath id="c"><path d="M1.156 26h34.785v11H1.156Zm0 0"/></clipPath></defs><g clip-path="url(#a)"><path fill="#0795ff" d="M1.527 9.441 18.2 17.445a.695.695 0 0 0 .621 0l16.672-8.004a.666.666 0 0 0 .399-.64.665.665 0 0 0-.399-.637L18.82.16a.695.695 0 0 0-.62 0L1.526 8.164a.661.661 0 0 0-.394.637c0 .297.129.508.394.64Zm0 0"/></g><g clip-path="url(#b)"><path fill="#156cdd" d="M1.527 19.16 18.2 27.148a.695.695 0 0 0 .621 0l16.672-7.988c.266-.129.403-.34.403-.633a.652.652 0 0 0-.403-.632l-2.648-1.286a1.865 1.865 0 0 0-1.735 0l-10.273 4.946a5.25 5.25 0 0 1-2.293.52c-.805 0-1.57-.173-2.293-.52L5.922 16.602a1.928 1.928 0 0 0-1.742 0l-2.653 1.277a.649.649 0 0 0-.398.633c0 .293.133.504.398.633Zm0 0"/></g><g clip-path="url(#c)"><path fill="#156cdd" d="m35.492 27.59-2.648-1.274a1.912 1.912 0 0 0-1.735 0l-10.273 4.946a5.242 5.242 0 0 1-2.293.523 5.23 5.23 0 0 1-2.293-.523L5.953 26.316a1.936 1.936 0 0 0-1.746 0L1.559 27.59a.656.656 0 0 0-.399.633c0 .297.133.507.399.632l16.64 8.008a.695.695 0 0 0 .621 0l16.672-8.008a.652.652 0 0 0 .403-.632c0-.293-.137-.504-.403-.633Zm0 0"/></g></svg>