<svg xmlns="http://www.w3.org/2000/svg" width="50" height="50" version="1.0" viewBox="0 0 37.5 37.5"><defs><clipPath id="a"><path d="M5 7h29v26.305H5Zm0 0"/></clipPath><clipPath id="b"><path d="M0 3.7h37.008V23H0Zm0 0"/></clipPath></defs><g clip-path="url(#a)"><path fill="#07bcd4" d="m33.832 25.582-3.125-2.406a.39.39 0 0 0-.555.082c-.5.699-1.066 1.344-1.691 1.926a.388.388 0 0 1-.652-.29V18.16a24.172 24.172 0 0 1-2.543 1.64c-.618.345-1.25.66-1.895.946v7.04c0 .179-.117.335-.289.382-.098.023-.195.05-.293.074a.393.393 0 0 1-.48-.387v-6.664a25.714 25.714 0 0 1-1.035.379h-.004c-1.055.36-2.133.649-3.223.867l-.172.036v5.492c0 .25-.223.437-.465.387-.273-.051-.543-.114-.808-.184a.397.397 0 0 1-.293-.383v-5.058c-.067.011-.133.02-.204.027-.214.031-.437.05-.656.074l-.328.035-.656.055-.164.012-.164.008-.66.035c-.536.02-1.07.023-1.602.02v1.902a.39.39 0 0 1-.656.289 13.1 13.1 0 0 1-1.691-1.926.39.39 0 0 0-.551-.082L6.78 24.863l-.933.719a.4.4 0 0 0-.075.55c.079.106.157.216.239.321 3.203 4.168 8.207 6.852 13.828 6.852 5.77 0 10.883-2.82 14.07-7.172a.4.4 0 0 0-.078-.551Zm-21.39-3.96c.105-.009.21-.013.316-.024l.086-.008.543-.047c.097-.008.199-.02.297-.027l.332-.036.156-.02c.05-.003.101-.01.156-.019l.625-.078.313-.047c.207-.03.414-.058.62-.097.141-.024.282-.047.423-.074v-8.563a.39.39 0 0 0-.555-.355l-3.656 1.738a.4.4 0 0 0-.223.36v7.331c.082-.004.164-.011.25-.015Zm9.312-13.618-3.656 1.742a.39.39 0 0 0-.223.356V20.82c.059-.015.113-.027.172-.043a27.961 27.961 0 0 0 3.996-1.289c.09-.035.18-.074.266-.11V8.36a.39.39 0 0 0-.555-.355Zm6.055 6.945v1.242l-.192.145c-.086.062-.172.121-.254.184-.675.492-1.375.949-2.093 1.375h-.004a25.08 25.08 0 0 1-1.895 1.003v-2.714c0-.172.11-.32.27-.375l3.656-1.23a.39.39 0 0 1 .512.37"/></g><g clip-path="url(#b)"><path fill="#ffa000" d="M37.008 3.703 32.922 7.02l1.844.171c-.086.13-.172.254-.258.38-.242.355-.488.706-.738 1.054-.125.176-.254.348-.38.52-.128.171-.257.34-.39.511-.063.086-.129.168-.195.254l-.098.125c-.031.043-.066.082-.102.125l-.199.25-.199.246-.102.125-.105.121-.203.246-.207.239-.106.12-.105.118-.211.238c-.074.078-.145.157-.215.235-.144.156-.293.308-.437.464a29.68 29.68 0 0 1-1.825 1.75c-.078.07-.156.137-.238.204l-.238.207-.242.199c-.082.066-.16.133-.243.2l-.246.194c-.043.032-.082.063-.125.094l-.125.098-.25.187-.254.188a27.55 27.55 0 0 1-2.093 1.37 26.017 26.017 0 0 1-4.532 2.09c-1.57.552-3.199.962-4.851 1.235-.207.04-.414.067-.621.098l-.313.047-.312.039-.313.043a1.895 1.895 0 0 0-.156.02l-.156.015c-.211.02-.418.047-.63.066l-.628.051c-.105.012-.21.016-.316.023l-.317.02c-.105.008-.21.016-.316.02l-.317.015-.316.012-.16.008-.156.004-.637.015c-.211.004-.422.004-.637.004l-.156.004h-.16l-.32-.004L8 21.074l-.16-.004c-.055 0-.106-.004-.16-.004l-.637-.02c-.055 0-.106 0-.16-.003l-.16-.008-.317-.015c-.215-.012-.43-.016-.64-.036l-.641-.039a71.448 71.448 0 0 1-2.559-.226l-.32-.035-.16-.016-.16-.02c-.211-.027-.426-.05-.64-.074-.106-.015-.216-.023-.321-.039l-.32-.039c-.215-.027-.43-.055-.645-.078.207.066.41.133.617.2.207.062.414.128.621.187.207.058.418.12.625.18l.157.042.156.04.316.081.313.082c.105.024.21.055.316.079l.633.144.16.035.078.02.078.015.32.067.32.062.161.035.078.016.078.012c.43.078.856.156 1.285.219l.325.05.16.024.164.023.648.082c.051.004.106.012.16.02l.165.015.324.032.324.035c.11.012.219.02.328.027l.652.047.657.035c.87.035 1.75.04 2.625.008.219-.008.441-.023.66-.035l.164-.008.164-.012.328-.027.328-.023.328-.036c.22-.023.442-.046.657-.078a26.211 26.211 0 0 0 5.168-1.183 23.631 23.631 0 0 0 7.023-3.781 24.542 24.542 0 0 0 2.012-1.75c.156-.16.316-.313.472-.473l.23-.239.227-.246.114-.12c.039-.04.074-.083.113-.122l.219-.25c.039-.039.074-.082.11-.125l.218-.25.05-.066.055-.063a28.05 28.05 0 0 0 1.602-2.113 32.339 32.339 0 0 0 2.25-3.84l1.168 1.48.504-5.269"/></g></svg>