<svg xmlns="http://www.w3.org/2000/svg" width="50" height="50" version="1.0" viewBox="0 0 37.5 37.5"><defs><clipPath id="a"><path d="M0 2.793h37.008v31.086H0Zm0 0"/></clipPath><clipPath id="b"><path d="M37.008 16.61v-.727l-.73-.082c-.2-.02-2.305-.227-5.032.18v-5.305l-.922.117a29.13 29.13 0 0 0-4.254.86c-1.425-2.989-3.777-5.81-7.05-8.434l-.516-.414-.516.414c-3.273 2.625-5.629 5.445-7.05 8.433a29.13 29.13 0 0 0-4.254-.859l-.926-.117v5.304C3.03 15.574.926 15.781.73 15.8l-.73.083v.726c0 5.961 1.621 10.5 4.816 13.493 2.645 2.476 6.286 3.77 10.579 3.77a23 23 0 0 0 1.027-.028h1.176l-.23-.996c-.583-2.493-1.548-8.504 1.136-13.407 2.68 4.903 1.719 10.914 1.137 13.407l-.235.996h1.176c.348.015.691.027 1.031.027 4.293 0 7.93-1.293 10.575-3.77 3.199-2.992 4.82-7.53 4.82-13.492Zm-7.395-4.079v3.758c-.664.152-1.347.34-2.031.582a16.193 16.193 0 0 0-.883-3.71 26.328 26.328 0 0 1 2.914-.63Zm-22.218 0c1.03.164 2 .375 2.914.63a16.193 16.193 0 0 0-.883 3.71 19.28 19.28 0 0 0-2.031-.582ZM5.94 28.926C3.22 26.379 1.777 22.492 1.648 17.37a21.624 21.624 0 0 1 4.11.277v4.809c0 3.676 3.683 7.352 7.308 9.645-2.394-.313-4.996-1.18-7.125-3.176Zm1.454-6.469v-4.469c.632.164 1.28.364 1.93.61-.036 4.863 2.09 9.015 3.952 11.71-3.199-2.19-5.882-5.285-5.882-7.851Zm7.859 7.777c-1.738-2.316-4.074-6.261-4.281-10.882 1.68.894 3.257 2.183 4.449 4.039-.465 2.476-.395 4.898-.168 6.843Zm.684-8.918c-1.422-1.753-3.153-2.964-4.93-3.8.105-1.309.394-2.598.86-3.86 2.491.906 4.46 2.203 5.886 3.883a14.655 14.655 0 0 0-1.817 3.777Zm2.566-5.378c-1.54-1.614-3.543-2.872-5.992-3.77 1.25-2.55 3.25-4.98 5.992-7.27 2.742 2.29 4.742 4.72 5.992 7.27-2.45.898-4.453 2.156-5.992 3.77Zm.75 1.601c1.422-1.68 3.394-2.977 5.883-3.883a14.51 14.51 0 0 1 .863 3.86c-1.781.836-3.512 2.047-4.934 3.8a14.64 14.64 0 0 0-1.812-3.777Zm2.332 5.852c1.191-1.856 2.766-3.145 4.445-4.04-.203 4.622-2.539 8.567-4.281 10.883.23-1.945.297-4.367-.164-6.843Zm6.098-4.793a18.003 18.003 0 0 1 1.93-.61v4.469c0 2.566-2.684 5.66-5.887 7.852 1.867-2.696 3.988-6.848 3.957-11.711Zm3.378 10.328c-2.128 1.996-4.726 2.863-7.12 3.176 3.624-2.293 7.304-5.97 7.304-9.645v-4.809a21.678 21.678 0 0 1 4.113-.277c-.129 5.121-1.57 9.008-4.297 11.555Zm0 0"/></clipPath><linearGradient id="c" x1="3025" x2="3025" y1="2487.63" y2="2951.93" gradientTransform="matrix(.06763 0 0 .0669 -186.074 -163.636)" gradientUnits="userSpaceOnUse"><stop offset="0" stop-color="#DBBF8B"/><stop offset=".125" stop-color="#DBBF8B"/><stop offset=".188" stop-color="#DBBF8B"/><stop offset=".219" stop-color="#DABE8A"/><stop offset=".25" stop-color="#D9BD8A"/><stop offset=".281" stop-color="#D9BD8A"/><stop offset=".313" stop-color="#D8BC89"/><stop offset=".344" stop-color="#D7BB89"/><stop offset=".375" stop-color="#D6BA88"/><stop offset=".406" stop-color="#D6BA88"/><stop offset=".438" stop-color="#D5B987"/><stop offset=".469" stop-color="#D4B887"/><stop offset=".5" stop-color="#D4B887"/><stop offset=".531" stop-color="#D3B786"/><stop offset=".563" stop-color="#D2B686"/><stop offset=".594" stop-color="#D1B685"/><stop offset=".625" stop-color="#D1B585"/><stop offset=".656" stop-color="#D0B485"/><stop offset=".688" stop-color="#CFB384"/><stop offset=".719" stop-color="#CEB384"/><stop offset=".75" stop-color="#CEB283"/><stop offset=".781" stop-color="#CDB183"/><stop offset=".813" stop-color="#CCB182"/><stop offset=".844" stop-color="#CCB082"/><stop offset=".875" stop-color="#CBAF82"/><stop offset=".906" stop-color="#CAAE81"/><stop offset=".938" stop-color="#C9AE81"/><stop offset=".969" stop-color="#C9AD80"/><stop offset="1" stop-color="#C8AC80"/></linearGradient></defs><g clip-path="url(#a)"><g clip-path="url(#b)"><path fill="url(#c)" d="M0 2.805V33.87h37.008V2.805Zm0 0"/></g></g></svg>