<svg xmlns="http://www.w3.org/2000/svg" width="50" height="50" version="1.0" viewBox="0 0 37.5 37.5"><defs><clipPath id="a"><path d="M0 0h37.008v37.008H0Zm0 0"/></clipPath></defs><g clip-path="url(#a)"><path fill="#1a4789" d="M37.008 31.379a5.626 5.626 0 0 1-5.625 5.625H5.625A5.626 5.626 0 0 1 0 31.379V5.62A5.626 5.626 0 0 1 5.625-.004h25.758a5.626 5.626 0 0 1 5.625 5.625Zm0 0"/></g><path fill="#fff" d="m24.52 21.375.601-4.64h-4.598v-2.962c0-1.343.375-2.261 2.301-2.261h2.457V7.363c-.426-.058-1.883-.183-3.582-.183-3.539 0-5.965 2.164-5.965 6.133v3.421h-4.007v4.641h4.007v11.906h4.79V21.375Zm0 0"/></svg>