<svg xmlns="http://www.w3.org/2000/svg" width="50" height="50" version="1.0" viewBox="0 0 37.5 37.5"><defs><clipPath id="a"><path d="M.508 13H2v6H.508Zm0 0"/></clipPath><clipPath id="b"><path d="M17 36h1v1.008h-1Zm0 0"/></clipPath><clipPath id="c"><path d="M31 9h5.773v6H31Zm0 0"/></clipPath><clipPath id="d"><path d="M.508 17H3v6H.508Zm0 0"/></clipPath><clipPath id="e"><path d="M33 19h3.773v6H33Zm0 0"/></clipPath></defs><path fill="#689ac5" d="M18.402 1.047c.391.094.91.219 1.305.312.145-.144.34-.34.469-.496a5.014 5.014 0 0 0-1.074-.57A83.888 83.888 0 0 0 18.066.18c-.058.082-.152.18-.222.246.183.156.367.363.558.62"/><path fill="#274082" d="M16.129 1.348c.297.097.695.23.996.324.242-.168.57-.395.813-.567a3.781 3.781 0 0 0-.426-.64l-.707-.133c-.172.09-.403.215-.575.305a5.055 5.055 0 0 0-.101.71"/><path fill="#69a2cd" d="M13.941 1.691c.188.114.442.258.637.356.328-.192.762-.445 1.09-.633a3.86 3.86 0 0 1 .238-.726 4.1 4.1 0 0 1-.347-.172c-.262.105-.614.254-.875.367a4.38 4.38 0 0 0-.743.808M11.988 2.063c.059.124.153.289.242.398.387-.211.903-.488 1.29-.695.27-.325.558-.602.863-.832a.384.384 0 0 1 .027-.22c-.336.13-.781.298-1.113.43a8.16 8.16 0 0 0-1.309.919M10.406 2.434c-.066.128-.14.308-.168.453.418-.23.973-.528 1.39-.746.45-.364.919-.676 1.415-.942.11-.09.27-.203.395-.273-.38.14-.887.332-1.262.484-.617.293-1.207.637-1.77 1.024"/><path fill="#69a2cd" d="M9.363 2.777a6.709 6.709 0 0 0-.586.52c.407-.242.95-.559 1.364-.79a13.63 13.63 0 0 1 1.847-1.046c.215-.106.512-.242.735-.336-.387.152-.907.36-1.29.527-.718.328-1.41.703-2.07 1.125"/><path fill="#69a2cd" d="M9.234 2.836c.383-.242.774-.473 1.18-.684a42.73 42.73 0 0 0-1.86 1.125l-.093.063c.23-.152.539-.356.773-.504"/><path fill="#3a6ab9" d="M25.672 3.637c.605.207 1.41.484 2.015.695.387-.312.899-.727 1.282-1.043a17.895 17.895 0 0 0-.918-1.57l-1.832-.559c-.328.266-.766.613-1.098.867.184.496.371 1.032.55 1.61"/><path fill="#274082" d="m16.207 6.164 1.816.676c.461-.336 1.075-.785 1.536-1.125a43.97 43.97 0 0 0-.461-1.617c-.489-.16-1.137-.375-1.621-.54l-1.364.938c.024.516.055 1.074.094 1.668"/><path fill="#3881b6" d="M12.152 6.805c.457.207 1.063.476 1.52.675.504-.359 1.176-.835 1.683-1.19-.011-.599-.007-1.161.004-1.68-.398-.16-.93-.38-1.324-.548l-1.527 1.004a21.616 21.616 0 0 0-.356 1.739"/><path fill="#3a6ab9" d="M8.531 7.492c.332.215.785.496 1.13.692.51-.375 1.194-.871 1.71-1.239.125-.62.27-1.207.438-1.754-.286-.164-.668-.39-.946-.57-.476.316-1.11.738-1.582 1.059a15.84 15.84 0 0 0-.75 1.812"/><path fill="#689ac5" d="M5.594 8.184c.191.226.453.523.668.73.476-.39 1.117-.902 1.601-1.277.246-.645.52-1.258.828-1.832a5.86 5.86 0 0 1-.515-.606c-.457.324-1.059.758-1.504 1.094a15.688 15.688 0 0 0-1.078 1.89M3.66 8.816c.008.243.043.563.102.797.394-.394.93-.914 1.34-1.293.34-.668.714-1.304 1.132-1.906a2.882 2.882 0 0 1-.035-.66c-.383.324-.886.762-1.25 1.101A17.314 17.314 0 0 0 3.66 8.816"/><path fill="#274082" d="M2.54 10.188c.253-.387.605-.895.882-1.262.394-.688.836-1.344 1.316-1.973.137-.23.328-.535.496-.75L4.97 6.5l-.614.754C3.273 8.777 3.25 8.804 2.781 9.66c-.074.16-.183.363-.242.527"/><path fill="#69a2cd" d="M22.191 13.102c.692.293 1.61.687 2.297.988.54-.426 1.262-.992 1.801-1.422a36.982 36.982 0 0 0-.586-2.313c-.676-.273-1.574-.632-2.25-.898-.512.395-1.195.922-1.71 1.316.155.747.308 1.524.448 2.329"/><path fill="#4186b9" d="M16.95 13.79c.675.276 1.577.651 2.253.933.574-.45 1.34-1.047 1.914-1.493-.133-.804-.27-1.582-.41-2.332a504.49 504.49 0 0 0-2.187-.851c-.555.418-1.293.973-1.844 1.39.082.758.172 1.543.273 2.352"/><path fill="#69a2cd" d="M7.398 15.438c.536.277 1.247.636 1.786.902.52-.48 1.218-1.117 1.75-1.582a35.593 35.593 0 0 1-.07-2.387 84.62 84.62 0 0 1-1.696-.816c-.52.437-1.207 1.027-1.719 1.476-.05.781-.07 1.586-.05 2.406"/><path fill="#3881b6" d="M3.75 16.297c.402.281.945.648 1.363.914a62.439 62.439 0 0 1 1.461-1.594 23.37 23.37 0 0 1 .078-2.414 34.57 34.57 0 0 1-1.289-.836c-.437.442-1.02 1.04-1.441 1.496a19.879 19.879 0 0 0-.172 2.434M1.344 17.086c.215.3.523.691.773.965a30.31 30.31 0 0 1 1.02-1.582c.015-.832.082-1.645.195-2.442a10.86 10.86 0 0 1-.766-.875c-.3.434-.695 1.016-.968 1.47-.141.804-.223 1.628-.254 2.464"/><g clip-path="url(#a)"><path fill="#69a2cd" d="M.523 17.684c.02.316.063.742.13 1.054.097-.46.25-1.07.394-1.515.035-.836.121-1.66.266-2.465a6.238 6.238 0 0 1-.11-.965 16.63 16.63 0 0 0-.375 1.285v.008c-.082.555-.2 1.293-.254 1.848l-.05.75"/></g><path fill="#69a2cd" d="M18.246 22.773c.649.27 1.516.637 2.164.91.559-.437 1.305-1.015 1.867-1.449a123.44 123.44 0 0 0-.254-2.468c-.675-.301-1.582-.7-2.261-.993-.575.461-1.336 1.082-1.91 1.551.128.832.261 1.649.394 2.45"/><path fill="#274082" d="M25.398 19.488c.653.258 1.516.602 2.168.856.5-.446 1.172-1.04 1.684-1.477-.148-.797-.293-1.613-.43-2.445l-2.242-.938c-.527.47-1.223 1.102-1.742 1.582.172.825.36 1.633.562 2.422"/><path fill="#69a2cd" d="M9.012 24.371c.61.25 1.425.578 2.035.82.41-.449.96-1.043 1.383-1.48a40.488 40.488 0 0 1-.594-2.418c-.629-.27-1.469-.629-2.094-.906a69.56 69.56 0 0 0-1.441 1.59c.207.816.445 1.617.71 2.394"/><path fill="#3881b6" d="M5.484 25.2c.524.25 1.227.573 1.758.808.281-.445.668-1.035.973-1.465a27.438 27.438 0 0 1-.742-2.39 85.953 85.953 0 0 1-1.805-.895c-.316.469-.73 1.094-1.02 1.578.239.812.516 1.602.836 2.363"/><path fill="#69a2cd" d="M3.156 25.96c.38.263.89.599 1.29.833.113-.434.288-1.008.445-1.426a21.696 21.696 0 0 1-.852-2.36 26.78 26.78 0 0 1-1.367-.91 17.302 17.302 0 0 0-.43 1.524c.254.805.563 1.586.914 2.34M2.363 26.54c.203.28.48.64.715.894a12.006 12.006 0 0 1-.207-1.336 19.24 19.24 0 0 1-.926-2.336c-.234-.282-.539-.668-.738-.977.047.434.121 1.012.215 1.438.266.8.578 1.574.941 2.316"/><path fill="#3881b6" d="M23.465 29.957c.402.223.933.527 1.328.77.484-.329 1.125-.758 1.61-1.079.16-.648.3-1.324.417-2.027a55.64 55.64 0 0 0-1.554-.906c-.524.375-1.223.875-1.746 1.254a45.545 45.545 0 0 1-.055 1.988"/><path fill="#274082" d="M19.707 30.45c.477.202 1.113.48 1.59.695.418-.332.976-.774 1.398-1.098a71.475 71.475 0 0 0-.039-1.977c-.539-.25-1.261-.582-1.808-.824-.465.379-1.09.887-1.547 1.274.137.675.27 1.32.406 1.93"/><path fill="#3881b6" d="M16.094 31.02c.527.187 1.23.44 1.754.632.324-.332.765-.773 1.101-1.093a63.068 63.068 0 0 1-.5-1.91c-.586-.231-1.367-.54-1.957-.762a64.25 64.25 0 0 0-1.25 1.277c.274.652.559 1.27.852 1.856M10.242 32.25c.52.164 1.211.379 1.735.54.07-.313.183-.727.293-1.028a20.454 20.454 0 0 1-1.325-1.77c-.562-.199-1.312-.465-1.87-.672-.137.364-.305.848-.403 1.223.496.605 1.02 1.176 1.57 1.707"/><path fill="#69a2cd" d="M8.52 32.813a59.75 59.75 0 0 0 1.472.53 6.788 6.788 0 0 1-.187-.972A19.045 19.045 0 0 1 8.18 30.68a57.814 57.814 0 0 1-1.61-.657 8.8 8.8 0 0 0 .164 1.153 18.58 18.58 0 0 0 1.786 1.637M7.93 33.242c.324.176.761.403 1.093.555-.226-.254-.52-.606-.718-.883a20.337 20.337 0 0 1-1.809-1.625c-.351-.2-.812-.473-1.148-.691.203.328.488.757.73 1.058.582.57 1.203 1.098 1.852 1.586"/><path fill="#274082" d="M21.965 33.574c.203.102.473.242.668.36.18-.164.426-.38.613-.532.07-.336.129-.718.176-1.144a29.096 29.096 0 0 0-.965-.543c-.258.23-.598.543-.84.785.117.402.235.762.348 1.074"/><path fill="#69a2cd" d="M19.262 35.117c.363.07.843.168 1.207.238a1.64 1.64 0 0 1-.121-.445 9.364 9.364 0 0 1-1.11-.953c-.433-.125-1.011-.293-1.445-.414-.04.21-.086.496-.086.71.508.337 1.027.626 1.555.864"/><path fill="#3881b6" d="M16.266 36.531c.414.043.964.102 1.379.14-.25-.089-.586-.214-.829-.327-.71-.196-1.41-.442-2.093-.739-.453-.093-1.063-.218-1.516-.32.211.188.504.426.738.586.754.274 1.532.492 2.32.66"/><path fill="#274082" d="M16.016 36.715c.382.039.894.09 1.28.12-.339-.07-.788-.17-1.12-.26a17.97 17.97 0 0 1-2.36-.641c-.398-.09-.93-.211-1.324-.313.324.164.762.371 1.098.512.789.246 1.598.441 2.426.582"/><g clip-path="url(#b)"><path fill="#69a2cd" d="m17.7 37.008-.223-.02.156.016.066.004"/></g><path fill="#3881b6" d="M21.031 2.7c.54.152 1.258.362 1.797.523.219-.22.504-.516.703-.75a10.694 10.694 0 0 0-1.281-1.07c-.469-.11-1.094-.255-1.563-.356-.144.168-.347.383-.503.539.285.324.57.695.847 1.113"/><path fill="#274082" d="m17.719 3.086 1.582.508c.32-.246.746-.574 1.062-.824a11.026 11.026 0 0 0-.734-1.125c-.402-.102-.938-.243-1.34-.344-.254.183-.59.426-.848.605.09.348.18.742.278 1.18"/><path fill="#69a2cd" d="M14.434 3.563c.382.156.894.363 1.277.511l1.328-.898-.16-1.192c-.309-.105-.723-.246-1.031-.355l-1.125.672c-.11.375-.207.797-.29 1.261"/><path fill="#3881b6" d="M11.383 4.09c.265.168.629.383.906.535l1.492-.96c.121-.47.254-.895.406-1.278-.203-.11-.472-.258-.667-.383-.399.219-.926.512-1.32.734-.294.407-.567.86-.817 1.352"/><path fill="#3a6ab9" d="M8.77 4.637c.132.183.324.414.484.578.46-.309 1.082-.715 1.55-1.016.282-.496.59-.957.919-1.37a2.012 2.012 0 0 1-.27-.427c-.426.235-.992.547-1.414.79-.45.44-.875.921-1.27 1.445"/><path fill="#3881b6" d="M6.813 5.168c-.016.191-.016.445.015.633.442-.32 1.031-.742 1.48-1.051.419-.531.872-1.02 1.352-1.469.024-.148.078-.344.145-.48-.418.242-.973.574-1.387.828-.57.473-1.105.988-1.605 1.539"/><path fill="#3a6ab9" d="M5.793 5.613c-.16.207-.367.489-.5.715.363-.324.852-.75 1.227-1.058a15.611 15.611 0 0 1 1.66-1.555c.164-.176.394-.399.578-.555-.356.246-.832.578-1.18.836-.633.5-1.226 1.04-1.785 1.617"/><path fill="#3881b6" d="M23.73 8.773c.672.262 1.567.614 2.235.88.43-.356 1-.837 1.422-1.208-.29-.687-.598-1.34-.926-1.957-.629-.234-1.469-.543-2.102-.77-.386.325-.91.755-1.304 1.075.238.625.465 1.285.675 1.98"/><path fill="#274082" d="M31.027 3.172c.653.25 1.52.582 2.168.832l1.696-1.293c-.196-.7-.399-1.363-.61-1.992C33.668.504 32.855.215 32.242 0c-.469.348-1.09.809-1.562 1.152.117.641.23 1.317.347 2.02"/><path fill="#69a2cd" d="M14.086 10.035c.594.242 1.387.567 1.984.805l1.825-1.367c-.098-.707-.188-1.387-.278-2.028a256.06 256.06 0 0 1-1.84-.695c-.515.363-1.195.852-1.707 1.219a52.95 52.95 0 0 0 .016 2.066"/><path fill="#4186b9" d="M9.625 10.809c.504.242 1.176.562 1.684.796.546-.425 1.277-.996 1.828-1.418 0-.722.015-1.414.047-2.078-.461-.203-1.079-.48-1.54-.695-.519.379-1.214.887-1.73 1.274a24.394 24.394 0 0 0-.289 2.12"/><path fill="#274082" d="M5.813 11.61c.375.25.882.578 1.273.816.504-.442 1.184-1.028 1.7-1.457.081-.739.198-1.45.343-2.13-.348-.21-.809-.491-1.149-.714-.488.387-1.14.906-1.62 1.309a19.461 19.461 0 0 0-.548 2.175M2.95 12.387c.218.265.519.61.765.851a71.89 71.89 0 0 1 1.422-1.468c.16-.754.36-1.485.593-2.188a9.393 9.393 0 0 1-.671-.75c-.418.39-.97.918-1.368 1.324-.293.719-.543 1.461-.742 2.23"/><path fill="#69a2cd" d="M1.46 13.031c.017.285.056.664.118.942.27-.442.645-1.02.945-1.442.207-.77.47-1.515.77-2.238a4.838 4.838 0 0 1-.09-.824c-.281.379-.644.89-.898 1.293-.328.73-.614 1.492-.844 2.27"/><g clip-path="url(#c)"><path fill="#3a6ab9" d="M32.238 13.691c.653.32 1.516.75 2.16 1.082.555-.425 1.293-1 1.836-1.437-.039-.43-.093-.86-.152-1.293-.059-.43-.125-.855-.203-1.277a87.083 87.083 0 0 0-2.184-1.079l-1.812 1.438a48.365 48.365 0 0 1 .355 2.566"/></g><path fill="#3a6ab9" d="M14.926 18.734c.676.29 1.574.672 2.254.957a255.45 255.45 0 0 1 1.91-1.57c-.063-.426-.121-.855-.18-1.285-.058-.434-.12-.86-.176-1.281-.68-.285-1.582-.668-2.261-.953-.575.468-1.336 1.093-1.907 1.566.055.422.11.852.168 1.281.063.434.125.86.192 1.285"/><path fill="#69a2cd" d="M10.047 19.582c.629.277 1.469.648 2.101.918.516-.48 1.211-1.121 1.735-1.598a63.477 63.477 0 0 1-.188-1.285c-.062-.43-.117-.86-.168-1.281-.625-.273-1.46-.645-2.086-.922-.527.477-1.23 1.113-1.75 1.598.043.425.094.851.153 1.285.062.43.129.86.203 1.285"/><path fill="#689ac5" d="M5.871 20.457c.543.277 1.266.645 1.816.906.426-.484.997-1.129 1.438-1.605a27.35 27.35 0 0 1-.203-1.281 25.5 25.5 0 0 1-.152-1.286c-.54-.27-1.254-.632-1.79-.914a71.519 71.519 0 0 0-1.464 1.61c.039.425.086.855.144 1.285.063.433.133.86.211 1.285M2.742 21.305c.406.289.961.66 1.383.922.293-.485.691-1.125 1.012-1.594a26.54 26.54 0 0 1-.215-1.281 24.36 24.36 0 0 1-.14-1.286 36.16 36.16 0 0 1-1.36-.925 28.6 28.6 0 0 0-1.035 1.597c.031.426.078.856.136 1.29.059.429.133.859.22 1.277"/><g clip-path="url(#d)"><path fill="#274082" d="M1.117 22.012c.207.308.508.71.75.988.106-.465.262-1.082.406-1.531a23.067 23.067 0 0 1-.218-1.282 21.247 21.247 0 0 1-.137-1.289 12.376 12.376 0 0 1-.754-.984c-.14.453-.309 1.066-.402 1.531.027.43.07.86.133 1.29.058.433.132.859.222 1.277"/></g><g clip-path="url(#e)"><path fill="#69a2cd" d="M33.02 23.336c.48.273 1.113.64 1.582.93.546-.368 1.277-.86 1.824-1.235.14-.746.25-1.52.332-2.308a55.274 55.274 0 0 0-1.735-1.051c-.574.414-1.343.965-1.918 1.375-.007.785-.039 1.55-.085 2.289"/></g><path fill="#689ac5" d="M27.871 24.992c.555.254 1.29.59 1.84.852.527-.387 1.23-.899 1.762-1.282.02-.738.027-1.5.015-2.28a134.33 134.33 0 0 0-2.004-.962c-.558.426-1.304.996-1.859 1.426.09.77.172 1.524.246 2.246"/><path fill="#3a6ab9" d="m16.742 27.254 1.98.781a162.93 162.93 0 0 1 1.567-1.305c-.102-.722-.207-1.468-.312-2.238-.645-.27-1.497-.625-2.141-.89-.504.43-1.172 1.011-1.668 1.449.184.762.375 1.496.574 2.203"/><path fill="#3881b6" d="M12.582 27.973c.605.218 1.406.511 2.012.73.37-.398.875-.922 1.261-1.305a54.466 54.466 0 0 1-.64-2.191c-.64-.254-1.496-.586-2.14-.84a80.334 80.334 0 0 0-1.368 1.457c.273.742.566 1.461.875 2.149M9.027 28.719c.57.21 1.332.488 1.903.695.25-.394.593-.91.867-1.289a29.589 29.589 0 0 1-.934-2.137 307.96 307.96 0 0 1-2.011-.8c-.297.421-.688.996-.961 1.437.347.727.73 1.426 1.136 2.094"/><path fill="#69a2cd" d="M4.977 30.047c.347.223.816.508 1.175.71a9.318 9.318 0 0 1-.187-1.175 20.027 20.027 0 0 1-1.363-2.031c-.383-.235-.891-.555-1.258-.817.039.399.11.926.199 1.317.434.695.914 1.363 1.434 1.996"/><path fill="#3881b6" d="M5.617 31.234c-.242-.316-.55-.746-.754-1.086a18.573 18.573 0 0 1-1.445-1.988 10.623 10.623 0 0 1-.691-.875l.152.285.043.075c1.015 1.632 1.015 1.632 1.625 2.398l.726.852.344.34"/><path fill="#69a2cd" d="M14.379 34.527c.473.118 1.101.274 1.578.391a4.49 4.49 0 0 1 .105-.754 15.766 15.766 0 0 1-1.3-1.379l-1.766-.547a9.39 9.39 0 0 0-.27.985c.536.476 1.086.914 1.653 1.304"/><path fill="#689ac5" d="m12.758 34.969 1.547.351a5.116 5.116 0 0 1-.309-.703 16.653 16.653 0 0 1-1.73-1.285c-.508-.148-1.188-.352-1.696-.508.043.281.114.656.2.93.64.45 1.304.855 1.988 1.215"/><path fill="#69a2cd" d="M11.918 35.332c.402.11.937.25 1.344.344a8.775 8.775 0 0 1-.746-.625 18.45 18.45 0 0 1-2.04-1.2 48.366 48.366 0 0 1-1.44-.5c.202.262.484.606.714.844.695.426 1.422.805 2.168 1.137"/><path fill="#689ac5" d="M11.898 35.594c.313.113.739.258 1.059.351a19.52 19.52 0 0 1-1.11-.55c-.75-.329-1.48-.704-2.179-1.125a21.107 21.107 0 0 1-1.078-.524c.312.223.73.516 1.058.715l.48.277c.575.317 1.165.602 1.77.856"/></svg>