<svg xmlns="http://www.w3.org/2000/svg" width="50" height="50" version="1.0" viewBox="0 0 37.5 37.5"><defs><clipPath id="a"><path d="M2.43.016h31.82v36.98H2.43Zm0 0"/></clipPath></defs><path fill="#3f383b" d="M23.191 18.68 19.25 8.758l-2.719-6.832c-.066-.16-.27-.2-.402-.113v-.047l-.027.066a.24.24 0 0 0-.067.094L13.32 8.758l.012.027-8.348 20.93c1.106-1.156 2.47-2.219 4.082-3.176a30.818 30.818 0 0 1 3.871-1.91l3.356-8.395 2.402 6.047c4.434-1.734 9.828-4.707 11.57-10.43.087-.285.165-.562.231-.835-1.523 3.773-5.18 6.398-7.305 7.664"/><g clip-path="url(#a)"><path fill="#e9202a" d="M34.242 11.969c-.133 3.344-1.816 6.656-4.488 8.984-1.324 1.152-2.836 2.16-4.45 3.043-.593.324-1.202.633-1.824.926-.007.004-.011.004-.02.008a43.65 43.65 0 0 1-3.175 1.34 60.273 60.273 0 0 1-4.441 1.472c-3.617 1.055-7.512 3-10.524 5.48 2.985-2.738 7.035-4.937 10.805-6.144 4.895-1.562 10.047-3.773 13.7-7.137 3.433-3.156 5.09-7.984 3.753-12.265-1.336-4.281-5.844-7.692-10.715-7.66 0 0 4.54.992 6.535 4.554 1.778 3.18 1.934 5.098 1.211 7.758-1.953 7.184-9.71 10.246-14.246 11.867-4.535 1.625-9.113 4.114-11.707 7.883-1.25 1.813-2.023 4.363-2.226 4.918 3.011-3.855 7.445-6.324 13.414-8.398 1.539-.535 3.164-.98 4.734-1.586l3.36 8.445h5.93l-4.282-10.762c1.508-.847 2.918-1.8 4.168-2.89 2.902-2.524 4.633-6.207 4.488-9.836"/></g></svg>