<svg xmlns="http://www.w3.org/2000/svg" width="50" height="50" version="1.0" viewBox="0 0 37.5 37.5"><defs><clipPath id="a"><path d="M3.195 0h30.34v37.008H3.195Zm0 0"/></clipPath><clipPath id="b"><path d="M3.191 1H33v36H3.191Zm0 0"/></clipPath></defs><g clip-path="url(#a)"><path fill="#3e5eb4" d="M32.914 18.566c.461-.71.18-1.53.027-1.964-.68-1.973-1.8-3.797-3.332-5.43-.39-.414-.547-.817-.562-1.43-.078-2.965-1.02-5.672-2.805-8.039C25.91 1.262 25.18.687 25.04.578l-.559-.43-.48.516c-.078.086-.766.828-1.07 1.313-.211.332-.399.675-.578 1.007-.192.348-.375.676-.575.989-.71 1.101-1.992 1.789-3.347 1.789-.461 0-.91-.078-1.34-.23-1.082-.387-1.832-1.028-2.36-2.016C14.2 2.527 12.934.762 12.88.687L12.383 0l-.64.555c-.282.246-.966.847-1.184 1.14-1.762 2.309-2.696 4.934-2.782 7.79-.023.788-.234 1.316-.75 1.874-1.828 1.98-3.02 4.204-3.543 6.61l-.043.207.063.199a.95.95 0 0 0 .312.46c-.101.34-.207.688-.336 1.017-.414 1.046-.378 2.093.11 3.3 1.457 3.61 3.574 6.68 6.289 9.13.91.82 1.91 1.656 3.059 2.195l.171.082.196-.008c.332-.02.566-.16.726-.297.11.082.223.164.332.242 1.149.832 2.336 1.691 3.715 2.352l.332.16.332-.156c1.153-.547 2.172-1.27 3.156-1.973.262-.188.532-.379.801-.566.156.144.383.273.696.292l.156.008.148-.054c.613-.223 1.106-.598 1.582-.957.074-.059.149-.114.223-.172 2.808-2.094 5.094-4.907 6.984-8.598.84-1.645 1.64-3.832.426-6.266"/></g><path fill="#fff" d="M28.652 14.832s.07.785.34 1.11c.274.32.66.761.66.761s-.468-1.52-1-1.871Zm-9.191 12.45s1.105-.255 1.223-.442c.117-.184 0-.442 0-.442Zm9.512-7.071c0 .02.004.043.004.066l.023-.011a.555.555 0 0 0-.027-.055Zm-4.774 7.07c-.195.348-1.379 1.73-1.379 1.73s2.477-1.714 3.332-3.628c0 0-1.761 1.555-1.953 1.898Zm.996-16.648c-.422-.473-.922-.426-.922-.426.391.262.766 1.238.766 1.238.61 0 1.383.535 1.383.535l.207-.613-.57-.168a1.91 1.91 0 0 1-.864-.566ZM24.2 15.27s-.312-.157-.933-.254c-.621-.102-1.825.925-1.825.925s1.184.348 1.668.168c.489-.175 1.09-.84 1.09-.84Zm4.774 5.511c-.012-.039-.02-.082-.028-.12-.125.78-.593 1.722-.593 1.722s.5-.488.71-1c0-.047-.003-.094-.007-.14a3.08 3.08 0 0 0-.082-.462Zm-15.414-5.765c-.621.097-.93.254-.93.254s.601.664 1.086.84c.484.18 1.668-.169 1.668-.169s-1.203-1.027-1.824-.925Zm4.804 7.129c-1.039 0-1.246.48-1.246.48.625-.242 1.246-.242 1.246-.242s.625 0 1.25.242c0 0-.207-.48-1.25-.48Zm13.813 2.293c-.153.39-1.512 2.562-1.512 2.562s.004-.012.008-.04l.035-.16c.04-.16.094-.398.168-.652.047-.171.102-.351.16-.523l.063-.168c.047-.125.097-.242.152-.348.027-.05.05-.097.078-.14a.957.957 0 0 1 .129-.16c.426-.41.719-1.762.719-1.762s.035.215.054.484c.024.313.032.696-.054.907"/><path fill="#6cc0ed" d="m10.824 23.813.11 1.074s-.079.625.257 1.355c.336.735 2.692 2.64 2.692 2.64s-1.672-2.066-1.95-2.796c-.277-.73-1.109-2.273-1.109-2.273Zm11.707 9.667c.114-.074.223-.148.34-.222.024.02.05.043.07.066.067.074.11.156.153.235l.097-.063.192-.137.187-.144c.114-.09.227-.184.336-.278.563-.636 1.164-1.484 1.34-2.343 0 0-2.016 2.363-2.715 2.886ZM10.31 11.98s.773-.535 1.382-.535c0 0 .375-.976.766-1.238 0 0-.5-.047-.922.426a1.91 1.91 0 0 1-.863.566l-.574.168Zm.734.09a4.441 4.441 0 0 0-1.047.66l-.07.012-.414-1.668c.62-.683 2.05-1.402 2.05-1.402l-1.28.242c.277-.336 1.245-.93 1.245-.93.012-.32-.16-1.46-.16-1.46.38.117.84.769.84.769-.137-.797-.89-1.738-.89-1.738l-.868 1.113c.047-.695.774-2.203.774-2.203 1.308.515 2.605 3.777 2.605 3.777-.996.836-1.848 2.52-1.848 2.52a4.813 4.813 0 0 0-.937.308Zm11.773 15.79c.106-.15.204-.4.293-.7-.09.227-.187.465-.293.7Zm.622-2.231v.004-.004Zm5.554-9.688c.274.32.66.762.66.762s-.468-1.52-1-1.871c0 0 .07.785.34 1.11Zm-.64 6.442s.5-.488.71-1c0-.047-.003-.094-.007-.14a3.08 3.08 0 0 0-.082-.462c-.012-.039-.02-.082-.028-.12-.125.78-.593 1.722-.593 1.722Zm.62-2.172c0 .02.005.043.005.066l.023-.011a.555.555 0 0 0-.027-.055Zm-2.82 5.172s-1.761 1.555-1.953 1.898c-.195.348-1.379 1.73-1.379 1.73s2.477-1.714 3.332-3.628Zm3.625-6.613c.098.351.176.707.227 1.066l-.07.016a13.618 13.618 0 0 0-.793-1.984c-.16-.317-.329-.622-.512-.919.191.574 1.082 3.356.91 4.477-.023.129-.059.25-.113.37a2.393 2.393 0 0 1-.094.466.685.685 0 0 1-.047.125l-.05.125c-.036.086-.09.16-.133.238-.02.04-.051.074-.079.11l-.082.109a2.158 2.158 0 0 1-.082.097l-.082.09c-.215.246-.418.5-.597.762a3.307 3.307 0 0 0-.528 1.32c-.027.153-.062.34-.129.5a3.6 3.6 0 0 1-.543.86 5.496 5.496 0 0 1-.703.71l-.047-.054c.23-.234.442-.484.633-.75.188-.262.356-.547.457-.844.051-.148.07-.289.09-.465.027-.164.059-.332.102-.5.086-.336.23-.656.41-.945.18-.293.387-.555.598-.816l.054-.063c-.605.574-1.316 1.164-1.597 2-.508 1.488-2.602 3.645-3.614 4.27-1.008.629-1.668.98-1.668.98s.61-1.113 1.114-2.246c.28-.328 1.628-1.938 1.976-3.18.38-1.37 1.492-3.215 2.402-3.46 0 0-.714 1.757-.699 3.015 0 0 .657-1.02 1.297-1.91a2.99 2.99 0 0 0 .45-2.543 7.776 7.776 0 0 1-.25-1.313c-.165-1.597-.333-3.02-1.282-3.582 0 0 1.39.301 1.89 1.153 0 0-.312-2.02-1.859-3.325l.07.012c1 .649 2.348 1.66 2.657 2.57.504 1.489.66 2.079.66 2.079l-1.039-.375a9.015 9.015 0 0 1 .695 1.754ZM5.801 25.953c.16.54.265 1.047.265 1.047s-.789-1.262-1.234-2.035a5.407 5.407 0 0 1-.277-.527.943.943 0 0 1-.04-.125c-.054-.27-.03-.68 0-.961.016-.18.04-.305.04-.305s.293 1.351.718 1.762c.2.191.387.68.528 1.144"/><path fill="#5897d7" d="m26.629 11.367-.57-.168a1.91 1.91 0 0 1-.864-.566c-.422-.473-.922-.426-.922-.426.391.262.766 1.238.766 1.238.61 0 1.383.535 1.383.535Zm.59-.293-.414 1.668-.07-.012a4.547 4.547 0 0 0-1.985-.968s-.852-1.684-1.848-2.52c0 0 1.297-3.262 2.606-3.777 0 0 .726 1.508.773 2.203l-.867-1.113s-.754.941-.89 1.738c0 0 .46-.652.84-.77 0 0-.173 1.141-.16 1.461 0 0 .968.594 1.241.93l-1.277-.242s1.43.719 2.05 1.402Zm-15.528.371s.375-.976.766-1.238c0 0-.5-.047-.922.426a1.91 1.91 0 0 1-.863.566l-.574.168.21.613s.774-.535 1.383-.535Zm-.867 12.367.11 1.075s-.079.625.257 1.355c.336.735 2.692 2.64 2.692 2.64s-1.672-2.066-1.95-2.796c-.277-.73-1.109-2.273-1.109-2.273Zm3.098 4.063a35.043 35.043 0 0 0 1.113 2.246s-3.48-1.152-4.676-1.941c-1.191-.79-1.582-1.856-2.05-3.157-.473-1.3-.727-1.562-1.157-2.468-.43-.907-1.523-3.16-1.582-4.344-.047-.906.703-2.363 1.055-2.996.04-.102.102-.207.18-.309.605-.8 2.246-1.597 3.12-2.164l.071-.012c-1.547 1.305-1.86 3.325-1.86 3.325.5-.852 1.891-1.153 1.891-1.153-.949.563-1.117 1.985-1.28 3.582-.052.496-.145.938-.25 1.313a2.977 2.977 0 0 0 .448 2.543c.64.89 1.297 1.91 1.297 1.91.016-1.258-.699-3.016-.699-3.016.91.246 2.02 2.09 2.402 3.461.348 1.242 1.696 2.852 1.977 3.18ZM24.91 16.098s-.62.953-1.219 1.043c-.593.09-1.668 0-1.668 0s1.063.574 1.442.64l-.172-.34s.7.34 1.113.274l-.312-.469s.465.063.957-.027c.394-.074.93-.387 1.125-.512l.078-.05s-.074-.067-.2-.16c-.245-.177-.69-.434-1.144-.4Zm-4.226 10.3-1.223.883s1.105-.254 1.223-.441c.117-.184 0-.442 0-.442Zm.41-.765s.117 1.074-.371 1.469c-.266.214-.961.449-1.528.613a2.998 2.998 0 0 1-1.66 0c-.566-.164-1.262-.399-1.531-.613-.484-.395-.367-1.47-.367-1.47s.836.626 1.34.665c.503.039 1.386-.352 1.386-.352s.887.39 1.39.352c.505-.04 1.34-.664 1.34-.664Zm-2.73-12.926a1.49 1.49 0 0 0 1.261-.703 1.1 1.1 0 0 1-.77.316c-.609 0-1.105-.5-1.105-1.117 0-.613.496-1.113 1.105-1.113.297 0 .57.12.77.316a1.49 1.49 0 0 0-1.262-.703c-.82 0-1.488.672-1.488 1.5 0 .832.668 1.504 1.488 1.504Zm-5.071 12.926v-.004.004Zm.328 1.527c.09.3.188.55.293.7a16.817 16.817 0 0 1-.293-.7Zm-.582-10.02c.594.09 1.668 0 1.668 0s-1.062.575-1.441.641l.171-.34s-.699.34-1.113.274l.313-.469s-.465.063-.957-.027c-.395-.074-.93-.387-1.125-.512-.051-.031-.078-.05-.078-.05s.074-.067.199-.16c.246-.177.691-.434 1.144-.4 0 0 .621.954 1.22 1.044"/><g clip-path="url(#b)"><path fill="#100f0d" d="M23.094 33.559Zm-.223-.301Zm-3.258-10.633s-.207-.48-1.25-.48c-1.039 0-1.246.48-1.246.48.625-.242 1.246-.242 1.246-.242s.625 0 1.25.242Zm.551.457-.172.582c-.62.379-1.629.59-1.629.59s-1.004-.211-1.625-.59l-.172-.582a.812.812 0 0 1 .352-.93c.293-.175.75-.328 1.445-.312.7-.016 1.157.137 1.45.312a.812.812 0 0 1 .351.93Zm2.945-6.973c.489-.175 1.09-.84 1.09-.84s-.312-.156-.933-.253c-.621-.102-1.825.925-1.825.925s1.184.348 1.668.168Zm-9.55-1.093c-.621.097-.93.254-.93.254s.601.664 1.086.84c.484.18 1.668-.169 1.668-.169s-1.203-1.027-1.824-.925Zm15.523 2 1.04.375s-.157-.59-.661-2.078c-.309-.91-1.656-1.922-2.656-2.57l.414-1.669s.691-1.71.164-3.34c-.512-1.597-1.438-3.785-1.438-3.785s-3.941 2.59-4.441 4.434c0 0-1.164-.516-1.98-.45 0 0 3.343 1.61 3.808 4.2-.059-.2-.14-.383-.242-.559a3.589 3.589 0 0 0-.453-.617 6.717 6.717 0 0 0-.528-.527l-.054.043c.136.21.28.41.414.617.129.203.25.414.347.629.098.215.168.437.204.66.011.062.015.125.02.187-.08.004-.165.008-.259.02a1.919 1.919 0 0 0-.344-.973 1.607 1.607 0 0 0-.425-.433l-.047.05c.117.157.215.317.285.489a2.147 2.147 0 0 1 .184.914 3.76 3.76 0 0 0-.204.043c-.011-.07-.023-.145-.039-.215a1.641 1.641 0 0 0-.152-.406l-.07.02c.008.14.015.277.008.41a3.175 3.175 0 0 1-.028.277c-.418.156-.797.433-.906.918 0 0-.43-.453-.047-1.39 0 0-1.781 1.233-.402 3.476 0 0 2.27-1.72 2.836-1.461.57.254 1.586 1.101 1.586 1.101s-.91 1.278-1.446 1.364c-.539.09-2.187-.118-2.707.101-.523.223-.324 2.285-.324 2.285s-2.082-2.402-2.176-3.722c-.09 1.32-2.172 3.722-2.172 3.722s.2-2.062-.324-2.285c-.52-.219-2.168-.012-2.707-.101-.535-.086-1.445-1.364-1.445-1.364s1.015-.847 1.586-1.101c.566-.258 2.836 1.46 2.836 1.46 1.379-2.242-.403-3.476-.403-3.476.383.938-.046 1.39-.046 1.39-.11-.484-.489-.761-.907-.917a2.151 2.151 0 0 1-.027-.278c-.008-.132 0-.27.004-.41l-.067-.02c-.07.126-.117.266-.152.407-.016.07-.027.144-.039.215a3.76 3.76 0 0 0-.203-.043 2.147 2.147 0 0 1 .184-.914c.07-.172.167-.332.285-.489l-.047-.05a1.68 1.68 0 0 0-.43.433 1.91 1.91 0 0 0-.266.563c-.039.133-.062.27-.074.41-.094-.012-.18-.016-.258-.02.004-.062.008-.125.02-.187.035-.223.105-.445.203-.66a5.22 5.22 0 0 1 .348-.63c.133-.206.277-.405.414-.616l-.055-.043c-.184.164-.36.34-.527.527-.168.188-.324.39-.453.617-.102.176-.184.36-.243.559.465-2.59 3.809-4.2 3.809-4.2-.82-.066-1.98.45-1.98.45-.5-1.844-4.446-4.434-4.446-4.434S9.86 6.137 9.348 7.734c-.528 1.63.164 3.34.164 3.34l.414 1.668c-1 .649-2.348 1.66-2.656 2.57-.504 1.489-.66 2.079-.66 2.079l1.038-.375a9.015 9.015 0 0 0-.695 1.754 8.354 8.354 0 0 0-.226 1.066l.07.016a13.618 13.618 0 0 1 .793-1.984c.156-.317.328-.622.508-.919-.188.574-1.078 3.356-.907 4.477.02.129.059.25.114.37.015.157.047.313.093.466a.685.685 0 0 0 .047.125l.051.125c.035.086.09.16.133.238.02.04.05.074.078.11l.082.109c.027.035.055.066.082.097l.082.09c.211.246.418.5.594.762.18.266.324.547.418.852.047.152.082.308.113.468.027.153.063.34.129.5a3.6 3.6 0 0 0 .543.86c.215.257.445.496.703.71l.047-.054a6.428 6.428 0 0 1-.633-.75 3.342 3.342 0 0 1-.457-.844 2.33 2.33 0 0 1-.094-.465 4.7 4.7 0 0 0-.097-.5 3.401 3.401 0 0 0-.41-.945 7.821 7.821 0 0 0-.598-.816l-.055-.063c.602.574 1.317 1.164 1.598 2 .504 1.488 2.601 3.645 3.613 4.27 1.008.629 1.668.98 1.668.98s-.61-1.113-1.113-2.246c.031.035.05.059.05.059-.019-.02-.038-.047-.058-.075a16.817 16.817 0 0 1-.293-.699c-.129-.433-.238-.98-.328-1.527v-.004c-.203-1.211-.309-2.43-.309-2.43-.543-1.758-2.656-3.93-2.656-3.93.23-.003.461.024.688.079.066.035.129.07.191.105.293.172.57.371.832.59l.195.168.184.176c.125.117.242.242.355.37.227.259.43.54.59.848l.067-.027a3.595 3.595 0 0 0-.485-.953 5.432 5.432 0 0 0-.5-.613 7.232 7.232 0 0 1 1.356 1.222l1.347-1.437s-.14.336-.296.883l-.07.086-.134.191-.128.195a4.974 4.974 0 0 0-.656 1.719c-.055.3-.083.61-.071.914l.074.004a5.92 5.92 0 0 1 .527-1.684c.024-.05.051-.101.075-.152-.09.281-.153.57-.184.86a4.26 4.26 0 0 0 .047 1.18c.074.382.2.757.39 1.093l.063-.027a4.153 4.153 0 0 1-.238-1.098 4.09 4.09 0 0 1-.004-.656c.277 1.191 1.477 1.984 2.254 2.16.922.21 1.566-.344 1.566-.344s.649.555 1.57.344c.778-.176 1.977-.969 2.255-2.16a4.313 4.313 0 0 1-.242 1.754l.062.027c.191-.336.316-.711.39-1.094a4.26 4.26 0 0 0 .047-1.18 4.379 4.379 0 0 0-.183-.859c.023.05.05.102.074.152a6.373 6.373 0 0 1 .527 1.684l.075-.004a4.225 4.225 0 0 0-.07-.914 4.974 4.974 0 0 0-.657-1.719l-.129-.195-.133-.191-.07-.086c-.156-.547-.3-.883-.3-.883l1.35 1.437s.544-.664 1.356-1.222c-.18.191-.348.394-.5.613-.203.293-.379.61-.484.953l.066.027c.16-.308.363-.59.59-.847.113-.13.23-.254.352-.371l.187-.176.195-.168c.262-.219.54-.418.829-.59l.195-.105c.223-.055.453-.082.687-.078 0 0-2.117 2.171-2.656 3.93 0 0-.105 1.218-.308 2.429v.004c-.09.547-.2 1.094-.329 1.527-.09.227-.187.465-.293.7a.615.615 0 0 1-.058.074s.02-.02.05-.059a35.043 35.043 0 0 1-1.113 2.246s.66-.351 1.668-.98c1.012-.625 3.106-2.782 3.614-4.27.28-.836.992-1.426 1.597-2l-.054.063c-.211.261-.418.523-.598.816-.18.29-.324.61-.41.945a5.972 5.972 0 0 0-.102.5c-.02.176-.039.317-.09.465-.101.297-.27.582-.457.844a6.428 6.428 0 0 1-.633.75l.047.055c.258-.215.489-.454.703-.711a3.6 3.6 0 0 0 .543-.86c.067-.16.102-.347.13-.5a3.307 3.307 0 0 1 .527-1.32c.18-.262.383-.516.597-.762l.082-.09c.028-.03.055-.062.082-.097l.082-.11c.028-.035.059-.07.079-.109.043-.078.097-.152.132-.238l.051-.125a.685.685 0 0 0 .047-.125c.047-.153.078-.309.094-.465.054-.121.09-.242.113-.371.172-1.121-.719-3.903-.91-4.477.183.297.351.602.512.918a13.618 13.618 0 0 1 .793 1.985l.07-.016a8.354 8.354 0 0 0-.227-1.066 9.015 9.015 0 0 0-.695-1.754ZM22.203 31.68s-.656.093-1.281.254c-.082.43-.215.859-.422 1.199-.547.887-1.598 1.762-1.64 1.797l-.255.21c2.938-.96 3.598-3.46 3.598-3.46Zm-3.101 1.953c.261-.274.543-.598.738-.914.082-.133.148-.293.203-.465.27-.848.242-2.027.242-2.027-.262.277-.61.418-.96.418-.329 0-.66-.125-.915-.375l-.047-.043-.043.043c-.254.25-.586.375-.914.375-.351 0-.699-.141-.96-.418 0 0-.028 1.18.241 2.027.055.172.122.332.204.465.195.316.476.64.738.914.387.402.734.691.734.691s.352-.289.739-.691Zm-3.098-6.531c.27.214.965.449 1.531.613a2.998 2.998 0 0 0 1.66 0c.567-.164 1.262-.399 1.528-.613.488-.395.37-1.47.37-1.47s-.835.626-1.34.665c-.503.039-1.39-.352-1.39-.352s-.883.39-1.386.352c-.504-.04-1.34-.664-1.34-.664s-.117 1.074.367 1.469Zm2.121 8.039-.254-.211c-.043-.035-1.094-.91-1.64-1.797-.208-.34-.34-.77-.422-1.2-.63-.16-1.282-.253-1.282-.253s.66 2.5 3.598 3.46Zm-1.25-23.938c0 .832.668 1.504 1.488 1.504a1.49 1.49 0 0 0 1.262-.703 1.1 1.1 0 0 1-.77.316c-.609 0-1.105-.5-1.105-1.117 0-.613.496-1.113 1.105-1.113.297 0 .57.12.77.316a1.49 1.49 0 0 0-1.262-.703c-.82 0-1.488.672-1.488 1.5Zm15.883 9.942c0 .117-.004.234-.012.351-.008.121-.023.234-.039.352a5.595 5.595 0 0 1-.098.527l-.043.172c-.023.078-.043.156-.066.23a1.099 1.099 0 0 1-.04.121c.017-.043.024-.082.04-.12-.215-1.262-1.094-2.782-1.094-2.782.7 2.5.336 3.477.336 3.477l-1.27-1.328s.598 1.668.532 2.109c-.063.437-.297.789-.297.789-.078-.629-1.242-1.309-1.242-1.309s.492 1.465.57 2.196c.047.437-.101 1.273-.23 1.875v.008l-.27.382a26.49 26.49 0 0 1-.637.844 20.83 20.83 0 0 1-3.855 3.762l-.387.293c-.129.097-.258.191-.386.281-.067.047-.133.09-.2.133a3.401 3.401 0 0 1-.633.312c-.015 0-.027 0-.039-.004l.012-.007.2-.153.19-.156c.25-.215.49-.45.708-.695.219-.25.418-.516.597-.793a6.17 6.17 0 0 0 .465-.867l-.062-.036a9.48 9.48 0 0 1-.578.774 8.543 8.543 0 0 1-1.024 1.055c.563-.637 1.164-1.485 1.34-2.344 0 0-2.016 2.363-2.715 2.886-.043.028-.082.06-.125.086-.058.04-.113.079-.172.118-.246.171-.488.343-.73.515-.992.707-1.98 1.418-3.09 1.942a14.307 14.307 0 0 1-1.562-.875 1.545 1.545 0 0 1-.133-.086 6.178 6.178 0 0 1-.266-.172 3.439 3.439 0 0 1-.152-.102c-.082-.054-.16-.105-.238-.16l-.157-.11-.23-.16c-.051-.038-.102-.074-.153-.109l-.242-.172c-.043-.03-.086-.062-.133-.097-.14-.098-.277-.2-.414-.297-.027-.024-.058-.043-.086-.063-.082-.062-.168-.12-.253-.183-.098-.07-.2-.14-.297-.211.07.05.144.101.214.152-.68-.496-2.734-2.902-2.734-2.902.207 1.008 1.008 2.008 1.633 2.66l-.05-.04a8.353 8.353 0 0 1-1.36-1.331 9.48 9.48 0 0 1-.578-.774l-.063.036c.13.3.29.59.465.867.18.277.379.543.598.793.218.246.453.48.707.695l.191.156.145.11a5.043 5.043 0 0 1-.383-.196l-.192-.105a10.75 10.75 0 0 1-1.09-.746l-.351-.282c-.113-.093-.23-.19-.344-.289-.172-.148-.34-.3-.508-.449a27.865 27.865 0 0 1-.988-.945c-.875-.89-1.66-1.84-2.37-2.848-.13-.605-.298-1.515-.247-1.976.074-.73.566-2.196.566-2.196s-1.164.68-1.242 1.309c0 0-.234-.352-.297-.79-.062-.44.532-2.108.532-2.108l-1.27 1.328s-.36-.977.336-3.477c0 0-.906 1.574-1.102 2.848l-.003.027-.016-.035a4.948 4.948 0 0 1-.203-.617c-.02-.07-.035-.14-.051-.211a3.163 3.163 0 0 1-.05-.336 2.41 2.41 0 0 1-.016-.504c.003-.11.015-.223.035-.336a2.26 2.26 0 0 1 .074-.344c.031-.113.07-.226.113-.343.031-.07.055-.141.082-.211.18-.5.309-1.008.446-1.438a.408.408 0 0 0-.036-.121l-.023-.04a.14.14 0 0 0-.063-.046.236.236 0 0 0-.074-.023c-.023-.004-.05-.004-.078-.008h-.035a.415.415 0 0 1-.074-.016c-.043-.012-.082-.043-.102-.105.133-.602.305-1.18.512-1.739a12.86 12.86 0 0 1 1.195-2.378c.16-.25.328-.497.5-.739a15.636 15.636 0 0 1 .844-1.05c.098-.114.2-.227.3-.34.044-.043.079-.086.118-.13.25-.292.437-.59.574-.91.02-.054.043-.105.059-.16a.76.76 0 0 0 .031-.086 3.85 3.85 0 0 0 .176-1.093 12.553 12.553 0 0 1 1.09-4.785 13.192 13.192 0 0 1 1.535-2.555 1.12 1.12 0 0 1 .101-.117 4.412 4.412 0 0 1 .281-.277c.06-.06.118-.114.18-.169.078-.074.153-.144.223-.203a1.15 1.15 0 0 1 .078-.07c.125-.113.211-.188.211-.188s.11.153.273.387l.004.028c.043.246.09.488.149.73.054.242.12.48.191.719.074.238.153.472.246.703l.07-.02-.105-.73c-.035-.242-.066-.485-.101-.727 0-.02-.004-.039-.004-.054.09.132.187.277.28.418.067.101.138.207.2.308.016.16.035.32.059.48a4.963 4.963 0 0 0 .316 1.137l.07-.02c-.015-.194-.035-.386-.046-.577-.012-.14-.016-.282-.024-.426a8.9 8.9 0 0 1 .219.383c.055.101.113.199.172.297l.011.062.055.25c.04.168.086.332.14.496.052.164.11.324.18.485.067.156.141.308.227.457l.066-.024c-.027-.168-.058-.332-.09-.5l-.085-.492a.306.306 0 0 1-.008-.055c.05.059.105.117.16.176.531.547 1.176.95 1.953 1.23a.708.708 0 0 0 .39.117c.028.009.06.016.087.024.039.008.074.016.113.027.027.004.059.012.09.016.035.008.07.016.105.02a.782.782 0 0 0 .094.015c.035.004.07.012.11.016l.093.012.106.011c.03 0 .062.004.093.004.036.004.07.008.106.008.031 0 .062 0 .094.004h.156c.074 0 .148-.004.223-.008.019 0 .042 0 .062-.004.086-.004.172-.011.258-.023.012 0 .027-.004.039-.004.074-.012.148-.02.223-.035l.062-.012c.086-.016.168-.031.254-.05.012-.005.023-.009.035-.012.074-.02.149-.04.219-.063.02-.004.043-.012.062-.016.082-.027.164-.054.243-.086l.03-.011c.071-.028.145-.059.216-.09l.058-.024c.078-.035.156-.074.23-.113.009-.004.016-.012.024-.015.07-.036.14-.075.207-.118a.25.25 0 0 0 .055-.03c.074-.048.148-.095.219-.145.007 0 .011-.008.02-.012.066-.047.128-.094.194-.145.016-.011.032-.027.051-.039.067-.054.133-.113.2-.172.003-.003.007-.007.011-.007.063-.059.121-.118.18-.176l.047-.047L22 4.96l-.082.45c-.027.167-.059.331-.086.5l.066.023c.086-.149.16-.301.227-.457.066-.16.129-.32.18-.485.054-.164.101-.328.14-.496l.043-.191.094-.153c.11-.18.211-.363.316-.55-.007.109-.011.218-.02.328-.01.191-.03.382-.046.578l.07.02a5.877 5.877 0 0 0 .316-1.137 6.38 6.38 0 0 0 .055-.47c.102-.175.204-.35.313-.523.047-.078.11-.164.176-.253-.004.03-.004.062-.008.093-.035.242-.067.485-.102.727l-.105.73.07.02c.094-.23.172-.465.246-.703.07-.239.137-.477.192-.719a13.5 13.5 0 0 0 .136-.668c.047-.059.094-.113.137-.16l.238-.266.008.008.067.05c.015.013.03.028.05.044.059.047.133.105.211.176.11.09.23.195.348.304.148.137.285.278.375.395.316.422.605.851.863 1.293.32.543.598 1.105.832 1.68l.106.265c.207.547.379 1.106.512 1.676.195.86.308 1.75.332 2.672a3.26 3.26 0 0 0 .082.684c.02.081.039.167.066.25.027.077.059.16.094.238a3.2 3.2 0 0 0 .117.23 3.673 3.673 0 0 0 .32.441 27.994 27.994 0 0 1 .55.613c.15.169.29.345.43.52a13.585 13.585 0 0 1 1.23 1.816 13.634 13.634 0 0 1 1.05 2.305c.053.153.103.305.139.45.02.09.035.175.043.261a.892.892 0 0 1 0 .145.839.839 0 0 1-.34.648c.035.13.047.23.066.313.004.02.012.039.016.058.012.024.02.047.031.07.047.094.094.184.137.278.043.09.082.184.117.273.023.063.047.122.066.184a4.684 4.684 0 0 1 .274 1.606Zm-.528 2.386.047-.11c-.015.036-.03.075-.047.11"/></g></svg>