<svg xmlns="http://www.w3.org/2000/svg" width="50" height="50" version="1.0" viewBox="0 0 37.5 37.5"><defs><clipPath id="a"><path d="M0 .047h37v36.96H0Zm0 0"/></clipPath></defs><g clip-path="url(#a)"><path d="M36.992 18.547a18.8 18.8 0 0 1-.355 3.613c-.117.594-.266 1.18-.442 1.758a18.528 18.528 0 0 1-.61 1.71c-.233.56-.491 1.11-.776 1.642a18.701 18.701 0 0 1-2.012 3.016c-.387.468-.793.917-1.219 1.347-.43.426-.879.836-1.344 1.219a18.814 18.814 0 0 1-3.015 2.015c-.535.285-1.082.543-1.64.778a18.869 18.869 0 0 1-3.47 1.05 18.539 18.539 0 0 1-7.214 0 18.945 18.945 0 0 1-3.469-1.05 19.655 19.655 0 0 1-1.64-.778 18.749 18.749 0 0 1-4.355-3.234c-.431-.43-.837-.88-1.22-1.348a18.465 18.465 0 0 1-3.402-6.367 19.271 19.271 0 0 1-.442-1.758 18.8 18.8 0 0 1-.355-3.613 18.769 18.769 0 0 1 .355-3.61c.121-.593.266-1.18.442-1.757.175-.582.378-1.153.613-1.711A18.466 18.466 0 0 1 5.43 5.465c.425-.43.875-.836 1.343-1.219A18.749 18.749 0 0 1 9.785 2.23a19.655 19.655 0 0 1 1.64-.777 18.945 18.945 0 0 1 3.47-1.05 18.617 18.617 0 0 1 5.421-.266 18.538 18.538 0 0 1 5.262 1.316c.559.234 1.106.492 1.64.777a18.814 18.814 0 0 1 3.016 2.016c.465.383.914.79 1.344 1.219.426.43.832.879 1.219 1.348a18.701 18.701 0 0 1 2.789 4.656c.23.558.434 1.129.61 1.71a18.069 18.069 0 0 1 .706 3.555c.063.606.09 1.207.09 1.813Zm0 0"/></g><path fill="#fff" d="m20.781 16.809 9.043-10.43h-2.129l-7.867 9.055-6.14-8.825H6.699l9.262 13.274L6.55 30.71h2.183l8.188-9.45 6.598 9.458h6.937Zm-2.863 3.308-.961-1.379L9.52 8.082h3.402l5.91 8.496.953 1.379 7.852 11.29h-3.352Zm0 0"/></svg>