<svg xmlns="http://www.w3.org/2000/svg" width="400" height="400" version="1.0" viewBox="0 0 300 300"><path d="M199.871 57.102c2.574 1.402 5.395-.77 3.992-.493a5.947 5.947 0 0 1-3.375-.523 27 27 0 0 0 .864-5.938c-.493-4.855-2.391 6.368-1.48 6.954Zm7.399 2.187c-1.54 1.543-3.454 2.668-1.864 2.5 2.13-.215 3.563-2.328 2.79-3.437-.618.398-.216.214-.926.937Zm-1.786-10.574c-.464.555 0 1.805.106 2.36a.64.64 0 0 0 .25.374.645.645 0 0 0 .437.106.632.632 0 0 0 .395-.223.627.627 0 0 0 .137-.426c-.168-1.39-.508-3.148-1.325-2.191Zm-8.605 2.836c-.508-3.543-1.54-2.02-1.45-1.434.126 2.375 1.622 2.637 1.45 1.434Zm7.68-5.285c8.449.816-.278-2.825-.743-.125Zm-53.278 63.422c-1.758.617-1.406 2.48.77 1.664a52.358 52.358 0 0 1 13.875-3.47c0 12.52-.633 17.376.09 17.716.789-.309 1.433-17.098 1.39-18.5-.14-2.59-13.367 1.601-16.125 2.59Zm-14.926 17.328c-2.265 4.855-6.273 11.484-1.355 13.164 2.758.925 14.445 0 12.21-6.274-1.972-5.613-8.233-12.363-10.855-6.89Zm77.575 32.543c-2.078-.602-20.332-4.04-21.227-3.16-1.941 1.956 8.832.847 20.89 4.347a.633.633 0 0 0 .47-.055.634.634 0 0 0 .292-.37.633.633 0 0 0-.054-.47.595.595 0 0 0-.371-.292Zm1.71-8.895a101.135 101.135 0 0 0-16.077-2.5.612.612 0 0 0-.415.238.623.623 0 0 0 .11.871.631.631 0 0 0 .46.125c5.25.418 10.462 1.239 15.587 2.454a.633.633 0 0 0 .468-.055.63.63 0 0 0 .293-.371.633.633 0 0 0-.054-.469.595.595 0 0 0-.371-.293ZM95.536 62.328c-1.957.215-2.558-.34-2.73.094-.414 2.851 7.047-.219 2.73-.094Zm-6.476-11.61c0-3.84-1.23-2.695-1.23 0a.614.614 0 1 0 1.23 0Zm10.93-1.448a.664.664 0 0 0 .085.226c.043.07.098.129.164.176a.58.58 0 0 0 .219.098c.078.02.16.023.242.007a.61.61 0 0 0 .227-.082.777.777 0 0 0 .176-.164.635.635 0 0 0 .105-.46c-.57-3.716-1.664-2.606-1.219.199Zm0 0"/><path d="M272.02 196.031c11.515-8.816 11.128-25.035 10.793-25.558 4.421-4.625 4.546-18.036 3.265-20.797-1.726-3.746 5.985-36.766-6.598-45.973 1.11-.492 3.223-1.754 3.375-3.406.278-3.25-2.789-3.777-5.132-5.164-9.79-5.75-10.407-18.5-29.582-23.215-.711-1.313-.864-1.543-1.434-2.5 13.875.957 12.086-6.645 9.695-8.523a19.788 19.788 0 0 0-4.793-1.989c5.84-2.453 5.672-9.804-1.851-9.129-.895.078 2.004-2.297-.356-5.332a5.24 5.24 0 0 0-4.992-2.36c0-5.163-2.484-7.26-5.426-7.26 4.332-6.352-1.449-13.427-9.558-9.497 1.926-4.469-3.207-12.515-14.969-3.191-.742-3.239-10.977-6.614-12.09-1.88-.57 2.419-4.625-4.347-12.023 1.204-2.02 1.539-3.082 4.082-.707 4.887-7.356.539-10.176 7.382-4.473 8.863 1.234.324-2.344 1.156-1.773 5.75.433 3.516 3.547 5.535 6.09 3.605.847-.629.601-.77.523-.105a1.96 1.96 0 0 0 .48 1.441c.172.196.383.356.621.465.235.113.489.18.75.192a22.46 22.46 0 0 0 1.063 3.96c-5.578 0-8.895 4.81-7.414 7.153 1.71 2.683 4.719.894.957 2.836-7.293 3.777-5.457 10.035-.988 9.992 4.472-.047 1.543-1.7 2.234 2.773.434 2.946 5.211 5.829 9.25 2.13 1.14 1.37 1.371 2.25 2.762 2.956-11.578 7.711-7.54 11.457-22.555 26.594-1.742 1.774-2.25 1.11-3.082 1.926-.836.82.305 5.723 4.621 5.367-4.73 13.875 0 9.606-6.844 10.328-.152 0 1.805-20.242 1.543-23.031-.156-1.371-.433-1.34-15.91 2.187.508-10.328.403-31.68-.492-31.894-.156 0-11.3 0-11.3-.293-.247-.988.476-5.227.277-6.027-.184-.524-.801-.508-1.297-.832-5.98-3.98 1.543-1.805 2.113-2.391.832-.926 0-10.25 1.543-10.25 1.539.816.309 8.617.894 9.355 1.895 1.664.602-7.136 2.649-6.89 1.129.215-.152 6.566.281 7.617 1.403 2.004.906-3.086 2.574-4.734 1.942-.942-.093 13.875-.308 14.183.785.617 4.238-17.976-.293-15.047-1.328.864 0-.37-.973-2.422-.539-1.062-2.082-1.23-2.945.278-.817-5.395-3.516-4.082-3.93-.293-.402 7.156-.23 6.074-.355 7.355-4.086-1.543-7.137 2.082-1.14 4.16.94.325 0 3.75.292 5.708 0 .324.168.214-.633.136-3.297-.34-13.164 27.89-16.203 31.946 4.211 6.164 2.809 7.074 2.422 6.054-4.18-8.633-21.582-26.715-40.93-33.25-1.543-.496-1.172 0-1.543-2.004-1.125-1.652 15.325 6.813 13.875-18.007 6.953.23 5.938-10.653.125-10.961 3.836-4.704 2.637-8.57-1.234-12.688-1.711-12.332-14.969-12.61-26.762-8.11-2.793 1.067-3.285 2.731-4.719 5.196-1.386.215-2.02-.785-4.703.758-8.152 4.699-6.164 17.988.586 23.355-1.215 3.528-.152 7.446 4.442 7.121 0 14.77 1.34 11.348-5.688 12.563-50.105 8.68-64.101 69.422-42.379 89.586 1.2 1.125-4.07 8.664 5.332 14.012a52.797 52.797 0 0 0 4.809 19.796c2.144 4.625 2.223 3.621 2.008 4.301C24.727 228.254 7.277 280.266 7 281.5c-1.004 4.457 3.375 5.75 5.395 2.328.894-1.543 25.574-68.293 28.75-76.988a51.574 51.574 0 0 0 4.488 3.191c-.664 11.856-4.457 63.207-3.778 66.168a3.28 3.28 0 0 0 2.997 2.703 3.277 3.277 0 0 0 3.355-2.242c.23-.77 5.164-34.703 8.156-61.25 17.727 7.23 37.817 8.11 41.438 8.156 3.082 61.528 2.62 57.825 9.125 55.946 1.14-.34 1.172 0 1.36-7.293 3.081 2.652 16.648 13.304 20.765 14.105 1.23.235 2.37-2.234.754-5.086-9.403-16.543-10.438-8.91-1.79-19.84.973 2.36 4.735 11.946 6.169 12.18 3.62.399 2.234 8.277 4.453 8.356 3.949.152 24.406-1.266 26.008-3.532.68-.941-.786-2.96-2.668-3.808-20.41-7.446-12.102 6.43-13.657-37.278 0-1.109 8.801-11.3 12.996-24.25 2.329-7.199 0-10.312 1.157-13.875 2.543-8.398-1.957-6.644 7.304-7.12 1.977 3.824 3.442 1.542 4.52 6.167a31.136 31.136 0 0 0 6.66 13.426c.602-7.059 2.156-14 4.625-20.64 1.54-.141-.203-1.637-3.715 21.581.137.153-.449 42.301 1.387 43.165 1.441.464 2.941.722 4.453.773-.367.293-.121 10.45-.293 10.45 0 .386-12.484 4.44-13.875 10.714-.184 1.375-.215 1.945 1.219 1.945 4.765-.265 20.781-4.257 21.828-4.257 0 1.71-.262 1.851 1.36 1.835 1.37 0 3.081 0 3.53-.632.415-1.032-.542-17.575-.292-19.5 0-.157-.266 0 3.496 0 .156 21.996.324 19.918 1.867 20.363 6.582 1.125 5.379 2.574 7.707-35.996 5.953 5.394 3.3 5.457 10.793.648 1.016 1.278 6.164 7.367 6.164 7.414-2.465 4.809-6.75 14.059-2.988 18.082 1.062.91 2.312-.754 12.902-14.738 4.164-5.516 1.988-.277 4.473-2.402 4.484-3.84 3.082-1.543-9.25-15.88 7.23-5.226 6.441-3.745.722-9.144-31.172-29.488-19.918-9.078 19.563-22.136.957 9.93 8.203 71.484 9.668 72.55 1 .723 4.316.309 5.347-.156 1.774-.8-.43-22.875-3.668-62.867 13.028 35.582 26.04 69.621 26.04 69.773 1.726 3.657 6.027 2.93 5.796-.691-.046.059-23.37-71.61-27.796-85.887Zm-27.286 53.621c-.726-.757-.894-1.328-1.543-1.113-1.218.617-12.765 16.961-14.43 18.008-3.421-5.059 3.653-16.527 3.302-17.235-.22-.292 4.343-1.542 9.496-7.445 5.886 6.813 5.796 5.625 3.16 7.785Zm-3.808-8.605a31.128 31.128 0 0 1-9.25 7.848c-4.625-5.118-5.258-5.872-6.168-6.985 12.687-8.031 8.71-8.722 15.402-.863Zm41.437-69.633c-.261 11.856-4.718 19.422-10.605 23.785-5.535-17.836-4.055-12.426-3.27-18.265 15.418-4.149 13.89-7.23 13.86-5.52Zm2.36-23.805c-3.223-3.59-8.188-4.625-12.797-5.687 3.84-1.957 8.355-4.395 9.496-7.445 1.543-5.059-.817-17.22-1.77-20.18-3.964-12.41-6.554-8.465-1.543-10.05 10.145 6.843 7.66 27.855 6.598 43.362Zm-60.293.246c-8.973 1.036-4.118 3.176-6.168 4.38-1.45.831-1.942 2.574.402 3.085 1.727.383 1.543 0 .738.508-1.726 1.031-2.172 3.531 4.29 2.883-.743 1.418-4.458 8.555-5.473 9.82-.371.461-25.64-1.11-42.32-3.086.14-.152 16.359-20.578 20.288-24.078.372-.168 27.75 3.082 27.903 3.082a4.912 4.912 0 0 0 .324 3.406Zm-4.735 9.7c-1.156-1.543 6.614-1.188 4.86-2.868-.157-.093-14.989-.816.613-2.542a.604.604 0 0 0 .469-.64.617.617 0 0 0-.188-.384.58.58 0 0 0-.387-.164c-2.777.074-4.503.586-5.058 0-.91-1.773 4.316-1.758 5.195-2.082 1.543-.418-1.246-3.082.23-4.625.774-.695 3.008 3.73 3.333 4.023 4.484 2.977 22.23-24.343 33.066-25.359 2.684-.262-4.625-.586-7.613 2.297-6.168-17.453-6.012-16.836-5.969-17.512.203-2.683 3.223-3.824 5.828-3.394 2.606.433 3.16 2.129 5.969 2.144a10.718 10.718 0 0 0 7.707-3.223c1.984.829 4.098 1.301 6.242 1.403 3.485 7.46 4.703 8.187 6.028 16.68.695 4.425 2.113 11.918-1 14.8-6.555 6.075-50.457 24.48-59.34 21.446Zm8.22-12.688c3.081.399 2.62 0 2.019 1.34-.817 1.711-.246 1.172-2.036-1.34Zm-32.977-81.012c-8.063-2.5.37-11.964 0-8.957 0 .153-.446.293-.57.368-1.54.879-3.485 7.71 3.362 7.988 3.7.168-.402 1.355-2.792.601Zm.37-9.25c-2.312-6.167-2.406-5.195-2.913-8.02 3.082-.35 6.414-.105 4.41-1.26-1.094-.634-2.176.109-1.68-.31 4.625-4.394 2.973-8.804 3.898-6.413a6.766 6.766 0 0 0 2.051 2.695 6.763 6.763 0 0 0 3.094 1.371c1.129.191 2.289.09 3.371-.29a6.824 6.824 0 0 0 2.816-1.878c1.293 3.438 2.743 5.223 6.829 5.625 2.73.262 2.296-.078 3.332-1.11 3.96-3.96 7.707 3.856 2.894 6.169-1.754.613.758 8.539 5.461 6.52 3.512-1.544 2.559-8.833-1.36-9.126-1.448-.11-.706-.48-.476-.512 5.086-.722 7.246 8.063 2.742 10.563-4.129 2.297-9.078-2.5-7.23-7.293-3.313.445-3.297 4.777-1.54 7.633.216.336-6.921.613-6.257 5.824.445 2.254 3.082 2.762 5.348 2.715-4.825 11.254 1.324 12.828 6.66 7.476a16.43 16.43 0 0 0 1.879 4.024c2.515 3.191-24.465 11.16-23.68-1.266a30.617 30.617 0 0 0 4.32-2.941c.2-1.54.164-3.098-.109-4.625-.695-4.024-7.398 1.664-13.922-15.602Zm19.102 52.985c-3.086-2.375-7.71-20.164-8.601-24.434 11.761 6.938 22.367-2.176 21.765-.863-1.804 3.793-11.347 22.598-13.226 25.266Zm1.188 10.5c-5.63.629-7.078-6.938-2.762-8.79 8.418-3.112 10.883 7.848 2.762 8.79ZM202.09 79.133s1.39-.711 2.328-1.235c-.152 3.5 1.496 4.133-2.328 1.204Zm-26.883 30.644c-2.098-3.175.645-1.277 7.508-8.968 5.347-5.985 10.945-18.825 17.742-21.586.387.34 2.453 1.96 4.426 3.332 1.156 7.476 5.086 21.582 7.984 25.218.14.172-6.86 2.422-2.082 9.747 8.387 6.718 15.262-7.711 5.86-9.637-2.204-.434-.989 2.558 9.59-20.996 3.081-6.938 1.464-4.625 4.054-6.567 2.234 1.215 8.445 1.633 8.445-5.027 5.243 4.332 11.825 2.684 10.098-1.941 15.727 4.27 17.621 13.625 24.82 20.226 4.625 4.285 8.356 3.82 7.989 6.567 0 1.34-4.473 4.793-11.41 2.851-2.376-.664-2.637-1.156-3.083-.601a9.53 9.53 0 0 1-3.746 2.492c-1.43.52-2.96.691-4.472.5-1.309-.34-2.051-1.125-3.899-1.79-2.511-.726-6.168 0-7.293 2.622-3.636-14.645-2.636-16.59-3.468-17.422-3.239 3.3 7.539 32.715 9.003 37.183-2.62 1.543-9.402 8.282-11.546 10.422-.54.54-11.747-2.02-48.977-2.203 3.207-6.398 8.555-10.469 8.832-11.238.094-.508-6.273-6.906-5.102-13.969 1.774-10.789 6.399-16.742 4.438-14.969-3.7 5.766-6.582 12.227-5.148 19.04a5.092 5.092 0 0 1-2.227.906 5.154 5.154 0 0 1-2.398-.211c-3.083-1.156-3.82-5.844-12.024-2.469-.726.2-1.5.164-2.207-.11a3.516 3.516 0 0 1-1.707-1.402Zm4.453 2.375c2.805-.476 4.965-1.539 6.828-.382 1.543.953 4.473 5.363 9.407 2.59 1.355 1.988.878 4.992 4.3 8.445-14.414 14.246-5.656 18.316-30.125 17.96.371-3.777 1.22-12.812 1.637-17.667 7.555-.895 2.668 4.148 7.953-10.946Zm-7.555-12.195c0 7.063-3.218 41.363-4.007 48.379-7.29 2.434-55.172 15.894-71.778 18.5.34-9.977 3.27-39.39 5.95-49.008 8.265-4.07 61.835-16.7 69.835-17.871ZM62.652 151.309c4.625-3.082 27.84-8.153 34.95-9.79 0 .372-.262 2.254-.309 2.622-37.2 7.601-29.754 9.28-34.594 7.168Zm41.625-69.235c-8.789 20.43-9.25 14.403-1.375 16.852.817.261-11.316 25.898-11.359 26.746-1.867 36.848-1.14-7.89 2.496-44.707.508-5.07-1.527-6.043 10.25 1.11Zm-9.992 53.371a.614.614 0 0 1-.617.617.599.599 0 0 1-.434-.18.612.612 0 0 1-.183-.437c-.016-3.48 1.234-5.3 1.234 0Zm-5.719-61.078c7.047 2.422 5.38.324 4.286 11.61 0-.325-1.434-1.172-4.73-4.532 1.476-1.343.831-5.12.444-7.078Zm.184 15.664c1.05-.261 1.203-3.082 1.297-5.027 3.484 3.238 2.742.832 1.973 9.914-2.067-5.41-2.051-5.086-2.329-5.211-.386.77-2.433 1.727-3.5.879-.105 1.094.48 13.719.57 17.281-25.202-44.23-8.648-11.176-3.792-20.117 4.488 2.805 2.898 3.004 5.812 2.281Zm13.492-45.941c4.625-.094 5.332 8.695.2 8.894-5.133.203-5.258-8.8-.2-8.894Zm-4.426-5.996a88.218 88.218 0 0 1 1.543 5.965c-2.453 2.05-.925 3.699-2.746 3.976-.34-.863-.34-1.355-.8-.863 0 1.281.414.926-1.313 1.25-2.914.523-.738.215-2.512-1.82a5.498 5.498 0 0 0-8.016-.637 5.51 5.51 0 0 0-1.574 2.52c-1.34 0-5.488-.157-6.164-.262-.925-2.73-2.59-12.457-2.605-12.582 11.547 7.156 21.242 4.949 24.187 2.453Zm-5.55 13.875c-.957 2.867-7.075 3.898-8.618-.696-2.449-7.183 11.563-8.277 8.586.696Zm-24.989 5.718c-2.004-1.03-2.515-7.246 1-7.707 2.282-.277 3.5 2.25 4.41 2.665 2.344 1.05 3.793-.415 3.793-3.004h5.735c-.324 8.015 12.332 7.707 10.992.136 3.856-.168 2.113-2.632 3.992 5.707-1.234.602-3.328.88-3.422 1.215.43.68 4.625.293 4.625-1.34-.476-2.789-.832-4.468-1.078-5.394a6.53 6.53 0 0 0 1.328 2.336 6.532 6.532 0 0 0 2.157 1.61c.09 1.187.105 2.081.136 3.651.477 18.84-13.875 11.688-14.058 13.876 0 .773 1.832 7.71.539 8.925-3.824-.922-16.156-8.77-16.543-9.789-.016-17.71-.047-11.066-3.606-12.886Zm17.606 23.126a58.73 58.73 0 0 1-4.024 8.078C70.605 82.03 69.434 78.008 65.918 71.84c8.281-1.418-.012.137 18.965 8.988ZM64.84 72.3c28.797 49.332 25.855 40.715 25.3 48.715-3.792-2.34-24.222-15.2-26.734-17.235.602-1.789 6.645-7.304 6.985-8.324.34-1.016-18.329-19.578-18.27-19.594a82.498 82.498 0 0 1 12.64-3.547Zm-22.246 69.375c2.515.601 1.93 1.015 2.468.137 6.676-10.79 9.711-31.016 10.004-31.262.895 1.094-1.386 19.363-9.035 30.832-1.449 2.172-1.465 0 2.746 4.949 12.04-2.945 32.868-5.121 49.133-6.832 0 .402-.125 1.05-.172 1.543-10.558 2.113-43.304 7.398-36.52 14 2.126 1.8 33.454 13.871 34.981 12.332 15.89-2.035 68.754-16.36 72.64-17.977.415-.277.368.372 1.141-7.539 9.125.309 12.333 1.543 18.051-2.636a23.134 23.134 0 0 0 4.442-4.207c15.183.183 33.191.785 48.328 2.496-15.2 15.554-6.473 7.183-10.48 6.644-6.739-.926-34.395-3.469-34.227-3.207-.43-.601-20.41 22.403-21.582 24.528-1.172 2.128 43.441 5.09 44.398 4.085.957-1 5.352-9.433 6.168-10.93 7.832-1.015 18.5-2.495 45.399-15.894 23.28 5.828 15.925 16.664 4.625 20.907-3.946 1.539-41.825 12.484-92.868 16.292-93.328 6.954-149.367-12.332-146.343-12.332.754 0 1.093-.988 2.402-3.421 6.598 5.812 23.34 10.93 19.195 5.566a8.99 8.99 0 0 0 2.59 0c1.633-.371 1.742-1.93.43-3.086-.66-.57-.754-.383-.168-.43 2.558-.187 2.71-2.175.722-3.3-2.68-1.543-7.398-1.371-8.753-3.84-.989-1.785 2.527-3.59 1.308-5.547-.847-1.36-2.203-.805-3.531.09-2.68 1.867-1.711 2.02-3.637.25 3.516-2.453 4.625-1.25 4.055-2.992a12.854 12.854 0 0 0-3.23-5.083 12.868 12.868 0 0 0-5.188-3.058c-12.809-2.621-17.344 6.168-17.742 6.168-.864-2.328 6.937-9.899 18.176-7.277Zm9.437 18.746c1.832 2.297 9.387 2.726 9.25 4.394-.648 1.758-9.176-2.53-8.789-.261.246.675.738.32 3.762 1.37 5.934 2.083 5.613 4.24-3.328 1.22-1.653-.56-1.883 0-1.621.597.261.602 5.797 1.79 5.488 3.086-.324 1-13.273-2.777-18.191-7.137a28.817 28.817 0 0 1 7.476-9.453c1.25 1.219 1.774 1.774 2.082 1.668.309-.11 4.75-3.996 4.918-1.543.031 1.664-3.531 3.035-1.125 6.028Zm-24.297 14.953c13.582 7.508 14.059-1.219 6.614 22.523a50.883 50.883 0 0 1-6.692-22.554ZM11.223 283.398c-.555 1.079-3.082 1.895-2.434-1.543 2.82-14.585 22.242-66.289 31.23-101.53 3.395 1.062 5.676 1.695 9.083 2.573-2.543 7.075-37.247 99.528-37.88 100.5Zm36.351-10.097c-.695 4.625-4.254 4.887-4.625-.094-.43-6.613 1.758-23.926 3.239-62.789a70.98 70.98 0 0 0 9.464 4.793c-.601 4.703-6.043 44.566-8.078 58.09Zm59.168 4.992c-5.305 2.035-4.222 4.008-8.094-54.727.727 0 5.133.079 9.051-.261-.449 28.195-.355 51.105-.957 54.988Zm-65.289-72.254c6.77-18.5-.476-7.539 18.64 1.727 16.958 8.214 32.25 9.25 51.134 8.988.894 2.527 1.543 4.422 1.683 4.625-18.101 3.328-54.25-1.543-71.457-15.34Zm66.906 62.973c.91-53.325-2.28-45.184 4.965-46.434 2.883 7.973 4.301 11.75 5.305 14.445-9.961 26.965-9.621 25.622-8.633 26.207 1.402.926 1.078-.367-1.637 5.782Zm19.086-8.785a95.555 95.555 0 0 1-6.164 7.308 76.45 76.45 0 0 1-10.375-5.137c-.14-.09 6.598-20.148 8.016-24.664 7.66 20.641 8.695 22.278 8.523 22.493Zm19.149 9.402c-.774.23-9.067 2.223-12.164 2.73-38.387-79.101-3.438-50.336-50.055-57.902-10.793-1.773-25.578-6.293-33.996-14.262-6.473-6.168-5.27-3.855-.676-17.113 2.465.496 36.258 9.7 90.77 9.7 7.879 20.21 7.246 70.218 6.12 76.847Zm1.539-34.656c-.754-11.328-1.434-28.473-6.457-42.207 17.652.09 15.554-.618 16.277.293 9.39 11.761-1.293 29.859-9.805 41.914Zm13.183-36.489c-2.175-7.414-5.921-5.629.985-5.996a40.454 40.454 0 0 1-.969 5.996Zm12.164-4.132c-3.855-2.79-1.804-2.266-.156-2.36.125 2.469.34 2.485.172 2.36Zm26.762 81.707c-3.191 0-2.574.738-2.652-1.063-.11-2.238-17.528 3.59-23.125 3.59.523-4.625 9.25-8.754 13.504-10.621 0 0 .972 0 4.258.355 10.636 1.125 8.03-3.593 8.03 7.739ZM187.91 256.71c7.242.617 12.625.324 12.61.476-.262 1.93 0 9.946-.31 10.008-3.972.75-8.05.715-12.007-.11-.234-10.944-.11-9.726-.293-10.374ZM26.332 173.125c-2.469-1.543-4.488-2.914-3.316-10.637 20.382 17.266 140.289 33.5 248.925 3.25 12.336-3.437 14.153-9.758 14.137-9.25-.398 14.047-4.5 16.203-16.863 19.52-103.074 27.578-218.297 13.18-242.883-2.883Zm179.922 103.102c-.402-2.575-.524-16.063-.555-19.082 3.238-.094 2.266 2.59 3.977-19.426.11.094 1.543-25.684 2.484-32.684.121-.969.524-1.203.492 0 0 .774 0 1.79-.078 3.086-1.277 35.809-3.082 29.29.461 32.371-2.68 37.649-1.45 37.77-6.781 35.735Zm11.469-68.832c-.368 0 .261.476-4.84-4.176 3.316-.45 32.375-.617 47.129-12.106 1.246 3.5.953 2.684 3.191 8.836-13.152 5.535-31.621 8.094-45.48 7.446Zm49.226 67.523c-.234-.277-8.344-58.441-9.851-71.688 8.23-2.617 5.52-4.87 9.773 6.786 4.024 61.757 6.692 68.214.078 64.902Zm28.473 7.832c-.387-.68-36.258-95.582-38.695-102.828a499.835 499.835 0 0 0 9.359-2.344c8.601 35.457 29.89 91.375 31.832 104.309.48 3.144-1.356 2.972-2.496.863Zm0 0"/></svg>