<svg xmlns="http://www.w3.org/2000/svg" width="40" height="40" version="1.0" viewBox="0 0 30 30"><defs><clipPath id="a"><path d="M1.172 0h27.582v29H1.172Zm0 0"/></clipPath></defs><g clip-path="url(#a)"><path fill="#fff" d="M2.902 1.355 18.844.175c1.957-.16 2.46-.05 3.691.84l5.098 3.606c.836.613 1.12.77 1.12 1.45v19.71c0 1.235-.456 1.965-2.019 2.078L8.22 28.98c-1.153.055-1.73-.109-2.344-.894l-3.754-4.89c-.668-.895-.945-1.571-.945-2.356V3.32c0-1.004.445-1.851 1.726-1.965Zm0 0"/><path fill-rule="evenodd" d="M18.844.176 2.902 1.356c-1.28.12-1.726.96-1.726 1.964v17.52c0 .77.277 1.46.945 2.355l3.754 4.89c.613.77 1.176.95 2.344.895l18.515-1.12c1.563-.114 2.02-.844 2.02-2.079V6.09c0-.633-.262-.82-1.004-1.367l-5.215-3.688c-1.23-.894-1.734-1-3.691-.84ZM8.64 5.758c-1.512.094-1.852.117-2.711-.582L3.746 3.44c-.223-.23-.113-.515.457-.57L19.52 1.75c.925-.121 1.75.121 2.46.73l2.625 1.926c.118.051.383.383.055.383l-15.824.953-.195.024ZM6.879 25.609V8.887c0-.73.226-1.07.89-1.125l18.184-1.07c.61-.055.895.34.895 1.07v16.613c0 .73-.121 1.355-1.121 1.406L8.34 26.79c-1.016.063-1.461-.273-1.461-1.18ZM24.047 9.785c.11.5 0 1-.5 1.067l-.336.062a.61.61 0 0 0-.36.219.586.586 0 0 0-.144.394v11.168c0 1.723-2.535 1.68-3.746.149l-4.34-6.836a.613.613 0 0 0-.7-.274.592.592 0 0 0-.327.227.619.619 0 0 0-.125.375v6.191a.66.66 0 0 0 .129.38c.086.109.195.183.328.222.746.215 1.039.441 1.11.637.155.382-.24.445-.49.445H10.32c-.32 0-.492.031-.468-.402.023-.438.546-.57 1.02-.676a.595.595 0 0 0 .347-.215.586.586 0 0 0 .133-.39v-9.981a.574.574 0 0 0-.16-.418.589.589 0 0 0-.407-.2h-.152a.586.586 0 0 1-.528-.394.58.58 0 0 1 .118-.644.958.958 0 0 1 .683-.305l3.774-.262c.242-.02.43.074.562.281l4.367 6.707c.07.118.172.204.305.254.133.051.266.059.398.016a.606.606 0 0 0 .446-.61v-5.105a.58.58 0 0 0-.153-.414.608.608 0 0 0-.39-.203.59.59 0 0 1-.387-.195.62.62 0 0 1 .36-1.031h.019l3.863-.215Zm0 0"/></g></svg>