<svg xmlns="http://www.w3.org/2000/svg" width="40" height="40" version="1.0" viewBox="0 0 30 30"><defs><clipPath id="a"><path d="M1.172 0h27.582v29H1.172Zm0 0"/></clipPath></defs><g clip-path="url(#a)"><path d="m2.906 1.355 15.98-1.18c1.966-.16 2.47-.05 3.7.84l5.11 3.606c.84.613 1.124.77 1.124 1.45v19.71c0 1.235-.457 1.965-2.02 2.078L8.239 28.98c-1.156.055-1.738-.109-2.351-.894l-3.766-4.89c-.664-.895-.945-1.571-.945-2.356V3.32c0-1.004.445-1.851 1.73-1.965Zm0 0"/><path fill="#fff" fill-rule="evenodd" d="m18.887.176-15.98 1.18c-1.286.12-1.731.96-1.731 1.964v17.52c0 .77.281 1.46.945 2.355l3.766 4.89c.613.77 1.18.95 2.351.895l18.563-1.12c1.562-.114 2.02-.844 2.02-2.079V6.09c0-.633-.262-.82-1.005-1.367l-5.23-3.688c-1.23-.894-1.734-1-3.7-.84ZM8.66 5.758c-1.515.094-1.855.117-2.719-.582L3.75 3.44c-.219-.23-.11-.515.457-.57L19.562 1.75c.934-.121 1.754.121 2.47.73l2.632 1.926c.117.051.383.383.05.383l-15.859.953-.195.024ZM6.895 25.609V8.887c0-.73.226-1.07.89-1.125l18.23-1.07c.61-.055.895.34.895 1.07v16.613c0 .73-.12 1.355-1.125 1.406L8.355 26.79c-1.015.063-1.464-.273-1.464-1.18Zm17.21-15.824c.106.5 0 1-.503 1.067l-.336.062a.62.62 0 0 0-.364.219.603.603 0 0 0-.14.394v11.168c0 1.723-2.543 1.68-3.754.149l-4.352-6.836a.606.606 0 0 0-.308-.258.595.595 0 0 0-.395-.016.592.592 0 0 0-.328.227.594.594 0 0 0-.125.375v6.191c0 .141.043.266.129.38.086.109.195.183.328.222.75.215 1.04.441 1.113.637.157.382-.238.445-.492.445h-4.234c-.32 0-.492.031-.473-.402.024-.438.547-.57 1.024-.676a.595.595 0 0 0 .347-.215.61.61 0 0 0 .137-.39v-9.981c0-.16-.055-.3-.164-.418a.589.589 0 0 0-.406-.2h-.153a.586.586 0 0 1-.527-.394.58.58 0 0 1 .117-.644.96.96 0 0 1 .688-.305l3.777-.262a.574.574 0 0 1 .566.281l4.375 6.707a.618.618 0 0 0 .309.254c.129.051.266.059.398.016a.613.613 0 0 0 .45-.61v-5.105a.602.602 0 0 0-.157-.414.608.608 0 0 0-.39-.203.58.58 0 0 1-.387-.195.608.608 0 0 1-.164-.407.6.6 0 0 1 .144-.41.586.586 0 0 1 .38-.215h.019l3.875-.214Zm0 0"/></g></svg>