<svg xmlns="http://www.w3.org/2000/svg" width="400" height="400" version="1.0" viewBox="0 0 300 300"><defs><clipPath id="a"><path d="M11.063 124H83v70H11.062Zm0 0"/></clipPath><clipPath id="b"><path d="M27 52h262.313v236H27Zm0 0"/></clipPath></defs><path fill="#fff" d="M105.895 230.563a55.489 55.489 0 0 1 7.761-2.125l.32 1.171a.58.58 0 0 0 .239.336.58.58 0 0 0 .398.102l10.438-1.215c2.87-6.539 8.144-16.445 8.219-16.598-.075-2.472 0-4.55 0-6.918-5.97 2.215-17.016 6.418-22.79 9.106a.734.734 0 0 0-.316.8s.106.383.242.926c-2.824 0-11.289-.41-13.324 1.52a2.361 2.361 0 0 0-.441 1.516c-.121 2.093.93 18.359 2.597 23.136.867 2.504 2.692 2.23 3.938-.164a41.435 41.435 0 0 0 2.75-11.273c0-.2-.047-.184-.031-.32Zm-1.747-13.579c1.852-.152 2.43-.12 6.41-.242.715 2.7 2.188 8.254 2.946 11.09a54.45 54.45 0 0 0-7.914 1.836 82.854 82.854 0 0 1-1.442-12.684Zm0 0"/><path fill="#fff" d="M245.727 84.2c.378-.532-.11-1.216-.52-1.747a23.16 23.16 0 0 1 3.844-3.168 24.726 24.726 0 0 0 6.367-4.555c.773-.804 2.234-2.457 1.687-3.425-.546-.973-1.52-1.035-2.843-.473a7.33 7.33 0 0 0 1.383-2.047c.425-1.183-.575-2.14-2.75-1.262.792-1.257.972-2.578-.364-3.214-1.078-.516-2.66.714-3.57 1.515a51.878 51.878 0 0 0-5.027 5.04c-.957-2.005-2.477-4.31-4.375-3.583-1.903.73-.426 3.992.546 5.766l-3.449 2.383a3.2 3.2 0 0 0-1.703-.38c-3.918.669-21.922 14.352-23.746 14.352-1.398 0-21.36-9.558-38.617-12.32a.62.62 0 0 0-.18-.266.605.605 0 0 0-.293-.129 48.781 48.781 0 0 0-9.113-.68.63.63 0 0 0-.266.075.668.668 0 0 0-.207.184h-1.277c-.3-1.23-1.426-4.067-1.82-5.16 1.03-.895 2.46-1.352 3.203-2.793 1.367-2.668 1.308-7.313.93-10.286 1.714-1.304 1.761-3.398 1.367-5.539-.153-.863-.625-2.82-1.356-3.304-.41-.274-1.273 0-2.02.273-.742-1.73-.742-.941-.44-1.64a2.85 2.85 0 0 0 .245-1.016c.805.242 2.477-1.367 1.899-3.492a13.987 13.987 0 0 0-1.11-2.184c.211-.516.668-1.137-.761-3.035a4.561 4.561 0 0 0-2.293-1.332h-.7a3.849 3.849 0 0 0-2.097-1.52 5.062 5.062 0 0 0-3.797.532c-.305.226-.547.53-.852.742a4.402 4.402 0 0 0-2.277-.637c-.805 0-1.594.223-2.277.637-.403.16-.77.398-1.078.699-.31.3-.551.664-.715 1.062a5.642 5.642 0 0 0-2.32-.289 5.636 5.636 0 0 0-2.239.668 11.404 11.404 0 0 0-5.469 6.66c-.027.43-.027.86 0 1.29h-.168c-2.277-.332-5.18 5.07-2.855 9.27.273.503.621.972.957 1.519.973 1.515.59 1.972 2.766 3.824.636.543.742.5 1.136.832.395.336.246.168.473 1.016a3.876 3.876 0 0 0 1.793 2.414 6.952 6.952 0 0 0 1.809 3.976c.32.356.695.664 1.109.91.11.063.234.098.363.106.457 2.82 1.016 6.492 1.262 8.054l-1.352.73a43.321 43.321 0 0 0-5.152 2.474.643.643 0 0 0-.258.378c-1.61.848-3.129 1.653-3.996 2.168-12.062 7.149-46.32 54.258-46.672 56.41a.627.627 0 0 0 0 .38 9.894 9.894 0 0 0 1.778 2.109c-.211.387-.465.746-.758 1.078-3.04 1.988-7.598 4.945-10.043 7.586-.172.152-.301.348-.375.566-.07.215-.086.45-.043.672a1.329 1.329 0 0 0 .86.992c.452.153.53.106 3.491-1.515a8.2 8.2 0 0 0-1.957 2.547c-.199.836.559 1.32 1.52 1.168a5.26 5.26 0 0 0 1.515-.668 2.628 2.628 0 0 0 0 2.84c1.52 1.91 5.5-4.114 7.598-5.602.852 1.078 2.004 3.598 3.844 2.93 1.594-.594-.152-4.098 0-5.114a17.237 17.237 0 0 1 1.976-1.636 10.557 10.557 0 0 0 3.934 1.804c2.508 0 28.668-26.37 30.66-28.48-.715 6.707-4.316 35.488-3.558 41.086.351 2.535 6.445 2.898 9.011 3.035-.777 18.207-1.293 45.789-1.43 46.078-4.023 8.664-5.117 11.031-6.472 13.656-2.461 4.703-12.82 22.059-13.992 26.004-.164.621-.18.863.472 2.016a63.496 63.496 0 0 0-5.437 6.539c-.836 1.52 2.75 15.66 5.285 20.664.578 1.125 1.52 2.855 2.781 2.809 3.797-.137 3.782-13.762 3.676-17.57a.47.47 0 0 0-.121-.317 29.892 29.892 0 0 1 2.246-2.945c.484.332.992.625 1.52.882.52.227 1.093-.168 1.52-.52 5.058-3.972 32.347-37.929 38.195-53.948 2.66-7.313 6.199-17.418 7.199-24.579.613-4.527.672-9.113.168-13.656a.246.246 0 0 1 .242-.242.245.245 0 0 1 .246.242c.758 4.567.906 9.215.441 13.82-1.125 9.938-8.98 30.649-13.172 38.266 3.614-.668 10.97-2.125 14.524-3.187 11.848-3.594 22.789-14.32 23.746-26.368.309-5.675.309-11.363 0-17.039a100.606 100.606 0 0 0-3.039-23.226c3.219-1.746 6.168-3.793 7.125-5.676 2.05-4.02-3.375-27.156-4.559-33.652 6.489.715 17.532 2.004 22.684-2.016 5.894-4.734 18.625-18.055 25.934-28.297Zm-125.72 181.624c-2.734-1.656-6.562-5.586-7.14-8.664.621-.789 1.278-1.52 1.883-2.336a33.898 33.898 0 0 0 7.598 8.207 30.123 30.123 0 0 0-2.34 2.793ZM240.79 73.473a.368.368 0 0 0 .121-.484c-.531-.989-2.129-4.462-1.02-4.856.641-.242 1.2.152 1.673.683a10.23 10.23 0 0 1 1.656 3.032c.027.09.078.172.148.234a.53.53 0 0 0 .25.117c.09.02.188.012.274-.023a.482.482 0 0 0 .222-.16c1.52-1.684 5.075-5.524 7.082-6.555 1.52-.79 1.883.668-1.84 4.066a32.03 32.03 0 0 0-2.46 2.078.353.353 0 0 0 0 .41c0 .395.32.837.867.426a39.965 39.965 0 0 1 4.175-3.203 5.465 5.465 0 0 1 2.524-.968c-.457 1.394-4.695 5.187-5.059 5.613a.568.568 0 0 0-.195.402.582.582 0 0 0 .14.426.609.609 0 0 0 .403.203.602.602 0 0 0 .426-.137c1.687-1.093 4.633-3.64 5.652-3.261 1.02.379-2.004 3.199-2.766 3.867-4.359 3.777-3.234 1.351-8.277 6.48a34.992 34.992 0 0 0-7.492-6.191Zm-66.012 72.566a155.479 155.479 0 0 0-.972-6.703l.652-.867c3.04-3.899 3.95-10.106 3.66-14.973a254.953 254.953 0 0 1 3.906 21.059Zm-22.593-51.95c-3.993-3.03-10.422-8.265-14.157-11.847l6.075-3.035a77.119 77.119 0 0 1 14.175 17.813 132.503 132.503 0 0 1 12.868 34.062L149.48 100.48l2.829-5.859a.505.505 0 0 0 .023-.285.489.489 0 0 0-.148-.246Zm10.273-17.202c.09.168 1.137 2.398 2.734 6.297 0 .164-.289 3.957-.425 5.293a23.449 23.449 0 0 1-5.442-3.036c.336-1.316 1.84-7.312 1.946-8.66Zm-5.394 16.293c.105-.274.21-.637.332-1.063l1.02.531c.577.38.347-.773.866 2.567 0 .558.153 1.183.18 1.867-.7-1.262-1.563-2.613-2.383-3.902Zm-.852-1.274a75.199 75.199 0 0 0-9.754-11.258l11.441 4.961c-.441 1.047-1.078 4.25-1.671 6.297Zm11.684 8.89c-1.52-4.14-2.688-8.769-3.266-9.984a6.139 6.139 0 0 0 0-1.136c.219.082.45.133.684.152.144 0 .289-.05.398-.144a.585.585 0 0 0 .207-.371c.121-.5.32-3.036.352-3.598a276.21 276.21 0 0 1 11.042 34.183c-8.582-18.238-7.261-12.957-9.402-19.101Zm12.562 28.966c-3.46-16.586-9.555-37.262-16.48-52.586 2.543 0 5.082.203 7.593.605 1.293 11.531.215 11.137 1.078 11.59.868.457 6.079 2.55 6.852 2.867-.074 1.172 1.02 34.578.973 37.524Zm-17.484-79.61a9.945 9.945 0 0 1 .804 5.524 2.708 2.708 0 0 1-.734 1.258c-.356.34-.8.578-1.285.683a2.677 2.677 0 0 1-2.645-.926 21.75 21.75 0 0 1-1.625-4.777c.41-.531 4.785-1.594 5.485-1.762Zm-20.907 15.172a18.695 18.695 0 0 0-1.699-.668 2.667 2.667 0 0 1-1.015-.719 2.78 2.78 0 0 1-.594-1.09 2.737 2.737 0 0 1 .453-2.379c.957-.804 1.824-.757 2.613.442.5.926.485 1 .715 1.094a.466.466 0 0 0 .207.039c.07 0 .14-.016.207-.047a.487.487 0 0 0 .27-.313c.222-.949.261-1.933.105-2.898-.183-1.047-.21-5.687-.183-5.84.445.235.94.344 1.445.317 2.75-.106 3.297-1.516 4.39-2.668 1.262.12 1.52.726 2.946 0a8.357 8.357 0 0 0 1.824-1.399c.438.18.86.395 1.262.64a4.734 4.734 0 0 0 5.515-1.046c.164.316.317.637.453.969a13.182 13.182 0 0 0-3.886 1.957c-.258.32.12 2.05.21 2.457-1.273.16-2.503.558-3.628 1.172-.23-.79-.73-2.262-1.52-2.672a1.226 1.226 0 0 0-.73 0c-1.367.21-6.274 1.683-6.867 2.488-.516.563.957 4.899 1.414 5.613 1.746 2.7 6.867 1.91 7.824-1.242a7.455 7.455 0 0 0 0-3.218c.437 0 1.762-.47 1.914-.516 1.047 2.351 1.351 2.488 2.566 5.023-.168.137-.441.364-.668.516-1.078.71-1.308.59-1.246.894a.254.254 0 0 0 .29.18 7.249 7.249 0 0 0 1.85-.515c.356-.13.65-.391.821-.727.426-.957-1.93-4.55-2.855-5.629.183 0 .61-.305.926-.469.425 1.7.714 3.032 2.355 3.7.477.18.98.261 1.488.242a3.799 3.799 0 0 0 1.461-.364c.242 2.672.196 7.012-1.078 9.38-.656 1.226-2.266 1.699-3.297 2.714-.304.29-.11.695 0 1.137 1.684 4.687 1.715 4.672 1.625 5.281a54.615 54.615 0 0 1-1.87 7.434c-.38-.168-4.65-2.43-13.005-5.676-.258-1.715-1.64-10.863-2.082-12.547.031-.59-.043-.726-.926-1.121Zm10.637-6.187c-.488 1.652-2.781 2.363-4.422 1.91-1.64-.457-1.746-1.29-2.523-3.262a8.491 8.491 0 0 1-.742-2.383c.5-.547 5.984-1.668 6.668-1.773a8.164 8.164 0 0 1 1.02 5.43Zm-59.45 91.09c-.577.562.2 2.398.321 3.992 0 .136 0 .726-.094.773-.835.274-1.609-.988-2.082-1.746-.468-.758-.941-1.789-1.683-1.516-1.52.711-5.043 5.387-6.426 5.872-.7-1.336 3.297-5.145 3.434-5.356a.594.594 0 0 0 .086-.324.61.61 0 0 0-.09-.32.635.635 0 0 0-.246-.23.636.636 0 0 0-.328-.067c-.274 0-.457.242-.883.62a17.48 17.48 0 0 1-4.39 3.126 54.38 54.38 0 0 1 4.694-4.746.672.672 0 0 0 .168-.305s-.32-.805-.941-.484c-.883.484-5.168 2.957-6.52 3.593-.183-.12-.074-.3 0-.484 2.145-2.625 6.852-5.813 9.739-7.828.34-.348.62-.75.836-1.184 2 1.856 4.132 3.567 6.382 5.114a17.19 17.19 0 0 0-1.976 1.5Zm35.352 13.793c-.332-.215-.578-.41-.62-.684-.837-6.191 3.812-41.27 3.738-42.649a.54.54 0 0 0-.051-.234.575.575 0 0 0-.133-.2.63.63 0 0 0-.203-.132.611.611 0 0 0-.238-.039c-.774 0 .593 0-18.762 18.508-1.277 1.2-11.031 10.515-12.656 11.137-2.235-.168-10.633-6.856-12-8.965 2.64-5.344 34.699-49.282 45.789-56 .851-.516 2.308-1.32 3.902-2.172.555.52 1.149.992 1.777 1.41 3.528 3.34 8.434 7.496 12.157 10.621l-2.903 5.75a.52.52 0 0 0 0 .504c23.563 33.754 23.215 33.375 23.368 33.375 1.507 7.8 2.449 15.703 2.808 23.64 0 2.137 0 1.958.094 1.805.09-.152 0 .106 0 .106-3.68 4.004-40.063 7.738-46.067 4.219Zm83.985-50.266c-6.883.957-14.66-.469-16.164-.531a29.9 29.9 0 0 0-4.89-11.243.243.243 0 0 0-.329-.058.234.234 0 0 0-.102.14.23.23 0 0 0 .02.176c.879 1.79 3.828 9.512 4.555 11.395-.227.726 6.867 30.023 4.863 33.969-1.793 3.566-12.23 8.058-15.996 9.347a227.65 227.65 0 0 0-3.649-25.156c.516-4.367-.152-30.344-.347-39.945a.591.591 0 0 0-.11-.313.586.586 0 0 0-.257-.207l-6.82-2.867a98.511 98.511 0 0 0-.684-10.785c17.03 2.941 36.87 12.668 38.527 12.683 2.402 0 20.238-13.656 23.93-14.203 1.64-.258 8.691 5.887 9.511 7.586-7.203 10.047-19.859 23.246-25.722 27.813a13.308 13.308 0 0 1-6.336 2.199Zm0 0"/><path fill="#fff" d="M151.137 56.102a.804.804 0 0 0-.114-.282.848.848 0 0 0-.21-.215.825.825 0 0 0-.278-.117.866.866 0 0 0-.3-.004.804.804 0 0 0-.282.114.753.753 0 0 0-.332.488.728.728 0 0 0-.004.305c.305 1.515.363 1.863 1.035 1.863a.766.766 0 0 0 .637-.34.758.758 0 0 0 .121-.352.752.752 0 0 0-.058-.37c-.047-.243-.184-.954-.215-1.09Zm4.648 10.043c.988.289 1.93-.184 1.899-.426-.028-.242 0-.121-1.336-.621-.895-.332-1.883-1.516-2.235-1.336-.347.183.184 1.152.305 1.336.324.492.809.859 1.367 1.047Zm27.79-14.415c-1.993 8.329-3.45 15.399-3.692 16.813a4.487 4.487 0 0 0-.094 1.879c.805 1.715 11.215 5.098 12.535 4.43 1.32-.665 4.754-8.387 8.75-16.356 2.45.078 4.899-.098 7.309-.531a30.899 30.899 0 0 0 7.351-2.32c5.137-2.368 10.758-12.5 11.516-17.598a26.69 26.69 0 0 0-3.355-15.945c-12.747-22.079-50.137-10.196-47.098 14.32a32.181 32.181 0 0 0 6.777 15.308Zm9.265 18.07c0 .243-.274.212-1.52 0a20.89 20.89 0 0 1-7.277-2.32c-1.063-.578-1.352-.699-1.246-.957.11-.257.336-.168 1.976.29.153 0 4.86 1.515 6.215 1.988 1.746.789 1.852.789 1.852 1Zm-.274-24.683a9.486 9.486 0 0 0 4.696-.972 12.027 12.027 0 0 0 4.312 1.167c-2.55 4.75-7.73 14.43-9.402 19.586l-6.442-1.773c1.52-3.73 4.875-12.473 6.805-18.008Zm-.53-1.262a5.235 5.235 0 0 1-4.422-4.55c-.427-3.035 1.519-6.434 4.452-5.63 1.836.5 2.067 1.958 1.746 3.794-.273 1.336-1.261 4.687-1.808 6.328Zm4.132-3.64a7.043 7.043 0 0 1 1.094-2.778 2.83 2.83 0 0 1 2.645-1.395c1.12.333 1.609 2.458.683 3.794-.89 1.18-2 2.18-3.27 2.945a2.499 2.499 0 0 1-.992-1.097 2.468 2.468 0 0 1-.191-1.47Zm-13.961-19.281c6.805-8.18 19.613-11.426 28.863-8.059a21.907 21.907 0 0 1 11.899 9.816 25.483 25.483 0 0 1 3.203 15.172c-.7 4.719-6.078 14.52-10.8 16.692a31.19 31.19 0 0 1-13.782 2.789c-.516 0-1.063 0-1.258.363-.898 1.824-2.539 5.344-4.148 8.648a23.217 23.217 0 0 0-3.45-1.332c1.762-5.039 7.325-14.93 9.965-19.726 2.293.195 4.594-.2 6.688-1.152a3.354 3.354 0 0 0 1.79-3.125 3.361 3.361 0 0 0-2.08-2.946c-2.355-1.152-4.468 1.61-5.699 3.93-.332.61-.714 1.32-1.14 2.125a13.2 13.2 0 0 1-3.598-.742 13.88 13.88 0 0 0 3.04-2.914 4.2 4.2 0 0 0 .695-2.45 4.22 4.22 0 0 0-.848-2.406 2.612 2.612 0 0 0-3.406-.469 6.48 6.48 0 0 0-3.036 6.34c.165.7.54 1.332 1.079 1.809a8.034 8.034 0 0 1-3.145.605c.606-1.789 1.594-5.023 1.852-6.343.164-.75.199-1.524.105-2.29a3.452 3.452 0 0 0-2.566-2.746c-3.692-1.046-6.41 3.036-5.88 6.844a6.397 6.397 0 0 0 5.195 5.582c-1.944 5.461-4.983 14.278-6.503 18.04l-3.34-.864c2.141-10.742 2.399-10.484 2.098-10.621a31.206 31.206 0 0 1-6.398-15.172 19.758 19.758 0 0 1 .66-8.191 19.662 19.662 0 0 1 3.945-7.207Zm21.086 23.289c1.062-1.93 3.191-6.145 5.258-5.114.41.164.773.442 1.039.797.27.356.433.778.48 1.219-.03 2.672-4.195 3.14-6.84 3.098Zm58.156 6.687a8.695 8.695 0 0 1 6.078-1.031 8.978 8.978 0 0 1 6.11 2.555 8.957 8.957 0 0 1 2.687 6.05 6.936 6.936 0 0 0-4.558-.851c-3.813.332-8.797 2.398-8.13 6.07.548 3.031 4.56 2.625 7.598 1.805 3.04-.82 5.454-2.309 6.075-5.235 3.695 2.684 4.558 7.387 4.71 11.985 0 .066.028.129.07.172.048.047.11.07.173.07a.23.23 0 0 0 .172-.07.233.233 0 0 0 .074-.172c.105-5.14-.82-10.18-5.031-13.11a9.721 9.721 0 0 0-2.79-7.14 9.775 9.775 0 0 0-3.25-2.188 9.79 9.79 0 0 0-3.851-.73 9.128 9.128 0 0 0-6.074 1.246c-.563.273-.305.684-.063.574Zm13.856 10.88c-1.715 2.245-6.578 3.413-8.828 3.034-.832-.136-1.516-.484-1.7-1.351-.547-3.032 4.696-4.688 7.825-4.793a5.794 5.794 0 0 1 3.613.925 4.726 4.726 0 0 1-.91 2.184Zm-20.813-28.614c1.625-2.004.531-5.492-4.012-5.508-1.761 0-2.613 1.789-2.492 3.504.274 4.082 4.88 3.96 6.504 2.004Zm-5.441-2.078c0-1.004.472-2.309 1.52-2.293 2.449 0 3.57 1.14 3.57 2.398-.059 2.867-5.286 4.356-5.09-.105Zm-.621 172.004c-13.356-5.325-19.555 20.453-30.461 42.601-.07.934-.04 1.867.09 2.793 0 2.32.257 17.691 1.613 19.438.363.695 1.898 0 2.613-.442a119.321 119.321 0 0 0 17.074-12.805.53.53 0 0 0 .102-.175.515.515 0 0 0 .02-.203c2.828-4.024 13.414-24.961 15.984-35.457 1.793-7.434.015-12.973-7.035-15.75Zm4.77 19.27a57.337 57.337 0 0 1-20.372-6.645c3.555-6.723 7.945-14.383 15.192-11.5 8.066 3.199 7.898 9.828 5.18 18.097Zm-25.282 39.444a7.83 7.83 0 0 0-1.516-1 9.128 9.128 0 0 0-6.64-.636c-.153-1.805-1.02-13.551-1.02-13.657 11.38 4.157 7.871 2.352 19.145 7.95-1.188 1.125-5.637 4.234-9.969 7.316Zm7.84-43.906a50.932 50.932 0 0 0 4.558 2.2 132.974 132.974 0 0 0-9.207 17.085c-2.55 5.325-2.46 5.293-5.058 11.106-1.52-.488-3.04-.942-4.559-1.399 1.64-3.261 13.309-27.109 14.266-29.023Zm-9.113 30.54c4.937-8.845 9.964-19.845 14.28-28.141 1.52.636 3.04 1.152 4.555 1.605-.804 1.52-3.16 5.555-3.78 6.723-.622 1.168-6.868 13.457-7.31 14.398a627.15 627.15 0 0 0-3.202 7.102c-1.551-.684-3.04-1.2-4.606-1.715Zm5.09 1.882c.925-1.684 4.738-8.754 5.21-9.664.711-1.41 8.672-17.66 9.114-18.602 1.398.395 2.87.73 3.812.91-2.777 7.587-10.785 22.2-13.672 29.403-2.629-1.227-3.219-1.531-4.527-2.078Zm.925-34.168 2.719 1.52a216.413 216.413 0 0 0-14.281 29.066l-2.278-.695c8.825-18.785 9.235-21.243 13.778-29.922Zm6.258 37.535-2.293-1.09c2.477-4.855 10.223-17.312 13.766-29.527a52.8 52.8 0 0 0 2.492.395 220.302 220.302 0 0 1-14.024 30.195Zm-47.598 9.848c.606-.5 1.04-1.18 1.239-1.938.199-.761.152-1.562-.13-2.296a4.695 4.695 0 0 0-9.113-.91 648.909 648.909 0 0 0-6.078-3.868c1.52-2.02 5.985-1.12 6.442.531a.25.25 0 0 0 .097.16c.051.04.118.055.184.044a.234.234 0 0 0 .16-.098.233.233 0 0 0 .043-.184c-.226-2.636-5.726-4.187-7.945-1.074-1.957-1.2-4.39-2.656-6.426-3.766 1.746-1.515 5.652-.664 6.078.915.02.05.059.097.11.125.046.027.105.039.164.027a.277.277 0 0 0 .144-.086.238.238 0 0 0 .05-.16c-.194-2.457-5.284-4.11-7.593-1.41a17.256 17.256 0 0 0-3.039-1.336 1.084 1.084 0 0 0-1.156.214c-3.844 4.778-16.801 17.188-22.79 18.63a.867.867 0 0 0-.547 1.398 18.934 18.934 0 0 0 4.47 3.351c-1.52 1.516-2.704 2.883-3.586 3.868-.457.488-.7 9.773-.305 11.82.059.2.187.375.367.484 1.914 1.305 26.57 11.957 29.09 10.532 1.688-.957 21.816-21.88 22.137-22.516.488-1 .32-7.676.289-10.348-.121-.804-1.625-1.668-2.356-2.11Zm-48.613 20.043v-3.383c6.305 3.035 20.734 9.223 26.207 10.953 1.395.457 1.516.395 2.246 0 4.18-2.672 18.93-19.27 21.633-21.8v3.199c-8.203 8.207-22.133 22.593-22.39 21.773-1.505-.094-26.391-10.137-27.696-10.742Zm48.234-25.156c.547.918.84 1.964.852 3.035a2.231 2.231 0 0 1-.898 1.746 682.645 682.645 0 0 0-6.547-4.281c1.566-3.079 5.043-3.125 6.53-.5Zm-48.617 9.71c6.473-1.91 18.766-13.746 22.895-18.874a13.29 13.29 0 0 1 2.86 1.167c-1.52 2.825.105 5.918.683 5.477.316-.242-.258-.332-.352-1.82a6.212 6.212 0 0 1 .715-3.125c2.098 1.094 4.559 2.52 6.64 3.719-1.277 2.835.258 5.644.79 5.234.53-.41-.243-.32-.336-1.805a6.445 6.445 0 0 1 .547-2.84 432.021 432.021 0 0 1 6.336 3.793 5.1 5.1 0 0 0-.356 2.39c.074.813.34 1.595.781 2.286.02.024.043.047.075.063a.247.247 0 0 0 .09.03c.035.005.066 0 .097-.007a.223.223 0 0 0 .086-.043.227.227 0 0 0 .066-.07.295.295 0 0 0 .032-.094.276.276 0 0 0-.008-.098.223.223 0 0 0-.043-.086 4.462 4.462 0 0 1-.395-1.921c.016-.66.176-1.31.473-1.903 3.54 2.156 6.395 3.961 7.277 4.551-.168.152-16.015 14.234-21.406 18.422-3.543-.926-22.121-10.137-27.547-14.445Zm.578 8.45c6.883 3.035 22.516 10.074 26.118 10.758.62.12.863.168 2.05-.774 5.059-4.05 21.512-21.242 21.664-21.058a.402.402 0 0 1 0 .136v3.035c-3.386 2.715-22.226 22.47-22.53 21.528-1.52 0-26.208-10.059-27.47-10.621-.027-.637.11-2.336.168-3.004Zm27.664 20.91c-1.515.863-24.656-8.527-27.754-10.442a23.365 23.365 0 0 1-.167-2.91c6.652 3.278 26.007 11.438 27.785 11.364 2.601-.137 20.968-20.786 22.273-22.227a9.946 9.946 0 0 1-.226 2.305c-.258.5-20.907 21.347-21.91 21.91ZM44.7 211.977c.106 1.625.184 3.035.184 4.355a.756.756 0 0 0 .758.758.74.74 0 0 0 .535-.223.747.747 0 0 0 .222-.535c0-1.41-.074-2.809-.18-4.46a.77.77 0 0 0-.812-.708.771.771 0 0 0-.523.262.751.751 0 0 0-.184.55Zm231.488-30.418a.718.718 0 0 0-.285.074.71.71 0 0 0-.234.18.676.676 0 0 0-.145.257.738.738 0 0 0-.035.293c.09 1.395.18 2.895.18 4.352 0 .203.082.394.223.539.144.14.336.223.539.223a.764.764 0 0 0 .757-.762c0-1.516-.09-3.031-.195-4.461a.81.81 0 0 0-.074-.285.749.749 0 0 0-.184-.23.747.747 0 0 0-.547-.18Zm-235.421 26.64c.199 0 .394-.078.535-.222a.747.747 0 0 0 .222-.536.74.74 0 0 0-.222-.535.747.747 0 0 0-.535-.222c-1.84 0-3.375.136-4.895.105a.765.765 0 0 0-.543.223.764.764 0 0 0-.23.535.74.74 0 0 0 .222.535c.14.145.336.223.535.223 1.567.03 3.282-.028 4.91-.106Zm230.71-31.133c-1.824 0-3.359.106-4.89.121a.764.764 0 0 0-.762.758c0 .203.082.395.223.54.144.14.336.222.539.222 1.64 0 3.34 0 4.98-.121a.784.784 0 0 0 .528-.258.763.763 0 0 0-.617-1.262ZM44.29 198.824c.09 1.395.184 2.899.184 4.356a.775.775 0 0 0 .758.758.757.757 0 0 0 .757-.758c0-1.52-.09-3.035-.18-4.461a.771.771 0 0 0-.261-.524.751.751 0 0 0-.55-.183.755.755 0 0 0-.707.813Zm232.488-25.262c0-1.519-.09-3.035-.195-4.46a.77.77 0 0 0-.812-.707.771.771 0 0 0-.524.261.751.751 0 0 0-.183.551c.09 1.398.183 2.898.183 4.356 0 .199.078.394.223.535a.765.765 0 0 0 1.078 0 .764.764 0 0 0 .23-.535ZM55.5 208.005a.756.756 0 0 0 .527-.246.756.756 0 0 0 .203-.543.779.779 0 0 0-.253-.52.777.777 0 0 0-.536-.21c-1.84.077-3.375.136-4.91.105a.764.764 0 0 0-.758.762.764.764 0 0 0 .758.758c1.625.03 3.328-.032 4.969-.106Zm230.715-31.133c-1.52.074-3.207.121-4.895.121a.756.756 0 0 0-.547.207.75.75 0 0 0-.168.242.765.765 0 0 0 .164.836c.141.145.333.227.536.23 1.734 0 3.132 0 4.968-.12a.732.732 0 0 0 .29-.07.745.745 0 0 0 .395-.426.756.756 0 0 0 .046-.293.81.81 0 0 0-.79-.727ZM20.59 163.047c.195.152 43.039-6.188 44.875-7.313a.731.731 0 0 0 .305-.652c0-1.957-2.567-20.328-3.797-24.91-.153-.563-.305-1.125-.653-1.32-2.324-1.399-43.285 6.308-45.73 7.886a.566.566 0 0 0-.258.367c-.516 1.836 3.934 25.032 5.258 25.942Zm-4.332-25.578c2.918-1.32 40.094-8.117 44.347-7.586 1.032 2.652 3.797 22.105 3.98 24.957-2.112.62-43.42 7.707-43.573 7.738-.149.031-.164.211-.485-.742-1.336-4.008-4.343-20.938-4.27-24.367Zm0 0"/><g clip-path="url(#a)"><path fill="#fff" d="M68.809 157.086a.893.893 0 0 0 .105-.5c0-2.414-3.46-29.191-4.691-31.332a1.08 1.08 0 0 0-.399-.375 1.077 1.077 0 0 0-.531-.125c-5.09-.621-48.023 7.754-50.848 9.71-.394.274-.336.954-.289 1.684.242 3.989 4.559 30.239 6.078 30.086.164 0 .106-.12-.289.684-2.37 4.867-6.867 20.465-6.777 23.605 0 1.32.305 3.036 1.61 2.946 9.374-1.153 55.331-8.438 68.55-11.153.516-.105.852-.578.836-1.351a10.582 10.582 0 0 0-1.156-3.688c-1.852-3.472-9.54-17.234-12.2-20.191Zm-50.485 8.68c-1.183-1.52-5.547-27.66-5.21-30.559 3.343-1.73 45.698-9.906 50.136-9.238 1.215 3.336 4.36 27.445 4.555 30.344-5.375 1.851-42.614 7.859-49.48 9.453Zm.668.453c1.278-.32 44.742-7.586 48.723-8.633 2.172 2.02 11.988 19.45 12.625 20.937-8.719 1.516-60.45 10.149-68.063 11.305.106-4.598 4.832-20.664 6.715-23.61Zm0 0"/></g><path fill="#fff" d="M24.707 181.953c1.32-.2 29.367-3.566 39.5-6.312a.238.238 0 0 0 .148-.114.232.232 0 0 0 .024-.183.247.247 0 0 0-.11-.149.25.25 0 0 0-.183-.023c-1.992.406-26.27 3.64-39.41 6.308a.256.256 0 0 0-.11.008.234.234 0 0 0-.097.051.286.286 0 0 0-.063.09.257.257 0 0 0-.015.11c0 .034.011.07.03.1a.189.189 0 0 0 .075.083c.027.02.063.035.102.039a.26.26 0 0 0 .109-.008ZM45.199 76.387a29.88 29.88 0 0 0-1.426 3.945.864.864 0 0 0 .164.606c1.536 2.304 17.262 20.011 21.364 22.5.562.347 1.23.59 1.64.09a27.562 27.562 0 0 1 11.286-8.329 37.293 37.293 0 0 1 11.183-2.11c3.04-.273 3.57-.577 4.738-2.562a25.165 25.165 0 0 1 5.41-6.949c2.801-2.45 5.915-4.52 9.254-6.16a.786.786 0 0 0 .333-.379.76.76 0 0 0 .03-.5 16.394 16.394 0 0 0-2.019-3.672c.547-.183 1.153-.351 1.153-.898 0-1.516-13.246-20.664-16.922-24.274-.383-.379-.93-.879-1.43-.851-7.598.426-14.996 7.586-19.277 13.84-4.91-.184-8.086-.625-13.676 1.726a31.24 31.24 0 0 0-10.453 7.254c-.453.469-3.555 3.746-3.598 4.004-.047.258.043.258 2.246 2.719Zm60.77-.426c-6.336 1.078-10.375 6.34-13.352 12.062-1.324 2.547-1.203 2.668-2.597 2.641a39.229 39.229 0 0 0-7.325.27 27.961 27.961 0 0 0-5.226 1.304c-3.86 1.367-8.281 5.739-10.633 8.985a.684.684 0 0 1-.188.164.645.645 0 0 1-.238.07.587.587 0 0 1-.457-.16c-4.937-5.082-13.672-14.004-18.062-19.129-.215-.23.148-.563.363-.32 2.84 3.035 10.18 10.3 18.047 18.207 2.66-3.383 6.761-7.48 10.82-8.907a28.372 28.372 0 0 1 6.852-1.52 44.02 44.02 0 0 1 6.578 0c.894-1.03 5.332-12.741 15.386-14.046a.25.25 0 0 1 .075.082.301.301 0 0 1 .027.102c0 .039-.008.074-.02.109a.282.282 0 0 1-.066.086ZM89.94 48.074c3.04 2.125 15.407 20.406 17.016 23.61a43.44 43.44 0 0 0-8.05 3.472 18.249 18.249 0 0 0-6.216 5.09 18.24 18.24 0 0 0-3.418 7.262C83.82 78.645 76.207 68.89 71.148 61.715c.305-.2 8.844-13.047 18.793-13.64ZM57.34 63.246c5.543-2.23 8.613-1.715 13.2-1.516 4.558 7.766 12.75 18.723 18.14 25.899a20.595 20.595 0 0 0-14.692 2.016c-2.687 1.52-5.968 5.16-7.988 7.421-2.918-2.34-19.75-20.242-22.457-23.273 4.164-4.707 8.008-8.242 13.797-10.606Zm-27.805 38.582a2.367 2.367 0 0 0-1.277-.426 2.396 2.396 0 0 0-1.305.336 2.407 2.407 0 0 0-1.258 1.325c-.11.292-.164.605-.156.917.008.313.078.622.207.907.129.285.309.543.54.758a2.38 2.38 0 0 0 1.703.652c.316-.008.624-.078.91-.203a2.292 2.292 0 0 0 1.19-.68c.321-.34.532-.773.599-1.234a2.32 2.32 0 0 0-.208-1.356 2.326 2.326 0 0 0-.945-.996Zm-1 3.035c-1.066.332-1.703 0-1.96-.515-.49-1.078.12-2.73 1.702-2.246 1.106.41 2.004 2.277.258 2.835Zm78.254-72.46c.441.894 2.492.562 3.39.273.47-.153.774-.32.821-.774.137-1.14.29-11-.23-11.957a.595.595 0 0 0-.563-.305c-1.621-.003-3.23.231-4.785.7-.621.379.82 11.062 1.367 12.062Zm-1.047-11.7c1.403-.2 2.824-.265 4.238-.195.09 1.12-.152 10.847-.168 11-.64.23-1.324.312-2.003.242-.106-.348-.29-1.29-.516-2.473a80.81 80.81 0 0 1-1.55-8.574Zm-77.68 68.32a1.04 1.04 0 0 0 .942 0 3.463 3.463 0 0 0 1.336-1.515.627.627 0 0 0-.09-.61c-.73-.863-8.691-10.074-9.66-9.496a27.492 27.492 0 0 0-3.39 2.578.419.419 0 0 0-.098.137.365.365 0 0 0-.04.168c-.03.79 8.813 7.86 11 8.738ZM20.77 77.797c1.109.805 4.847 5.418 8.312 9.496a2.784 2.784 0 0 1-.547.625 93.796 93.796 0 0 1-10.406-7.711 26.141 26.141 0 0 1 2.64-2.41Zm23.867-33.469c.336-5.887 3.77-8.617 7.355-9.316-1.02 3.73-.851 8.586 2.84 9.21 1.762.286 2.629-.624 3.906-1.687 5.453-4.55 1.047-9.101-5.105-8.781 2.293-6.281 7.594-11.395 14.629-11.563a.253.253 0 0 0 .172-.07.242.242 0 0 0 .07-.172.23.23 0 0 0-.07-.172.236.236 0 0 0-.172-.07c-7.598-.152-13.567 5.309-15.922 12.137-4.055.699-8.082 3.73-8.188 10.39a.206.206 0 0 0 0 .098c.008.031.02.063.04.09.015.027.042.047.066.066.027.02.058.032.09.035a.206.206 0 0 0 .097 0 .262.262 0 0 0 .09-.039.18.18 0 0 0 .067-.066.197.197 0 0 0 .035-.09Zm8.644-9.5c2.266-.152 5.637.547 6.563 2.594.535 1.172 0 2.613-1.883 4.187a7.468 7.468 0 0 1-1.73 1.293c-2.282.97-4.801-1.836-2.95-8.074Zm4.348 214.578a11.407 11.407 0 0 0-12.113 4.23 11.33 11.33 0 0 0-1.91 4.087 11.79 11.79 0 0 0 1.59 8.91 11.85 11.85 0 0 0 16.359 3.597 11.836 11.836 0 0 0 5.187-7.425c.29-1.48.281-3-.02-4.473a11.431 11.431 0 0 0-1.745-4.121 11.35 11.35 0 0 0-3.192-3.137 11.461 11.461 0 0 0-4.156-1.668Zm4.691 12.367a10.485 10.485 0 0 1-4.113 6.004 10.51 10.51 0 0 1-7.035 1.883 10.417 10.417 0 0 1-5.371-4.723 10.408 10.408 0 0 1-1.07-7.066 10.617 10.617 0 0 1 4.07-6.195 10.656 10.656 0 0 1 7.14-2.028 10.643 10.643 0 0 1 5.371 4.915 10.607 10.607 0 0 1 .95 7.21Zm0 0"/><g clip-path="url(#b)"><path fill="#fff" d="M77.863 253.73a8.145 8.145 0 0 0-4.117-.316 20.853 20.853 0 0 0-2.098-3.719c.989-.894 3.692-3.382 3.04-4.55a33.537 33.537 0 0 0-8.172-7.055 11.141 11.141 0 0 0-4.18-1.352c-.973.137-3.281 3.914-3.797 4.766-.336 0-1.52-.383-1.61-.426 0-1.094-.32-5.039-1.308-5.492a15.553 15.553 0 0 0-3.418-.836c-1.078-.168-10.785 1.61-11.5 2.914-.473.879.621 4.203.942 5.129-.82.45-1.606.957-2.356 1.516-1.52 1.078-1.11 1.03-1.383.91a3.472 3.472 0 0 0-1.047-.305 6.117 6.117 0 0 0-4.027-.758c-1.398.457-4.691 7.953-5.227 9.88a3.075 3.075 0 0 0-.136 1.515c.367 1.004 2.797 1.804 3.816 2.125a20.64 20.64 0 0 0 0 5.887c-1.34.363-4.117 1.183-3.965 2.546.149 1.368 3.703 10.38 5.18 11.094a6.663 6.663 0 0 0 5.348.5c.492-.246.968-.527 1.425-.836.61.457 1.247.867 1.903 1.262-.473 1.168-1.52 3.777-1.188 4.96.168.622.668.817 1.367 1.075 1.93.7 12.32 3.188 13.903 2.914.594-.09.91-.71 1.094-1.305a20.57 20.57 0 0 0 .593-4.109 23.503 23.503 0 0 0 2.325-.351 8.692 8.692 0 0 0 1.777 2.199c.773.547 1.426.273 2.308-.285.426.543 1.063 1.304 1.747 1.378 1.718.2 8.812-6.476 9.543-7.843.605-1.137-1.614-3.172-2.598-4.067a20.67 20.67 0 0 0 2.488-5.187 17.42 17.42 0 0 0 3.313.18c.504 0 1.078-.18 1.293-.653.925-2.105.652-10.101 0-12.137-.094-.59-.778-.984-1.278-1.168Zm.364 1.395c.52 1.973.683 9.422-.075 11.352-1.312.128-2.64.066-3.933-.184a.549.549 0 0 0-.399.082.557.557 0 0 0-.242.328 19.495 19.495 0 0 1-2.777 5.735.565.565 0 0 0-.114.406c.02.144.09.277.204.367a11.277 11.277 0 0 1 2.671 3.035c-.757 1.242-6.699 6.676-8.34 7.133-.242 0-.91-.914-1.077-1.156a23.995 23.995 0 0 1-1.52-2.625.595.595 0 0 0-.742-.286c-4.406 1.653-6.078.68-6.078 1.774 0 1.637-.266 3.262-.79 4.809a48.458 48.458 0 0 1-10.484-2.336 13.656 13.656 0 0 1 1.336-4.657c.457-1.02-1.367-.73-4.77-4.187a.595.595 0 0 0-.402-.16.595.595 0 0 0-.402.16c-1.52 1.242-3.496 2.457-3.89 2.258-.774-.38-4.344-8.465-4.555-10.102a9.384 9.384 0 0 1 3.597-1.52.593.593 0 0 0 .426-.652 19.069 19.069 0 0 1 0-6.492.53.53 0 0 0-.394-.605 14.215 14.215 0 0 1-3.282-1.32c-.336-.247-.304-.231-.273-.489a32.531 32.531 0 0 1 4.664-9.906c.82-.227 3.039 1.394 3.797 1.972a.423.423 0 0 0 .594 0c.699-.722 1.449-1.394 2.25-2.004 2.308-1.742 2.93-1.515 2.734-2.12a12.747 12.747 0 0 1-1.156-4.84c.234-.2.504-.352.789-.458a31.924 31.924 0 0 1 4.363-1.367c1.797-.5 3.648-.8 5.512-.894.32.137.61 1.52.683 1.941.563 3.035.184 3.656.625 3.703 4.328.426 5.211 1.625 5.516 1.094a26.47 26.47 0 0 1 2.93-4.144c.32-.317.304-.47 1.261.078a33.969 33.969 0 0 1 7.598 6.78c.227.395-1.75 2.49-3.191 3.72-.5.437.21.636 1.52 3.125 1.304 2.488 1.003 3.183 1.698 3.035a14.463 14.463 0 0 1 4.118-.383Zm210.859-126.777a39.995 39.995 0 0 0-9.938-2.621c-2.492-.395-5.421-.79-7.898-1.11 2.383-3.367 9.45-11.894 10.633-13.972.336-.563-.305-1.352-.774-1.82-2.644-2.825-7.75-3.888-11.668-4.493-2.25-.363-11.636-1.516-13.234-.758-1.914.91-16.074 22.153-16.496 25.383 0 .547.18.758.71.957 2.235.816 12.31 2.094 14.556 2.621-3.04 5.313-16.543 23.262-17.868 25.793-.316.637-.12 1.02.262 1.14 1.367.54 2.774.977 4.207 1.305.547.165 1.746-.578 3.492-1.64 7.84-4.703 41.477-26.883 44.059-29.75a.667.667 0 0 0 .164-.242.649.649 0 0 0 .05-.286.7.7 0 0 0-.257-.507Zm-32.649 18.207c-12.914 8.511-17.273 11-17.425 11.105 2.078-3.168 15.008-20.86 17.226-25.094a.61.61 0 0 0 .059-.261c0-.09-.02-.18-.063-.262a.603.603 0 0 0-.406-.324c-1.52-.547-12.578-1.73-15.191-2.656.332-2.82 14.129-24.153 15.8-25.004 1.668-.848 17.88 1.078 20.918 3.246-1.593 3.113-10.406 14.004-11.835 16.539-.286.515-.38 1.015.183 1.152s14.844 1.805 17.957 2.824c-3.797 3.168-22.969 15.883-27.223 18.676Zm-97.46-92.762c0 .137.09.305.32 1.184a.77.77 0 0 0 .941.516.755.755 0 0 0 .516-.938c-.152-.594-.29-1.094-.379-1.336a.762.762 0 0 0-.96-.348.77.77 0 0 0-.4.379.746.746 0 0 0-.038.543Zm0 0"/></g></svg>