<svg xmlns="http://www.w3.org/2000/svg" width="400" height="400" version="1.0" viewBox="0 0 300 300"><defs><clipPath id="a"><path d="M11.063 124H83v70H11.062Zm0 0"/></clipPath></defs><path d="M105.766 230.563a55.532 55.532 0 0 1 7.754-2.125l.316 1.171a.597.597 0 0 0 .64.438l10.422-1.215c2.868-6.539 8.133-16.445 8.207-16.598-.074-2.472 0-4.55 0-6.918-5.96 2.215-16.992 6.418-22.757 9.106a.734.734 0 0 0-.317.8s.106.383.242.926c-2.824 0-11.273-.41-13.308 1.52a2.358 2.358 0 0 0-.438 1.516c-.12 2.093.926 18.359 2.594 23.136.863 2.504 2.684 2.23 3.93-.164a41.572 41.572 0 0 0 2.746-11.273c0-.2-.047-.184-.031-.32Zm-1.746-13.579c1.851-.152 2.43-.12 6.406-.242.71 2.7 2.183 8.254 2.941 11.09a54.347 54.347 0 0 0-7.906 1.836 83.345 83.345 0 0 1-1.441-12.684Zm0 0"/><path d="M245.41 84.2c.38-.532-.105-1.216-.515-1.747a22.946 22.946 0 0 1 3.835-3.168 24.686 24.686 0 0 0 6.36-4.555c.773-.804 2.23-2.457 1.683-3.425-.546-.973-1.52-1.035-2.836-.473a7.488 7.488 0 0 0 1.38-2.047c.425-1.183-.579-2.14-2.747-1.262.79-1.257.973-2.578-.363-3.214-1.078-.516-2.656.714-3.566 1.515a51.838 51.838 0 0 0-5.024 5.04c-.953-2.005-2.472-4.31-4.367-3.583-1.898.73-.426 3.992.547 5.766l-3.445 2.383a3.178 3.178 0 0 0-1.7-.38c-3.914.669-21.894 14.352-23.714 14.352-1.395 0-21.333-9.558-38.567-12.32a.587.587 0 0 0-.469-.394 48.698 48.698 0 0 0-9.105-.68.597.597 0 0 0-.262.074.668.668 0 0 0-.207.184h-1.273c-.305-1.23-1.43-4.067-1.825-5.16 1.036-.895 2.461-1.352 3.204-2.793 1.367-2.668 1.304-7.313.925-10.286 1.715-1.304 1.758-3.398 1.364-5.539-.149-.863-.621-2.82-1.348-3.304-.41-.274-1.273 0-2.02.273-.742-1.73-.742-.941-.437-1.64.14-.32.223-.665.242-1.016.805.242 2.473-1.367 1.895-3.492-.301-.758-.672-1.489-1.106-2.184.211-.516.668-1.137-.762-3.035a4.55 4.55 0 0 0-2.289-1.332h-.699a3.84 3.84 0 0 0-2.094-1.52 5.052 5.052 0 0 0-3.792.532c-.301.226-.547.53-.848.742a4.412 4.412 0 0 0-2.278-.637c-.8 0-1.59.223-2.273.637-.402.16-.77.398-1.078.699-.305.3-.55.664-.715 1.062a5.615 5.615 0 0 0-2.316-.289 5.637 5.637 0 0 0-2.235.668 11.406 11.406 0 0 0-5.46 6.66c-.024.43-.024.86 0 1.29h-.169c-2.277-.332-5.171 5.07-2.851 9.27.273.503.62.972.957 1.519.969 1.515.59 1.972 2.758 3.824.64.543.746.5 1.14.832.395.336.243.168.47 1.016a3.876 3.876 0 0 0 1.793 2.414 6.972 6.972 0 0 0 1.804 3.976c.32.356.691.664 1.105.91a.865.865 0 0 0 .363.106c.458 2.82 1.02 6.492 1.262 8.054l-1.351.73a43.506 43.506 0 0 0-5.145 2.474.66.66 0 0 0-.258.378c-1.605.848-3.125 1.653-3.988 2.168-12.047 7.149-46.258 54.258-46.61 56.41a.627.627 0 0 0 0 .38 9.894 9.894 0 0 0 1.778 2.109 6.109 6.109 0 0 1-.762 1.078c-3.031 1.988-7.586 4.945-10.027 7.586-.172.152-.3.348-.371.566a1.31 1.31 0 0 0 .812 1.664c.453.153.532.106 3.489-1.515a8.26 8.26 0 0 0-1.957 2.547c-.196.836.562 1.32 1.515 1.168.54-.141 1.051-.368 1.52-.668a2.609 2.609 0 0 0-.422 1.418c0 .504.148.996.422 1.422 1.515 1.91 5.492-4.114 7.586-5.602.847 1.078 2.004 3.598 3.836 2.93 1.593-.594-.149-4.098 0-5.114a17.894 17.894 0 0 1 1.972-1.636 10.568 10.568 0 0 0 3.93 1.804c2.504 0 28.633-26.37 30.617-28.48-.71 6.707-4.308 35.488-3.55 41.086.35 2.535 6.433 2.898 9 3.035-.774 18.207-1.29 45.789-1.426 46.078-4.024 8.664-5.114 11.031-6.465 13.656-2.457 4.703-12.805 22.059-13.973 26.004-.168.621-.184.863.469 2.016a63.422 63.422 0 0 0-5.43 6.539c-.836 1.52 2.746 15.66 5.277 20.664.579 1.125 1.52 2.855 2.778 2.809 3.793-.137 3.777-13.762 3.672-17.57a.47.47 0 0 0-.121-.317 29.892 29.892 0 0 1 2.246-2.945c.48.332.988.625 1.515.882.516.227 1.094-.168 1.52-.52 5.05-3.972 32.3-37.929 38.14-53.948 2.657-7.313 6.192-17.418 7.192-24.579a56.05 56.05 0 0 0 .168-13.656c0-.062.023-.125.07-.172a.26.26 0 0 1 .172-.07c.066 0 .125.027.172.07.047.047.07.11.07.172a52 52 0 0 1 .442 13.82c-1.125 9.938-8.97 30.649-13.157 38.266 3.614-.668 10.957-2.125 14.504-3.187 11.836-3.594 22.762-14.32 23.715-26.368.309-5.675.309-11.363 0-17.039a100.39 100.39 0 0 0-3.035-23.226c3.219-1.746 6.16-3.793 7.117-5.676 2.047-4.02-3.367-27.156-4.55-33.652 6.476.715 17.507 2.004 22.652-2.016 5.886-4.734 18.601-18.055 25.898-28.297ZM119.86 265.823c-2.731-1.656-6.555-5.586-7.13-8.664.622-.789 1.274-1.52 1.883-2.336a33.773 33.773 0 0 0 7.586 8.207 30.122 30.122 0 0 0-2.34 2.793ZM240.476 73.473a.377.377 0 0 0 .16-.22.37.37 0 0 0-.04-.265c-.527-.988-2.12-4.46-1.015-4.855.637-.242 1.2.152 1.668.683a10.23 10.23 0 0 1 1.656 3.032c.028.09.078.172.149.234a.53.53 0 0 0 .25.117.47.47 0 0 0 .273-.023.503.503 0 0 0 .223-.16c1.515-1.684 5.066-5.524 7.07-6.555 1.516-.79 1.883.668-1.836 4.066a31.242 31.242 0 0 0-2.457 2.078.353.353 0 0 0 0 .41c0 .395.317.837.863.426a40.332 40.332 0 0 1 4.172-3.203 5.467 5.467 0 0 1 2.52-.968c-.453 1.394-4.688 5.187-5.051 5.613a.568.568 0 0 0-.195.402.582.582 0 0 0 .14.426.608.608 0 0 0 .399.203.611.611 0 0 0 .43-.137c1.683-1.093 4.624-3.64 5.644-3.261 1.016.379-2.004 3.199-2.762 3.867-4.355 3.777-3.234 1.351-8.27 6.48a34.928 34.928 0 0 0-7.48-6.191Zm-65.922 72.566a155.206 155.206 0 0 0-.97-6.703l.653-.867c3.035-3.899 3.946-10.106 3.657-14.973a256.517 256.517 0 0 1 3.898 21.059Zm-22.559-51.95c-3.992-3.03-10.41-8.265-14.14-11.847l6.066-3.035a77.14 77.14 0 0 1 14.156 17.813 132.606 132.606 0 0 1 12.852 34.062l-21.637-30.602 2.824-5.859a.505.505 0 0 0 .024-.285.51.51 0 0 0-.145-.246Zm10.254-17.202c.094.168 1.14 2.398 2.73 6.297 0 .164-.285 3.957-.421 5.293a23.398 23.398 0 0 1-5.434-3.036c.336-1.316 1.836-7.312 1.941-8.66Zm-5.383 16.293c.106-.274.211-.637.332-1.063l1.016.531c.578.38.351-.773.867 2.567 0 .558.148 1.183.18 1.867-.696-1.262-1.563-2.613-2.383-3.902Zm-.851-1.274a75.121 75.121 0 0 0-9.743-11.258L157.7 85.61c-.437 1.047-1.078 4.25-1.668 6.297Zm11.668 8.89c-1.52-4.14-2.688-8.769-3.262-9.984a6.139 6.139 0 0 0 0-1.136c.219.082.45.133.683.152.145 0 .286-.05.399-.144a.622.622 0 0 0 .207-.371c.121-.5.316-3.036.348-3.598a276.813 276.813 0 0 1 11.03 34.183c-8.573-18.238-7.253-12.957-9.39-19.101Zm12.546 28.966c-3.46-16.586-9.542-37.262-16.46-52.586 2.539 0 5.078.203 7.585.605 1.29 11.531.211 11.137 1.079 11.59.863.457 6.066 2.55 6.84 2.867-.075 1.172 1.015 34.578.972 37.524Zm-17.464-79.61a9.911 9.911 0 0 1 .804 5.524 2.644 2.644 0 0 1-.734 1.258c-.356.34-.797.578-1.281.683a2.677 2.677 0 0 1-2.64-.926 21.955 21.955 0 0 1-1.626-4.777c.41-.531 4.781-1.594 5.477-1.762ZM141.89 65.324a18.695 18.695 0 0 0-1.7-.668 2.684 2.684 0 0 1-1.011-.719 2.78 2.78 0 0 1-.594-1.09 2.737 2.737 0 0 1 .453-2.379c.953-.804 1.82-.757 2.61.442.5.926.484 1 .71 1.094a.477.477 0 0 0 .207.039.46.46 0 0 0 .207-.047.487.487 0 0 0 .27-.313 7.39 7.39 0 0 0 .105-2.898c-.18-1.047-.21-5.687-.18-5.84.442.235.942.344 1.442.317 2.746-.106 3.293-1.516 4.383-2.668 1.262.12 1.52.726 2.945 0a8.335 8.335 0 0 0 1.82-1.399c.434.18.856.395 1.258.64a4.722 4.722 0 0 0 5.508-1.046c.168.316.32.637.457.969a13.23 13.23 0 0 0-3.886 1.957c-.258.32.12 2.05.214 2.457-1.273.16-2.504.558-3.629 1.172-.226-.79-.726-2.262-1.515-2.672a1.213 1.213 0 0 0-.727 0c-1.367.21-6.27 1.683-6.86 2.488-.515.563.958 4.899 1.411 5.613 1.746 2.7 6.86 1.91 7.813-1.242a7.336 7.336 0 0 0 0-3.218c.441 0 1.761-.47 1.914-.516 1.047 2.351 1.351 2.488 2.562 5.023a8.394 8.394 0 0 1-.668.516c-1.074.71-1.305.59-1.242.894a.239.239 0 0 0 .11.145.244.244 0 0 0 .179.035 7.293 7.293 0 0 0 1.852-.515c.351-.13.644-.391.816-.727.426-.957-1.926-4.55-2.852-5.629.184 0 .606-.305.926-.469.426 1.7.715 3.032 2.352 3.7.472.18.98.261 1.484.242.504-.024 1-.145 1.461-.364.242 2.672.195 7.012-1.078 9.38-.652 1.226-2.262 1.699-3.293 2.714-.305.29-.105.695 0 1.137 1.684 4.687 1.715 4.672 1.621 5.281a54.588 54.588 0 0 1-1.863 7.434c-.38-.168-4.645-2.43-12.988-5.676-.258-1.715-1.637-10.863-2.079-12.547.032-.59-.046-.726-.925-1.121Zm10.62-6.187c-.484 1.652-2.777 2.363-4.413 1.91-1.641-.457-1.746-1.29-2.52-3.262a8.629 8.629 0 0 1-.746-2.383c.504-.547 5.98-1.668 6.664-1.773a8.185 8.185 0 0 1 1.016 5.43Zm-59.366 91.09c-.579.562.195 2.398.316 3.992 0 .136 0 .726-.09.773-.836.274-1.61-.988-2.078-1.746-.473-.758-.941-1.789-1.684-1.516-1.52.711-5.039 5.387-6.418 5.872-.699-1.336 3.293-5.145 3.426-5.356a.634.634 0 0 0 .09-.324.61.61 0 0 0-.09-.32.635.635 0 0 0-.246-.23.636.636 0 0 0-.328-.067c-.273 0-.457.242-.879.62a17.53 17.53 0 0 1-4.387 3.126 54.291 54.291 0 0 1 4.688-4.746.672.672 0 0 0 .168-.305s-.32-.805-.942-.484c-.879.484-5.156 2.957-6.507 3.593-.184-.12-.075-.3 0-.484 2.14-2.625 6.843-5.813 9.726-7.828.336-.348.617-.75.832-1.184a55.787 55.787 0 0 0 6.375 5.114c-.695.453-1.351.953-1.972 1.5Zm35.304 13.793c-.336-.215-.578-.41-.625-.684-.832-6.191 3.809-41.27 3.735-42.649a.598.598 0 0 0-.184-.433.591.591 0 0 0-.438-.172c-.773 0 .59 0-18.738 18.508-1.273 1.2-11.015 10.515-12.636 11.137-2.231-.168-10.622-6.856-11.989-8.965 2.64-5.344 34.653-49.282 45.73-56 .848-.516 2.305-1.32 3.9-2.172.55.52 1.144.992 1.773 1.41 3.52 3.34 8.421 7.496 12.136 10.621l-2.894 5.75a.485.485 0 0 0 0 .504c23.531 33.754 23.18 33.375 23.332 33.375 1.508 7.8 2.449 15.703 2.808 23.64 0 2.137 0 1.958.09 1.805.09-.152 0 .106 0 .106-3.672 4.004-40.008 7.738-46 4.219Zm83.871-50.266c-6.875.957-14.64-.469-16.144-.531a29.892 29.892 0 0 0-4.887-11.243.238.238 0 0 0-.324-.059.256.256 0 0 0-.106.141.232.232 0 0 0 .024.176c.879 1.79 3.82 9.512 4.55 11.395-.23.726 6.856 30.023 4.856 33.969-1.793 3.566-12.215 8.058-15.976 9.347a228.56 228.56 0 0 0-3.641-25.156c.516-4.367-.152-30.344-.352-39.945a.587.587 0 0 0-.363-.52l-6.812-2.867a98.511 98.511 0 0 0-.684-10.785c17.008 2.941 36.824 12.668 38.476 12.683 2.399 0 20.211-13.656 23.899-14.203 1.637-.258 8.676 5.887 9.496 7.586-7.191 10.047-19.828 23.246-25.687 27.813a13.264 13.264 0 0 1-6.325 2.199Zm0 0"/><path d="M150.95 56.102a.804.804 0 0 0-.114-.282.848.848 0 0 0-.211-.215.825.825 0 0 0-.277-.117.866.866 0 0 0-.301-.004.804.804 0 0 0-.281.114.753.753 0 0 0-.332.488.8.8 0 0 0-.004.305c.304 1.515.367 1.863 1.03 1.863a.77.77 0 0 0 .364-.09.763.763 0 0 0 .398-.602.802.802 0 0 0-.062-.37c-.047-.243-.18-.954-.21-1.09Zm4.64 10.043c.988.289 1.93-.184 1.898-.426-.031-.242 0-.121-1.336-.621-.894-.332-1.882-1.516-2.23-1.336-.348.183.183 1.152.305 1.336.324.492.804.859 1.363 1.047Zm27.75-14.415c-1.988 8.329-3.445 15.399-3.688 16.813a4.551 4.551 0 0 0-.09 1.879c.805 1.715 11.196 5.098 12.516 4.43 1.32-.665 4.75-8.387 8.742-16.356 2.442.078 4.89-.098 7.297-.531 2.535-.465 5-1.242 7.344-2.32 5.125-2.368 10.742-12.5 11.5-17.598a26.748 26.748 0 0 0-3.356-15.945C210.88.023 173.54 11.906 176.575 36.422c.866 5.61 3.198 10.89 6.765 15.308Zm9.254 18.07c0 .243-.27.212-1.516 0a20.83 20.83 0 0 1-7.266-2.32c-1.062-.578-1.351-.699-1.246-.957.106-.257.336-.168 1.973.29.152 0 4.856 1.515 6.207 1.988 1.742.789 1.848.789 1.848 1Zm-.27-24.683a9.456 9.456 0 0 0 4.688-.972 12.007 12.007 0 0 0 4.308 1.167c-2.55 4.75-7.722 14.43-9.39 19.586l-6.434-1.773c1.516-3.73 4.867-12.473 6.797-18.008Zm-.531-1.262a5.235 5.235 0 0 1-4.418-4.55c-.422-3.035 1.52-6.434 4.445-5.63 1.836.5 2.067 1.958 1.746 3.794-.273 1.336-1.257 4.687-1.804 6.328Zm4.125-3.64a7.102 7.102 0 0 1 1.094-2.778 2.825 2.825 0 0 1 2.636-1.394c1.125.332 1.61 2.457.684 3.793a11.576 11.576 0 0 1-3.262 2.945 2.499 2.499 0 0 1-.992-1.097 2.498 2.498 0 0 1-.191-1.47Zm-13.941-19.281c6.796-8.18 19.585-11.426 28.824-8.059a21.866 21.866 0 0 1 11.879 9.816 25.512 25.512 0 0 1 3.203 15.172c-.7 4.719-6.07 14.52-10.79 16.692a31.09 31.09 0 0 1-13.757 2.789c-.516 0-1.063 0-1.262.363-.894 1.824-2.531 5.344-4.14 8.648a23.007 23.007 0 0 0-3.446-1.332c1.762-5.039 7.313-14.93 9.953-19.726 2.29.195 4.586-.2 6.676-1.152a3.354 3.354 0 0 0 1.79-3.125 3.361 3.361 0 0 0-2.079-2.946c-2.351-1.152-4.46 1.61-5.687 3.93-.336.61-.715 1.32-1.137 2.125a13.17 13.17 0 0 1-3.598-.742 13.949 13.949 0 0 0 3.035-2.914 4.2 4.2 0 0 0 .696-2.45 4.22 4.22 0 0 0-.848-2.406 2.593 2.593 0 0 0-3.398-.469 6.48 6.48 0 0 0-3.036 6.34c.165.7.543 1.332 1.079 1.809a8.015 8.015 0 0 1-3.141.605c.605-1.789 1.594-5.023 1.852-6.343.16-.75.195-1.524.105-2.29a3.428 3.428 0 0 0-.879-1.75 3.43 3.43 0 0 0-1.684-.996c-3.687-1.046-6.406 3.036-5.875 6.844a6.404 6.404 0 0 0 1.672 3.649 6.373 6.373 0 0 0 3.52 1.933c-1.941 5.461-4.977 14.278-6.496 18.04l-3.336-.864c2.14-10.742 2.398-10.484 2.094-10.621a31.226 31.226 0 0 1-6.387-15.172 19.757 19.757 0 0 1 .656-8.191 19.71 19.71 0 0 1 3.942-7.207Zm21.058 23.289c1.063-1.93 3.184-6.145 5.246-5.114a2.44 2.44 0 0 1 1.043.797c.266.356.43.778.477 1.219-.031 2.672-4.188 3.14-6.828 3.098Zm58.078 6.687a8.667 8.667 0 0 1 6.067-1.031 8.976 8.976 0 0 1 6.105 2.555 8.966 8.966 0 0 1 2.68 6.05 6.909 6.909 0 0 0-4.55-.851c-3.81.332-8.786 2.398-8.118 6.07.547 3.031 4.55 2.625 7.586 1.805 3.035-.82 5.445-2.309 6.07-5.235 3.684 2.684 4.55 7.387 4.703 11.985a.23.23 0 0 0 .07.172c.047.047.106.07.172.07a.242.242 0 0 0 .172-.07.245.245 0 0 0 .07-.172c.106-5.14-.82-10.18-5.023-13.11a9.703 9.703 0 0 0-.66-3.855 9.76 9.76 0 0 0-5.371-5.473 9.752 9.752 0 0 0-3.844-.73 9.117 9.117 0 0 0-6.07 1.246c-.559.273-.3.684-.059.574Zm13.836 10.88c-1.715 2.245-6.57 3.413-8.816 3.034-.832-.136-1.516-.484-1.7-1.351-.546-3.032 4.688-4.688 7.817-4.793a5.789 5.789 0 0 1 3.61.925 4.767 4.767 0 0 1-.91 2.184Zm-20.785-28.614c1.621-2.004.531-5.492-4.008-5.508-1.758 0-2.61 1.789-2.488 3.504.273 4.082 4.871 3.96 6.496 2.004Zm-5.434-2.078c0-1.004.473-2.309 1.52-2.293 2.441 0 3.563 1.14 3.563 2.398-.06 2.867-5.278 4.356-5.083-.105Zm-.62 172.004c-13.337-5.325-19.528 20.453-30.419 42.601-.07.934-.039 1.867.09 2.793 0 2.32.258 17.691 1.61 19.438.363.695 1.894 0 2.609-.442a119.112 119.112 0 0 0 17.05-12.805.47.47 0 0 0 .122-.378c2.824-4.024 13.398-24.961 15.96-35.457 1.794-7.434.016-12.973-7.023-15.75Zm4.765 19.27a57.244 57.244 0 0 1-20.348-6.645c3.551-6.723 7.938-14.383 15.172-11.5 8.059 3.199 7.89 9.828 5.176 18.097Zm-25.246 39.444a7.979 7.979 0 0 0-1.52-1 9.097 9.097 0 0 0-6.629-.636c-.152-1.805-1.015-13.551-1.015-13.657 11.363 4.157 7.86 2.352 19.117 7.95-1.184 1.125-5.629 4.234-9.953 7.316Zm7.828-43.906a50.282 50.282 0 0 0 4.55 2.2 132.898 132.898 0 0 0-9.195 17.085c-2.546 5.325-2.457 5.293-5.05 11.106-1.52-.488-3.035-.942-4.551-1.399 1.637-3.261 13.289-27.109 14.246-29.023Zm-9.105 30.54c4.933-8.845 9.953-19.845 14.261-28.141a44.927 44.927 0 0 0 4.555 1.605c-.805 1.52-3.156 5.555-3.781 6.723-.621 1.168-6.856 13.457-7.297 14.398-.695 1.516-2.61 5.75-3.2 7.102-1.546-.684-3.035-1.2-4.597-1.715Zm5.085 1.882c.922-1.684 4.731-8.754 5.204-9.664.71-1.41 8.664-17.66 9.101-18.602 1.395.395 2.867.73 3.809.91-2.778 7.587-10.774 22.2-13.656 29.403-2.625-1.227-3.215-1.531-4.52-2.078Zm.922-34.168 2.72 1.52a216.298 216.298 0 0 0-14.263 29.066l-2.277-.695c8.816-18.785 9.227-21.243 13.762-29.922Zm6.254 37.535-2.293-1.09c2.473-4.855 10.211-17.312 13.746-29.527.852.152 1.684.29 2.489.395a220.194 220.194 0 0 1-14.004 30.195Zm-47.535 9.848a3.755 3.755 0 0 0 1.11-4.234 4.7 4.7 0 0 0-1.376-2.782 4.685 4.685 0 0 0-5.832-.582 4.683 4.683 0 0 0-1.898 2.453 645.626 645.626 0 0 0-6.066-3.867c1.515-2.02 5.976-1.12 6.43.531a.266.266 0 0 0 .097.16.24.24 0 0 0 .184.044.226.226 0 0 0 .16-.098.252.252 0 0 0 .047-.184c-.23-2.636-5.723-4.187-7.938-1.074-1.957-1.2-4.383-2.656-6.418-3.766 1.746-1.515 5.645-.664 6.07.915.02.05.059.097.11.125a.24.24 0 0 0 .164.027.277.277 0 0 0 .144-.086.238.238 0 0 0 .051-.16c-.195-2.457-5.277-4.11-7.586-1.41a17.182 17.182 0 0 0-3.031-1.336 1.088 1.088 0 0 0-1.156.214c-3.836 4.778-16.778 17.188-22.758 18.63a.867.867 0 0 0-.547 1.398 18.892 18.892 0 0 0 4.461 3.351c-1.516 1.516-2.7 2.883-3.578 3.868-.457.488-.7 9.773-.305 11.82.059.2.188.375.363.484 1.915 1.305 26.536 11.957 29.055 10.532 1.684-.957 21.79-21.88 22.106-22.516.488-1 .32-7.676.289-10.348-.121-.804-1.625-1.668-2.352-2.11Zm-48.55 20.043v-3.383c6.296 3.035 20.71 9.223 26.171 10.953 1.395.457 1.516.395 2.246 0 4.172-2.672 18.903-19.27 21.606-21.8v3.199c-8.196 8.207-22.106 22.593-22.363 21.773-1.504-.094-26.356-10.137-27.66-10.742Zm48.171-25.156c.547.918.84 1.964.848 3.035-.004.34-.086.676-.242.976-.157.301-.38.567-.653.77a708.915 708.915 0 0 0-6.539-4.281c1.563-3.079 5.04-3.125 6.524-.5Zm-48.55 9.71c6.464-1.91 18.738-13.746 22.863-18.874.992.277 1.953.667 2.851 1.167-1.515 2.825.11 5.918.684 5.477.32-.242-.258-.332-.348-1.82a6.25 6.25 0 0 1 .711-3.125c2.094 1.094 4.555 2.52 6.633 3.719-1.273 2.835.258 5.644.789 5.234.531-.41-.242-.32-.336-1.805a6.445 6.445 0 0 1 .547-2.84 452.007 452.007 0 0 1 6.328 3.793 5.103 5.103 0 0 0-.36 2.39c.075.813.344 1.595.786 2.286a.27.27 0 0 0 .07.063.266.266 0 0 0 .094.03.254.254 0 0 0 .246-.121.274.274 0 0 0 .027-.191c-.011-.03-.023-.062-.047-.086a4.459 4.459 0 0 1 .079-3.824c3.535 2.156 6.386 3.961 7.265 4.551-.164.152-15.988 14.234-21.375 18.422-3.535-.926-22.09-10.137-27.508-14.445Zm.578 8.45c6.87 3.035 22.484 10.074 26.078 10.758.625.12.867.168 2.05-.774 5.051-4.05 21.48-21.242 21.633-21.058a.402.402 0 0 1 0 .136v3.035c-3.383 2.715-22.195 22.47-22.5 21.528-1.515 0-26.172-10.059-27.43-10.621-.03-.637.106-2.336.169-3.004Zm27.625 20.91c-1.516.863-24.622-8.527-27.72-10.442a23.362 23.362 0 0 1-.163-2.91c6.644 3.278 25.972 11.438 27.746 11.364 2.597-.137 20.937-20.786 22.242-22.227a9.737 9.737 0 0 1-.227 2.305c-.257.5-20.875 21.347-21.878 21.91Zm-125.7-85.527c.106 1.625.184 3.035.184 4.355 0 .2.078.395.223.535.14.145.336.223.535.223a.74.74 0 0 0 .535-.223.747.747 0 0 0 .223-.535c0-1.41-.075-2.809-.18-4.46a.77.77 0 0 0-.813-.708.771.771 0 0 0-.707.813Zm231.176-30.418a.735.735 0 0 0-.664.511.672.672 0 0 0-.031.293c.09 1.395.18 2.895.18 4.352 0 .203.082.394.222.539.14.14.336.223.535.223a.773.773 0 0 0 .54-.223.773.773 0 0 0 .222-.54c0-1.515-.094-3.03-.2-4.46a.81.81 0 0 0-.073-.285.736.736 0 0 0-.438-.375.747.747 0 0 0-.293-.035Zm-235.105 26.64a.756.756 0 0 0 .539-1.293.756.756 0 0 0-.54-.222c-1.835 0-3.367.136-4.882.105a.765.765 0 0 0-.543.223.753.753 0 0 0 .527 1.293c1.563.03 3.278-.028 4.899-.106Zm230.402-31.133c-1.82 0-3.352.106-4.887.121a.764.764 0 0 0-.758.758c0 .203.083.395.223.54a.77.77 0 0 0 .535.222c1.64 0 3.34 0 4.977-.121a.767.767 0 0 0 .715-.805.763.763 0 0 0-.805-.715ZM44.242 198.824c.094 1.395.184 2.899.184 4.356a.775.775 0 0 0 .758.757.773.773 0 0 0 .539-.222.76.76 0 0 0 .218-.535c0-1.52-.09-3.035-.18-4.461a.771.771 0 0 0-.261-.524.751.751 0 0 0-.55-.183.775.775 0 0 0-.52.258.775.775 0 0 0-.188.554Zm232.18-25.262c0-1.519-.094-3.035-.2-4.46a.766.766 0 0 0-.812-.707.77.77 0 0 0-.52.261.751.751 0 0 0-.183.551c.09 1.398.18 2.898.18 4.356a.764.764 0 0 0 .761.757c.2 0 .395-.078.54-.222a.768.768 0 0 0 .234-.536Zm-220.98 34.442a.766.766 0 0 0 .527-.246.756.756 0 0 0 .2-.543.792.792 0 0 0-.79-.73c-1.836.077-3.367.136-4.899.105a.773.773 0 0 0-.539.222.77.77 0 0 0 0 1.075c.145.14.336.222.54.222 1.62.032 3.32-.03 4.96-.105Zm230.402-31.133c-1.52.074-3.203.121-4.887.121a.745.745 0 0 0-.773.742c0 .203.078.399.222.543.14.145.332.227.535.23 1.73 0 3.125 0 4.961-.12a.732.732 0 0 0 .29-.07.745.745 0 0 0 .395-.426.756.756 0 0 0 .046-.293.81.81 0 0 0-.79-.727Zm-265.27-13.824c.2.152 42.985-6.188 44.82-7.313a.721.721 0 0 0 .235-.285.708.708 0 0 0 .066-.367c0-1.957-2.562-20.328-3.793-24.91-.148-.563-.3-1.125-.652-1.32-2.32-1.399-43.223 6.308-45.668 7.886a.566.566 0 0 0-.258.367c-.515 1.836 3.93 25.032 5.25 25.942Zm-4.324-25.578c2.914-1.32 40.04-8.117 44.29-7.586 1.03 2.652 3.792 22.105 3.972 24.957-2.106.62-43.36 7.707-43.512 7.738-.152.031-.168.211-.484-.742-1.336-4.008-4.34-20.938-4.266-24.367Zm0 0"/><g clip-path="url(#a)"><path d="M68.73 157.086a.893.893 0 0 0 .106-.5c0-2.414-3.457-29.191-4.688-31.332a1.04 1.04 0 0 0-.925-.5c-5.082-.621-47.957 7.754-50.782 9.71-.394.274-.332.954-.285 1.684.242 3.989 4.551 30.239 6.067 30.086.168 0 .105-.12-.29.684-2.363 4.867-6.855 20.465-6.765 23.605 0 1.32.305 3.036 1.61 2.946 9.359-1.153 55.257-8.438 68.456-11.153.516-.105.848-.578.832-1.351a10.658 10.658 0 0 0-1.152-3.688c-1.852-3.472-9.527-17.234-12.184-20.191Zm-50.414 8.68c-1.183-1.52-5.539-27.66-5.207-30.559 3.34-1.73 45.637-9.906 50.07-9.238 1.212 3.336 4.352 27.445 4.551 30.344-5.37 1.851-42.558 7.859-49.414 9.453Zm.664.453c1.278-.32 44.684-7.586 48.66-8.633 2.169 2.02 11.97 19.45 12.606 20.937-8.707 1.516-60.367 10.149-67.969 11.305.106-4.598 4.825-20.664 6.703-23.61Zm0 0"/></g><path d="M24.688 181.953c1.32-.2 29.328-3.566 39.445-6.312a.229.229 0 0 0 .148-.114.238.238 0 0 0-.086-.332.25.25 0 0 0-.183-.023c-1.989.406-26.23 3.64-39.356 6.308a.26.26 0 0 0-.203.06.234.234 0 0 0-.062.089.21.21 0 0 0-.02.11c.004.034.012.07.031.1.02.036.043.063.075.083a.25.25 0 0 0 .21.031ZM45.151 76.387a29.88 29.88 0 0 0-1.425 3.945c-.02.215.039.43.168.606 1.53 2.304 17.234 20.011 21.332 22.5.562.347 1.23.59 1.636.09a27.526 27.526 0 0 1 11.274-8.329 37.193 37.193 0 0 1 11.168-2.11c3.035-.273 3.566-.577 4.734-2.562a25.199 25.199 0 0 1 5.398-6.949c2.801-2.45 5.907-4.52 9.243-6.16a.786.786 0 0 0 .332-.379.76.76 0 0 0 .031-.5 16.24 16.24 0 0 0-2.02-3.672c.547-.183 1.157-.351 1.157-.898 0-1.516-13.23-20.664-16.903-24.274-.379-.379-.925-.879-1.425-.851-7.586.426-14.977 7.586-19.254 13.84-4.903-.184-8.07-.625-13.657 1.726a31.177 31.177 0 0 0-10.437 7.254c-.453.469-3.55 3.746-3.594 4.004-.047.258.043.258 2.242 2.719Zm60.692-.426c-6.328 1.078-10.364 6.34-13.34 12.062-1.317 2.547-1.195 2.668-2.594 2.641a39.116 39.116 0 0 0-7.312.27 27.959 27.959 0 0 0-5.22 1.304c-3.85 1.367-8.269 5.739-10.62 8.985a.668.668 0 0 1-.184.164.645.645 0 0 1-.238.07.587.587 0 0 1-.457-.16c-4.93-5.082-13.656-14.004-18.04-19.129-.21-.23.153-.563.364-.32 2.836 3.035 10.164 10.3 18.024 18.207 2.656-3.383 6.753-7.48 10.804-8.907a28.321 28.321 0 0 1 6.84-1.52 43.916 43.916 0 0 1 6.57 0c.895-1.03 5.329-12.741 15.371-14.046a.239.239 0 0 1 .098.184.26.26 0 0 1-.02.109.27.27 0 0 1-.062.086ZM89.836 48.074c3.035 2.125 15.383 20.406 16.992 23.61a43.483 43.483 0 0 0-8.043 3.472 18.245 18.245 0 0 0-6.203 5.09 18.233 18.233 0 0 0-3.414 7.262c-5.445-8.863-13.047-18.617-18.102-25.793.305-.2 8.832-13.047 18.77-13.64ZM57.277 63.246c5.535-2.23 8.602-1.715 13.184-1.516 4.55 7.766 12.73 18.723 18.117 25.899a20.54 20.54 0 0 0-14.672 2.016c-2.687 1.52-5.965 5.16-7.98 7.421-2.914-2.34-19.727-20.242-22.426-23.273 4.156-4.707 7.996-8.242 13.777-10.606Zm-27.765 38.582a2.378 2.378 0 0 0-2.578-.09 2.423 2.423 0 0 0-.762.535 2.45 2.45 0 0 0-.496.79c-.11.292-.164.605-.156.917a2.407 2.407 0 0 0 .742 1.664 2.38 2.38 0 0 0 1.707.652c.312-.007.62-.077.906-.202a2.31 2.31 0 0 0 1.79-1.914 2.323 2.323 0 0 0-.212-1.356 2.34 2.34 0 0 0-.941-.996Zm-1 3.035c-1.063.332-1.7 0-1.957-.515-.489-1.078.12-2.73 1.699-2.246 1.105.41 2 2.277.258 2.835Zm78.148-72.46c.442.894 2.488.562 3.383.273.473-.153.773-.32.82-.774.137-1.14.29-11-.226-11.957a.565.565 0 0 0-.235-.234.602.602 0 0 0-.328-.07c-1.617-.004-3.23.23-4.777.699-.625.379.816 11.062 1.363 12.062Zm-1.047-11.7c1.403-.2 2.82-.265 4.235-.195.09 1.12-.153 10.847-.168 11-.64.23-1.325.312-2 .242-.11-.348-.29-1.29-.52-2.473a81.799 81.799 0 0 1-1.547-8.574ZM28.04 89.023a1.04 1.04 0 0 0 .941 0 3.487 3.487 0 0 0 1.336-1.515.627.627 0 0 0-.09-.61c-.73-.863-8.68-10.074-9.652-9.496a27.709 27.709 0 0 0-3.383 2.578.43.43 0 0 0-.101.137.418.418 0 0 0-.035.168c-.032.79 8.8 7.86 10.984 8.738Zm-7.281-11.226c1.105.805 4.84 5.418 8.297 9.496a2.767 2.767 0 0 1-.543.625 94.394 94.394 0 0 1-10.395-7.711 26.141 26.141 0 0 1 2.64-2.41Zm23.836-33.469c.332-5.887 3.761-8.617 7.343-9.316-1.019 3.73-.851 8.586 2.836 9.21 1.758.286 2.625-.624 3.899-1.687 5.445-4.55 1.047-9.101-5.098-8.781 2.293-6.281 7.586-11.395 14.61-11.563a.245.245 0 0 0 .246-.242.233.233 0 0 0-.075-.172.23.23 0 0 0-.171-.07c-7.586-.152-13.547 5.309-15.899 12.137-4.05.699-8.07 3.73-8.18 10.39a.27.27 0 0 0 .004.098c.004.031.02.063.036.09.02.027.042.047.07.066.027.02.058.032.09.035a.206.206 0 0 0 .097 0 .244.244 0 0 0 .086-.039.227.227 0 0 0 .07-.066.358.358 0 0 0 .036-.09Zm8.633-9.5c2.257-.152 5.628.547 6.554 2.594.532 1.172 0 2.613-1.883 4.187a7.468 7.468 0 0 1-1.73 1.293c-2.273.97-4.793-1.836-2.941-8.074Zm4.34 214.578a11.431 11.431 0 0 0-4.5-.281 11.388 11.388 0 0 0-7.598 4.512 11.321 11.321 0 0 0-1.907 4.086 11.834 11.834 0 0 0 9.012 14.094c3.063.671 6.27.101 8.914-1.587a11.853 11.853 0 0 0 5.18-7.425c.289-1.48.281-3-.023-4.473a11.402 11.402 0 0 0-9.078-8.926Zm4.687 12.367a10.497 10.497 0 0 1-4.11 6.004 10.494 10.494 0 0 1-7.027 1.883 10.415 10.415 0 0 1-5.363-4.723 10.43 10.43 0 0 1-1.07-7.066 10.63 10.63 0 0 1 4.066-6.195 10.63 10.63 0 0 1 7.129-2.028 10.635 10.635 0 0 1 5.367 4.915 10.629 10.629 0 0 1 .945 7.21Zm0 0"/><path d="M77.773 253.73a8.13 8.13 0 0 0-4.113-.316 20.596 20.596 0 0 0-2.094-3.719c.989-.894 3.688-3.382 3.036-4.55a33.482 33.482 0 0 0-8.16-7.055 11.126 11.126 0 0 0-4.172-1.352c-.973.137-3.278 3.914-3.793 4.766-.336 0-1.52-.383-1.61-.426 0-1.094-.32-5.039-1.304-5.492a15.574 15.574 0 0 0-3.415-.836c-1.078-.168-10.773 1.61-11.484 2.914-.473.879.621 4.203.941 5.129-.82.45-1.605.957-2.351 1.516-1.52 1.078-1.11 1.03-1.383.91a3.472 3.472 0 0 0-1.047-.305 6.095 6.095 0 0 0-4.02-.758c-1.398.457-4.687 7.953-5.218 9.88a2.987 2.987 0 0 0-.137 1.515c.363 1.004 2.79 1.804 3.809 2.125a20.64 20.64 0 0 0 0 5.887c-1.336.363-4.113 1.183-3.961 2.546.152 1.368 3.703 10.38 5.172 11.094a6.655 6.655 0 0 0 5.344.5c.492-.246.968-.527 1.425-.836.606.457 1.242.867 1.895 1.262-.469 1.168-1.516 3.777-1.184 4.96.168.622.668.817 1.367 1.075 1.926.7 12.305 3.188 13.883 2.914.59-.09.91-.71 1.09-1.305.34-1.347.535-2.722.594-4.109a23.253 23.253 0 0 0 2.32-.351 8.762 8.762 0 0 0 1.774 2.199c.777.547 1.43.273 2.308-.285.426.543 1.063 1.304 1.742 1.378 1.715.2 8.801-6.476 9.532-7.843.605-1.137-1.61-3.172-2.598-4.067a20.537 20.537 0 0 0 2.488-5.187 17.38 17.38 0 0 0 3.309.18c.5 0 1.078-.18 1.289-.653.926-2.105.652-10.101 0-12.137-.09-.59-.774-.984-1.274-1.168Zm.364 1.395c.515 1.973.683 9.422-.075 11.352a13.668 13.668 0 0 1-3.93-.184.553.553 0 0 0-.398.082.551.551 0 0 0-.238.328 19.495 19.495 0 0 1-2.777 5.735.545.545 0 0 0-.11.406c.016.144.09.277.2.367a11.344 11.344 0 0 1 2.671 3.035c-.757 1.242-6.69 6.676-8.328 7.133-.246 0-.91-.914-1.078-1.156a23.995 23.995 0 0 1-1.52-2.625.574.574 0 0 0-.312-.286.583.583 0 0 0-.43 0c-4.398 1.653-6.07.68-6.07 1.774a14.792 14.792 0 0 1-.789 4.809 48.373 48.373 0 0 1-10.469-2.336 13.656 13.656 0 0 1 1.336-4.657c.457-1.02-1.363-.73-4.761-4.187a.595.595 0 0 0-.403-.16.595.595 0 0 0-.402.16c-1.52 1.242-3.488 2.457-3.883 2.258-.777-.38-4.34-8.465-4.555-10.102a9.41 9.41 0 0 1 3.598-1.52.592.592 0 0 0 .426-.652 18.873 18.873 0 0 1 0-6.492.525.525 0 0 0-.395-.605 14.116 14.116 0 0 1-3.277-1.32c-.336-.247-.305-.231-.273-.489.98-3.54 2.554-6.89 4.656-9.906.82-.227 3.035 1.394 3.793 1.972a.423.423 0 0 0 .593 0 19.841 19.841 0 0 1 2.243-2.004c2.308-1.742 2.93-1.515 2.734-2.12a12.82 12.82 0 0 1-1.156-4.84c.238-.2.504-.352.789-.458a32.163 32.163 0 0 1 4.355-1.367c1.797-.5 3.645-.8 5.508-.894.32.137.606 1.52.684 1.941.558 3.035.18 3.656.62 3.703 4.325.426 5.204 1.625 5.509 1.094.84-1.473 1.82-2.86 2.93-4.144.316-.317.3-.47 1.257.078a33.91 33.91 0 0 1 7.586 6.78c.227.395-1.746 2.49-3.187 3.72-.5.437.214.636 1.52 3.125 1.304 2.488 1 3.183 1.698 3.035a14.409 14.409 0 0 1 4.11-.383ZM288.71 128.348a39.878 39.878 0 0 0-9.922-2.621c-2.488-.395-5.418-.79-7.89-1.11 2.382-3.367 9.437-11.894 10.62-13.972.333-.563-.304-1.352-.773-1.82-2.64-2.825-7.738-3.888-11.652-4.493-2.246-.363-11.621-1.516-13.215-.758-1.914.91-16.055 22.153-16.477 25.383 0 .547.18.758.711.957 2.23.816 12.29 2.094 14.535 2.621-3.035 5.313-16.523 23.262-17.843 25.793-.317.637-.121 1.02.261 1.14 1.364.54 2.77.977 4.2 1.305.547.165 1.746-.578 3.492-1.64 7.828-4.703 41.418-26.883 43.996-29.75a.667.667 0 0 0 .164-.242.649.649 0 0 0 .05-.286.7.7 0 0 0-.257-.507Zm-32.606 18.207c-12.894 8.511-17.25 11-17.402 11.105 2.078-3.168 14.988-20.86 17.203-25.094a.61.61 0 0 0 0-.523.614.614 0 0 0-.406-.324c-1.52-.547-12.563-1.73-15.172-2.656.332-2.82 14.11-24.153 15.777-25.004 1.668-.848 17.856 1.078 20.891 3.246-1.594 3.113-10.39 14.004-11.816 16.539-.29.515-.38 1.015.18 1.152.562.137 14.824 1.805 17.933 2.824-3.793 3.168-22.941 15.883-27.188 18.676Zm-97.328-92.762c0 .137.09.305.317 1.184a.79.79 0 0 0 .367.449.752.752 0 0 0 1.027-.297.738.738 0 0 0 .063-.574c-.149-.594-.285-1.094-.38-1.336a.737.737 0 0 0-.413-.36.765.765 0 0 0-.543.012.77.77 0 0 0-.399.379.746.746 0 0 0-.039.543Zm0 0"/></svg>