<svg xmlns="http://www.w3.org/2000/svg" width="400" height="400" version="1.0" viewBox="0 0 300 300"><defs><clipPath id="a"><path d="M0 30h300v250.5H0Zm0 0"/></clipPath></defs><path fill="#fff" d="M200.184 174.438h-.094ZM68.828 220.394c.598.097 3.867.253 3.867-.313 0-.332-.597-.316-.597-.316.082-2.52 3.273-3.153 5.554-1.828.63.363 1.211.8 1.73 1.308-3.226.172-7.503 2.379-7.218 5.578a5.617 5.617 0 0 0 2.941 3.922 8.82 8.82 0 0 0 3.157 1.504 8.791 8.791 0 0 0 3.496.164 9.192 9.192 0 0 0 5.16-3.496c2.852.09 5.64-.844 7.867-2.629a.893.893 0 0 0 .328-.617c0-.55 0-.52-3.144-4.016a.831.831 0 0 0-.719-.273.856.856 0 0 0-.371.137.87.87 0 0 0-.266.292c-.05.07-.101.145-.14.223-.25.469-.653.836-1.145 1.043a2.303 2.303 0 0 1-1.543.09c-1.574-.457-3.605-4.633-7.3-7.121-3.227-2.176-7.551-2.82-10.602-.238a8.401 8.401 0 0 0-2.676 4.32 2.153 2.153 0 0 0 .094 1.574c.414.399.953.645 1.527.692Zm5.914 5.847a2.13 2.13 0 0 1-.84-1.289 2.12 2.12 0 0 1 .258-1.516 5.971 5.971 0 0 1 2.785-2.113 25.346 25.346 0 0 0-2.203 4.836Zm14.82-2.492c.376-1.133 0-.738.63-1.023a4.582 4.582 0 0 0 1.273-.946l1.43 1.703a11.771 11.771 0 0 1-3.868 1.575c.157-.41.407-1.04.535-1.387Zm-5.695-4.016c1.492 1.875 2.738 3.543 5.016 3.356-.324.68-.586 1.387-.785 2.11-1.149.081-1.305-.188-1.762 0-.898.347-2.375 3.577-5.961 3.562a5.14 5.14 0 0 0 .422-1.575 6.44 6.44 0 0 0 2.77-1.308c.343-.3.57-.715.628-1.168 0-.55-.187-1.258-1.351-2.188.433-.921.777-1.882 1.023-2.867Zm-5.285 5.953c-1.387-.738.973-2.046 2.5-2 .352.004.691.106.988.293.297.192.532.461.68.782-.21.336-.488.629-.816.855a2.898 2.898 0 0 1-2.27.465 2.888 2.888 0 0 1-1.082-.473Zm1.856-9.64c1.066.91 2.039 1.93 2.894 3.043-.5.906-.879 1.875-1.133 2.883a4.977 4.977 0 0 0-2.035-.153c-.684.09-1.34.317-1.93.672-2.879 1.574-2.203 5.024 1.793 4.63-.234.452-.41.937-.52 1.437a9.836 9.836 0 0 1-4.339-2.067 22.169 22.169 0 0 0 2.578-5.594 5.013 5.013 0 0 1 1.945-.457 4.996 4.996 0 0 1 1.973.332l.332-1.246-.348-.156c-.738-.504-1.07-.898-1.918-1.574.313-.574.551-1.192.707-1.828Zm-6.106-2.52c1.969.036 3.875.7 5.445 1.891a9.672 9.672 0 0 0-.629 2 5.734 5.734 0 0 0-2.59-1.148 5.732 5.732 0 0 0-2.824.218c.332-.957.536-1.953.598-2.96Zm-3.602 1.227a5.778 5.778 0 0 1 3.02-1.195 10.224 10.224 0 0 0-.895 3.355 3.029 3.029 0 0 0-1.465 2.742 8.093 8.093 0 0 1-3.238-.488 6.693 6.693 0 0 1 2.547-4.414Zm-23.503-2.629c-2.829-1.23-9.122 2.41-10.27 4.363-.168.43-.168.91 0 1.34.988 3.766 10.238 17.063 11.953 19.125.3.379.711-.14.442-.582-.817-1.355-.723 1.371 3.46-12.195.387-.153.75-.363 1.07-.63a.89.89 0 0 0 0-1.183 3.106 3.106 0 0 0-.487-.472l.992-3.668 3.933 2.172a30.043 30.043 0 0 0-1.73 6.175 16.124 16.124 0 0 0-4.406 2.426c-.93 1.027.535 2.918 1.449 4.05a25.124 25.124 0 0 0 1.855 2.079c.172.176.723 0 .676-.281a2.647 2.647 0 0 0-.394-.633 26.833 26.833 0 0 1-2.188-4.188 21.756 21.756 0 0 1 3.855-1.828c.489-.175 2-.648 2.407-.394a40.482 40.482 0 0 0 6.293 2.664.37.37 0 0 0 .504-.457.39.39 0 0 0-.188-.207l-2.723-1.653c.579-1.316.95-2.714 1.102-4.144l6.715 3.64c.41.235.726-.41.426-.585-.297-.172-20.688-13.153-24.746-14.934Zm-2.391 1.668a2.941 2.941 0 0 1 1.684 0c.363.16 1.242.633 2.437 1.293a15.614 15.614 0 0 0-.816 3.45c-1.055-.599-1.684-1.056-2.516-.915a3.02 3.02 0 0 0-1.242.602c.156-1.23.297-2.176.453-4.43Zm-6.293 3.469a14.162 14.162 0 0 1 5.773-3.34 85.908 85.908 0 0 0-1.761 11.277 45.897 45.897 0 0 1-3.992-7.953Zm7.145 13.25a257.985 257.985 0 0 1-2.708-4.586c.536-2.254.708-3.293 1.04-5.418a28.31 28.31 0 0 0 2.972 4.219 27.968 27.968 0 0 0-1.289 5.785Zm2.753 4.535c-.566-.899-1.293-2.11-2.234-3.672a30.532 30.532 0 0 0 1.18-6.063c.343.833 3.43-.363 4.261-.68-.613 1.938-2.753 8.684-3.191 10.415Zm-.472-10.223a44.725 44.725 0 0 1-2.582-5.246l.488-.27c.223.126 5.602 3.31 5.992 3.563a21.768 21.768 0 0 1-3.883 1.953Zm4.718-3.469c-1.18-.785-2.785-1.746-4.011-2.457.418-1.113.695-2.28.816-3.464l4.469 2.52c-.078.597-.613 1.827-1.18 3.401Zm10.415 6.305-2.422-1.465a4.557 4.557 0 0 0-3.352 0 32.397 32.397 0 0 0 1.32-5.656l5.696 3.149a14.18 14.18 0 0 0-1.149 4.05Zm0 0"/><g clip-path="url(#a)"><path fill="#fff" d="M298.266 233.266c-2.547-23.758-24.508-60.293-37.63-80.254 7.325.59 14.68.773 22.024.55 2.094 0 7.567-.375 8.621-.582.614-.125.707-.707-.219-.738-.93-.031-7.535-.347-8.433-.363h-16c-2.453.094-6.29.316-6.512.316-4.719-7.203-8.008-11.707-8.039-11.722a.326.326 0 0 0-.129-.086.472.472 0 0 0-.148-.024.405.405 0 0 0-.149.043.357.357 0 0 0-.183.235.42.42 0 0 0-.004.156.358.358 0 0 0 .176.242c.722.582 32.515 47.106 42.234 79.152 3.855 12.715 6.137 28.672-6.29 33.086-29.51 10.555-260.651 13.989-282.5 1.575-3.038-1.72-3.745-5.293-3.147-10.114.93-6.695 4.53-15.758 8.874-25.902 4.891 4.726 45.477 42.05 52.051 40.648 6.578-1.402 43.563-18.609 45.086-21.898a20.582 20.582 0 0 0 1.387-7.172 1.3 1.3 0 0 0 .242-.887 1.296 1.296 0 0 0-.402-.828c-2.438-2.426-50.809-40.836-53.926-40.726-2.168.093-6.102 2.332-7.973 3.433a5.556 5.556 0 0 0-2.586-2.222 5.526 5.526 0 0 0-3.394-.297 7.64 7.64 0 0 0-2.8 1.957 7.632 7.632 0 0 0-1.665 2.988.372.372 0 0 0 .129.219.375.375 0 0 0 .238.082.375.375 0 0 0 .371-.301 7.603 7.603 0 0 1 4.215-3.371 3.912 3.912 0 0 1 2.172.285 3.924 3.924 0 0 1 1.684 1.402l-17.493 7.485a7.738 7.738 0 0 0-3.367-2.035c-2.988-.786-5.004 1.183-6.199 4.066a.378.378 0 0 0 .176.445c.074.04.164.055.25.04a.361.361 0 0 0 .219-.122c2.015-2.918 4.343-3.91 7.125-1.578-3.364 1.496-8.07 3.625-11.372 5.262.235-.375 34.184-61.945 34.184-62.106 1.492-2.77 4.5-7.734 7.598-8.378a20.586 20.586 0 0 1 4.261-.473c-2.183 3.621-19.93 33.086-19.96 37.242 0 4.727.816 3.988 3.335 4.727 2.516.742 143.356-.125 143.61-.125 2.437 0 11.969-.317 12.851-.961 2.739-2.016 2.125-5.028.926-8.192-.281-.757-1.715-3.894-3.633-8.082 8.258-2.492 14.473.676 15.04 14.18.566 11.672-4.028 15.234-12.82 14.73-7.063-.41-11.942-2.492-13.481.266-1.73 3.074 3.05 9.973 5.129 12.84-.301 0-13.47-.266-16.786-.41-4.68-.18-9.363-.121-14.035.176-3.215.07-6.414.507-9.531 1.304-1.18.586-2.707 3.625-3.352 4.903-1.273 2.503-7.078 18.226-8.683 22.765-.946 2.613-4.137 11.281-1.996 12.809-.078 1.683.187 3.937 1.668 4.726 1.476.786 21.8 1.356 23.36 1.387 2.753.078 30.581.441 48.339-.348 17.762-.789 25.516-2.488 25.062-2.441.45-.133.856-.39 1.168-.742.317-.348.524-.781.61-1.242a6.625 6.625 0 0 0-.223-3.5c1.984-3.86-13.008-35.903-17.16-38.157a1.717 1.717 0 0 0-.805-.222c-.832 0-19.488-.785-26.742-1.024-1.574-2.218-6.684-10.586-4.719-12.367 2.989-2.613 27.953 10.492 26.618-15.598-.692-11.8-6.122-18.714-17.133-14.714a9322.223 9322.223 0 0 0-11.168-23.899c8.347.5 16.726.317 25.043-.55a10.716 10.716 0 0 0 4.059 7.547c6.292 4.726 31.335 4.015 35.882-1.766a14.96 14.96 0 0 0 2.473-12.274c.418-.265.742-.656.926-1.117.253-.488 0-1.105-1.086-1.324a23.583 23.583 0 0 0-4.23-.254c0-1.29.077-3.7 0-6.442.14-.093 1.163-1.324 1.273-1.464a16.721 16.721 0 0 0 2.925-4.95c.52-1.464.723-3.148-.644-3.968-2.11-1.153-3.586.96-4.293 3.324-.66-3.64-2.188-8.98-5.836-8.445-6.2.945-1.922 15.992.094 21.945-1.77-.25-3.567-.25-5.332 0 1.964-4.945 2.972-11.344-2.078-12.305a4.012 4.012 0 0 0-4.122 1.578 2.187 2.187 0 0 0-3.555-1.04c-2.312 1.67-.991 5.497 1.7 6.76a27.372 27.372 0 0 0 0 4.866 17.826 17.826 0 0 0-5.035.11 67.969 67.969 0 0 0-1.258-11.454 8.5 8.5 0 0 0 3.492-5.859c.219-2.098-.52-3.844-2.265-4.3-2.188-.571-3.477.96-3.856 3.148-1.934-2.676-5.726-3.637-7.566-.567-5.899-6.144-8.746-2.71-7.25 0 1.117 2.082 4.027 3.246 6.293 3.891 0 3.531 1.57 6.508 3.523 9.547 1.305 2.05 2.766 4.02 3.899 5.469a37.895 37.895 0 0 0-7.313.472c-1.48.395-1.715 1.465-.348 2.239a19.413 19.413 0 0 0-.472 5.64 164.34 164.34 0 0 0-25.34.598 893.434 893.434 0 0 0-2.313-4.899c-.191-.394 1.32-4.964 3.442-47.437 9.754-.82 53.613.156 57.64-1.402.23-.086.438-.227.594-.415.156-.19.262-.417.305-.66 1.336-4.394 2.246-42.175 0-45.687-.551-.867-2.52-1.133-3.606-1.293-14.015-2.047-72.504-1.164-75.507.426-3.004 1.593-1.73 17.125-1.165 20.215-30.378-.977-100.523.93-107.128 3.402-1.575.566-2.157 2.726-2.47 4.347-2.612 13.504 4.72 56.954 7.173 70.376-.157 0 0 0-1.918 2.996a19.512 19.512 0 0 0-4.864.25c-3.586.55-6.89 5.515-8.714 8.601-.079.16-4.72 7.88-5.41 9.14-3.95-.616-22.31-.378-24.637-.253-2.328.125-4.719.3-6.825.457-.378 0-.41.726 0 .742 4.403.266 6.024.36 9.438.41 8.352.125 20.672.473 21.063.422-.817 1.438-12.93 23.02-14.551 26.074-7.047 13.235-12.586 25.352-12.914 26.375a24 24 0 0 0-5.114 3.153 15.373 15.373 0 0 0-.898 4.316c-.078 2.535.836 3.149 2.234 4.566a163.034 163.034 0 0 0-9.234 24.989 25.029 25.029 0 0 0-.094 10.539 32.877 32.877 0 0 0 3.555 9.926c.77.78 1.766 1.3 2.848 1.48 4.136 1.168 16.96 2.664 21.253 3.152a24.273 24.273 0 0 0-.27 5.829c.009 2.007.298 4 .868 5.925.004.047.02.094.043.133a.355.355 0 0 0 .215.176c.047.016.098.02.144.012a.375.375 0 0 0 .133-.04.318.318 0 0 0 .11-.093.345.345 0 0 0 .078-.266c.254-1.965.32-3.949.207-5.926a26.25 26.25 0 0 0-.649-5.656c2.172.192 4.266.348 6.09.41a24.32 24.32 0 0 0-.234 5.563c.004 2.004.297 4 .863 5.922 0 .097.04.187.106.258a.364.364 0 0 0 .512 0c.07-.07.105-.16.105-.258a31.26 31.26 0 0 0 .222-5.922 25.498 25.498 0 0 0-.629-5.469c3.508.078 55.137 4.727 144.301 2.961 23.895-.473 52.621-1.574 76.282-4.172a24.853 24.853 0 0 0-.27 5.75c.008 2 .305 3.992.883 5.906a.37.37 0 0 0 0 .16c.012.055.039.102.07.145a.365.365 0 0 0 .563 0 .334.334 0 0 0 .07-.144.317.317 0 0 0 .004-.16c.273-1.962.348-3.946.219-5.922a26.872 26.872 0 0 0-.676-5.782c1.746-.191 5.789-.695 6.137-.742a24.168 24.168 0 0 0-.254 5.719c0 2.008.293 4 .867 5.926a.353.353 0 0 0 .133.242c.074.062.171.09.265.078a.353.353 0 0 0 .246-.133.368.368 0 0 0 .078-.27c.258-1.956.329-3.937.204-5.906a25.813 25.813 0 0 0-.676-5.765c7.094-.961 28.789-3.89 31.746-9.957 3.492-6.918 3.21-15.914 1.762-23.414Zm-143.153-25.364c.172-.425 5.442-1.574 11.2 0a.317.317 0 0 1 .16.004.349.349 0 0 1 .242.195.352.352 0 0 1 .035.157c0 .05-.012.105-.035.156a.433.433 0 0 1-.098.125.384.384 0 0 1-.144.07.37.37 0 0 1-.16 0 28.898 28.898 0 0 1-8.684.223c-1.352-.223-3.066-.238-2.563-.93Zm80.875 37.465c-14.554 2.774-94.937 2.14-96.152 1.574-1.211-.566-1.32-2.394-1.352-3.59 8.715 2.837 93.868.645 98.602-1.859.254 1.387.316 3.606-1.149 3.875Zm-30.535-37.293c0-.535 3.461-.832 3.617-.847 2.059-.16 4.125-.16 6.184 0 1.148.125 2.734.28 2.61.77-.126.487-2.5.694-2.91.757-1.536.14-3.083.203-4.626.187-1.039-.03-4.984-.218-4.922-.867Zm20.215 5.246a153.43 153.43 0 0 1 9.879 23.399c.336 1.015.52 2.078.55 3.148-7.097 2.207-88.867 4.477-97.14 2.098-.394-.11-.504 0-.598-.664-.597-4.285 6.403-21.317 8.024-25.285 29.762-.993 78.969-2.52 79.238-2.696Zm-13.246-104.152a18.618 18.618 0 0 1-4.625-3.594c-.613-.93-.473-1.574 1.336-.691 1.133.52 2.722 1.449 3.793 2.094a7.576 7.576 0 0 0-.504 2.191Zm37.754 2.82c1.258-2.27 2.5-2.914 2.375-1.578a31.047 31.047 0 0 1-2.863 6.871 56.865 56.865 0 0 0-.329-3.672c.063-.218.375-.882.77-1.62Zm-6.688 13.707c.317.899.52 1.434.535 1.465.02.043.043.086.079.117a.353.353 0 0 0 .117.082.335.335 0 0 0 .277.004c.692-.265-.328-.914-1.965-10.414-.488-2.836-1.937-11.578.926-11.988 2.328-.348 3.59 5.434 4.027 7.719a101.927 101.927 0 0 1 1.575 13.328c0 .09.03.172.086.238a.348.348 0 0 0 .218.125.35.35 0 0 0 .25-.05.351.351 0 0 0 .153-.2c.007-.09.007-.18 0-.27a19.99 19.99 0 0 1 4.218.583 1.73 1.73 0 0 1-.648.472c-3.3 1.703-13.29 1.371-16.734 1.309.468-.945.8-1.672 1.164-2.535 1.879.308 3.797.312 5.675.015Zm-12.27-3.453c.364-3.148 1.165-8.176 4.345-7.578 3.175.602 2.375 5.215 1.683 8.305-.43 1.77-.953 3.52-1.574 5.23h-4.719c-.039-1.988.035-3.976.219-5.957Zm-1.995-7.402a.756.756 0 0 1 .254-.16.76.76 0 0 1 .296-.04.69.69 0 0 1 .29.087c.09.046.167.113.23.191.25.25.477.523.676.82a12.475 12.475 0 0 0-.93 3.149c-.816-1.133-1.871-3.196-.816-4.047Zm-4.957-9.578c2.047.644.441 6.031-.926 7.672a23.822 23.822 0 0 0-1.684-4.918c.457-1.383 1.227-3.196 2.61-2.77Zm-3.868 20.605c.77.977 1.274 1.574 1.274 1.574a.352.352 0 0 0 .23.106.39.39 0 0 0 .246-.074.359.359 0 0 0 .133-.22.385.385 0 0 0-.043-.253s-2.785-3.969-5.082-8.082c-1.73-3.148-3.383-6.3-2.926-9.781.364-2.742 1.81-3.907 4.247-2.317 3.523 2.27 5.128 16.258 5.632 20.48.004.11.043.22.114.305a.53.53 0 0 0 .265.184c.422 0 .36-.457.344-.676-.016-.222 0-1.324 0-1.433 1.672.21 3.363.21 5.035 0 .094 1.148.203 2.047.281 2.52-5.582 0-12.332.378-16.957-1.434a50.82 50.82 0 0 1 7.207-.899Zm-7.535 2.317c2.301.894 4.723 1.425 7.188 1.574 2.785.254 21.742.285 23.894.176a28.922 28.922 0 0 0 9.52-1.782c.293 1.934.18 3.91-.324 5.797a14.228 14.228 0 0 1-2.618 5.184c-3.824 4.488-28.003 5.515-33.808 1.418-3.82-2.633-4.516-7.895-3.852-12.383Zm-12.68 46.254c.329 1.058-149.667 1.105-149.824 1.09-6.293 0-4.718 0-6.828-.52-.566-.13-.676-.13-.785-.68a11.703 11.703 0 0 1-.11-2.613.34.34 0 0 0 .15.148c.066.028.14.04.21.024 0 0 157.14-2.14 158.16-2.176.426 1.844.489 3.562-.972 4.726Zm44.25-95.614s.094-.156.126-.11c.03.048-.125.095-.204.11Zm-78.23-39.734c0-1.024.41-4.899 1.32-5.371 2.079-1.04 68.07-1.922 77.082.898 1.575 3.309 1.07 40.473-.25 44.207-7.738 1.211-46.69 1.117-56.82 2.156.613-12.398.88-22.843.375-24.875a1.813 1.813 0 0 0-1.18-1.117c-3.445-1.5-16.406-1.922-20.18-2.05a85.391 85.391 0 0 1-.347-13.848ZM57.422 78.762c-.234-3.309-1.399-20.008 1.746-21.176 1.574-.55 7.11-1.102 15.148-1.574 15.403-.961 39.676-1.735 61.762-1.89 4.906 0 46.375-.364 50.434 2.425 1.195 5.45-2.625 66.012-3.477 71.855-37.172 1.215-81.219 3.043-118.707 2.13-.629-3.61-5.441-31.446-6.906-51.77Zm6.418 52.824a.512.512 0 0 0 0-.11c26.508.82 109.457-1.906 119.558-1.968 1.118 2.597 16.801 37.449 17.461 39.387-.172 0-157.988 2.14-158.191 2.3 1.98-6.648 18.371-34.757 21.172-39.61Zm43.246 105.559c-1.164 2.265-36.434 18.054-43.688 20.242.141-.727.196-1.465.16-2.203 10.712-3.72 33.962-13.536 44.391-20.485-.199.852-.488 1.676-.863 2.461Zm1.086-3.485c-3.149 1.86-6.152 3.153-44.629 20.672 0-.715-.094-1.426-.285-2.113 5.035-2.364 39.172-15.614 45.258-20.89-.079.679-.188 1.5-.344 2.347ZM27.14 201.332a5.844 5.844 0 0 1 1.343 3.16 5.793 5.793 0 0 1-.683 3.363c-.254.395.347.805.597.395a6.1 6.1 0 0 0 1.59-3.777 6.122 6.122 0 0 0-1.164-3.93 1113.77 1113.77 0 0 1 17.223-7.719 7.88 7.88 0 0 1 .808 3.367 7.913 7.913 0 0 1-.71 3.391c-.192.508.375.695.644.363a7.506 7.506 0 0 0 1.555-3.816 7.498 7.498 0 0 0-.707-4.059c1.699-.96 5.664-3.152 7.597-3.152 2.422 0 51.582 40.047 52.496 40.96-4.105 4.24-42.222 19.349-45.43 20.892-6.765-1.575-48.042-37.133-51.913-40.79 2.406-2 14.047-7.386 16.754-8.648Zm-17.95 9.375c4.907 4.805 45.856 40.598 52.715 41.734a7.256 7.256 0 0 0-.187 1.813c-11.016-5.39-42.477-32.676-52.89-41.453.046 0 .284-1.543.41-2.094Zm.235 5.402a3.87 3.87 0 0 1-.63-2.285c10.29 10.399 39.329 35.969 52.903 41.297-.027.84.059 1.684.254 2.504-8.07-1.813-51.457-40.223-52.48-41.516Zm286.308 40.051c-10.164 20.195-285.93 14.918-290.398 7.043a31.38 31.38 0 0 1-3.774-10.668 6.882 6.882 0 0 0 2.895 3.153c23.156 13.5 253.54 9.972 283.613-.852 6.371-2.3 9.582-7.262 10.305-14.18a31.648 31.648 0 0 1-2.672 15.504Zm0 0"/></g><path fill="#fff" d="M60.176 149.012c111.234 1.574 121.851.613 124.969.125.738-.11 1.21-.364 1.18-1.227 0-2.285-5.352-12.762-6.766-13.488-.63-.332-113.266 1.262-113.657 1.387a.491.491 0 0 0-.203.097.515.515 0 0 0-.144.172c-1.07 1.746-6.293 10.379-6.055 12.336a.69.69 0 0 0 .23.418.696.696 0 0 0 .446.18Zm6.183-12.117c1.13-.141 111.942-1.243 112.618-1.18a42.432 42.432 0 0 1 3.144 5.308c-2.578 0-117.887.614-118.484.63.691-1.387 1.605-2.962 2.722-4.758Zm-3.148 5.515c.613 0 117.293-.597 119.289-.644a29.418 29.418 0 0 1 2.438 6.078c-5.598.898-56.63.457-124.196 0a30.7 30.7 0 0 1 2.438-5.496Zm83.785 11.957a3.906 3.906 0 0 0-1.473-1.687 3.87 3.87 0 0 0-2.16-.582c-3.996 0-37.55-.93-40.574.3a25.322 25.322 0 0 0-4.402 7.88c-.094.69.25 1.007.675 1.054 9.438 1.023 40.727 2 48.844.504 1.008-.191 1.133-1.262.93-2.285a38.013 38.013 0 0 0-1.84-5.184Zm-47.492 5.91a31.761 31.761 0 0 1 3.648-7.234c2.391-.785 33.493.852 40.258.836.403-.016.8.09 1.145.297.347.207.625.508.804.87a26.403 26.403 0 0 1 1.778 5.102c-7.977 1.247-41.844.536-47.633.13Zm156.746-3.894c-2.219-3.055-13.344-2.914-17.07-2.805-3.145 0-14.582.524-14.582 3.61a1.582 1.582 0 0 0 .722 1.246c.301.234-1.761 21 1.07 32.136.93 3.688 2.126 5.516 5.633 7.043 6.73 2.93 17.903 2.285 22.383-3.968.899-1.829.711-7.153.79-8.778 6.968 1.387 12.679-1.449 14.156-8.96.93-4.84-.266-8.005-2.329-9.927a10.958 10.958 0 0 0-4.742-2.253 11.04 11.04 0 0 0-5.246.203.382.382 0 0 1-.187.02.398.398 0 0 1-.332-.4c0-.831.296-6.488-.266-7.167Zm-29.89.332c4.245-2.488 21.55-2.68 27.136-.14.188.093.895.456.895.613 0 .156-.723.535-.895.613-4.219 1.906-19.273 2.773-27.184-.125-.55-.301 0-.899 0-.961Zm31.117 8.824a9.147 9.147 0 0 1 4.394-.172 9.177 9.177 0 0 1 3.973 1.887c1.699 1.578 2.547 4.285 1.761 8.305a8.967 8.967 0 0 1-1.41 3.91 8.915 8.915 0 0 1-3.027 2.847 12.088 12.088 0 0 1-8.211.63 1.085 1.085 0 0 0-.418-.06c-.14.009-.281.048-.41.114a1.044 1.044 0 0 0-.523.64c-.426 1.196.171 6.036-.692 9.09-3.98 5.403-14.16 5.891-20.184 3.356-3.05-1.309-3.902-2.664-4.718-5.922-2.11-7.738-2.235-23.492-1.762-31.242 4.953 2.348 22.117 3.023 28.867-.442 0 4.883-.597 5.704.63 6.696.233.18.51.304.8.367.289.062.59.059.883-.004Zm-152.813 33.383a88.8 88.8 0 0 0-13.277-9.328 27.91 27.91 0 0 0-5.742-2.567c-1.684-.441-2.391.426-2.047 1.575a19.294 19.294 0 0 0 2.785 4.585 72.184 72.184 0 0 0 12.398 12.305c7.016 5.875 16.106 12.996 22.746 18.055a3.1 3.1 0 0 0 1.13.52c.406.097.831.113 1.245.042a3.11 3.11 0 0 0 2.059-1.304c1.164-1.274 1.89-3.512.582-4.727-1.508-1.351-10.742-10.066-21.879-19.156Zm-15.07-3.496-2.156-3.485a3.983 3.983 0 0 0 1.855-1.574l3.414 1.387a3.876 3.876 0 0 0-3.113 3.672Zm4.828 4.015a25.742 25.742 0 0 1-3.145-3.148c.11-1.91.707-2.758 2.61-2.82a19.126 19.126 0 0 1 3.57 2.218 3.971 3.971 0 0 0-2.148 1.364 3.997 3.997 0 0 0-.887 2.386Zm26.898 22.922c-1.746-1.465-24.965-21.187-26.394-22.449a4.394 4.394 0 0 1 3.351-3.687c5.426 4.035 13.23 10.714 26.836 22.058a3.64 3.64 0 0 0-1.55.262 3.58 3.58 0 0 0-1.293.894 3.609 3.609 0 0 0-.797 1.356 3.68 3.68 0 0 0-.153 1.566Zm124.657 17.457c1.964 1.34 3.335.727 4.609-1.132 3.144-4.477 14.156-24.278 14.156-24.438 0-.156.125.145-.394-6.223a1.27 1.27 0 0 0-.25-.66 1.32 1.32 0 0 0-.551-.441 1.33 1.33 0 0 0-1.352.172l-5.382 3.925s-11.938 24.72-12.063 24.938a3.523 3.523 0 0 0 1.227 3.86Zm16.66-30.8c.093 1.152.218 2.68.312 3.734a19.165 19.165 0 0 0-3.648-1.309Zm-4.5 3.5a10.454 10.454 0 0 0 4.593 1.828c-.238.406-12.253 22.37-12.382 22.59a3.76 3.76 0 0 0-1.707-1.715 3.767 3.767 0 0 0-2.399-.317c1.227-2.285 11.453-21.601 11.895-22.386Zm0 0"/><path fill="#fff" d="M250.898 181.277a2.135 2.135 0 0 0-.632-.593 2.158 2.158 0 0 0-.813-.305 22.707 22.707 0 0 0-2.832-.566c.535 3.75.848 7.875.832 8.238a.917.917 0 0 1-.324.613.899.899 0 0 1-.664.207.94.94 0 0 1-.617-.336.95.95 0 0 1-.203-.672c0-.27-.094-1.355-.172-8.21-3.149-.391-18.297-1.575-17.7 1.449 0 .16-1.242 7.878 3.57 11.582 4.817 3.703 14.442 2.976 17.81-.79a8.302 8.302 0 0 0 1.824-4 18.467 18.467 0 0 0-.079-6.617Zm3.778-14.257c0 .707-.946 6.128-1.574 13.406l.753.156c2.77.59 5.653.273 8.23-.894a5.606 5.606 0 0 0 2.15-2.133 5.656 5.656 0 0 0 .73-2.942 7.526 7.526 0 0 0-3.027-6.675 7.493 7.493 0 0 0-7.262-.918Zm.707.535a7.127 7.127 0 0 1 5.68 1.574 6.594 6.594 0 0 1 1.69 2.488c.368.946.509 1.969.415 2.98-.14 4.048-4.293 4.821-8.273 4.41.187-2.866.347-6.16.488-11.452ZM103.12 153.043s.016.016 0 0Zm135.414-77.969a2.11 2.11 0 0 0 .153.82 2.114 2.114 0 0 0 1.14 1.168c.258.11.535.168.817.172.425.008.847-.109 1.207-.343a2.14 2.14 0 0 0 .816-.957c.168-.395.219-.829.14-1.25a2.143 2.143 0 0 0-.578-1.118 2.14 2.14 0 0 0-1.101-.605 2.184 2.184 0 0 0-1.254.113 2.18 2.18 0 0 0-.973.797 2.16 2.16 0 0 0-.367 1.203ZM66.36 127.051c.36.707.832.785 1.13.566.3-.222 99.925-1.09 107.335-1.48 1.594.023 3.184-.18 4.719-.602 3.539-3.148 4.926-62.055 3.539-64.781-3.539-7.074-114.316-2.524-121.129-.457-5.426 1.637 1.902 61.726 4.406 66.754Zm-4.707-64.203c0-.282.348-1.387.614-1.465 7.535-2.27 116.945-6.004 119.922-.078.25 1.183.367 2.394.343 3.61.27 6.866 0 21.581-.707 34.769-.14 2.52-1.258 23.175-2.894 25.05-6.528 1.387-107.13 1.7-111.598 1.875-2.547-5.925-8.055-53.363-5.68-63.761Zm179.196-22.512a2.165 2.165 0 0 0 2.023-1.297c.168-.39.219-.828.145-1.246a2.193 2.193 0 0 0-.575-1.121 2.17 2.17 0 0 0-1.097-.606 2.134 2.134 0 0 0-1.25.11 2.15 2.15 0 0 0-1.356 1.984c-.004.281.043.563.149.824a2.108 2.108 0 0 0 1.14 1.18c.262.11.54.168.82.172Zm0 0"/><path fill="#fff" d="M92.441 102.55h18.688a8.159 8.159 0 0 0 5.758-2.41 8.2 8.2 0 0 0 2.375-5.78V79.171a8.279 8.279 0 0 0-2.375-5.8 8.257 8.257 0 0 0-5.758-2.458H92.44a8.183 8.183 0 0 0-3.16.621 8.167 8.167 0 0 0-2.68 1.79 8.233 8.233 0 0 0-1.785 2.683 8.216 8.216 0 0 0-.62 3.164v15.187a8.282 8.282 0 0 0 .636 3.145 8.26 8.26 0 0 0 1.793 2.66 8.192 8.192 0 0 0 5.816 2.387Zm-6.906-23.378a6.983 6.983 0 0 1 2.055-4.844 6.979 6.979 0 0 1 4.851-2.027h18.688a6.925 6.925 0 0 1 2.68.508 6.894 6.894 0 0 1 2.28 1.5 6.909 6.909 0 0 1 1.528 2.261c.356.848.54 1.758.543 2.68v15.11a7.021 7.021 0 0 1-4.351 6.456 7.009 7.009 0 0 1-2.68.52H92.44a6.936 6.936 0 0 1-4.898-2.055 6.954 6.954 0 0 1-2.008-4.922ZM142.97 113.8c.312.93 1.101.722 1.32.14.3-.836 2.047-6.836 2.266-7.879 1.21-.374-2.203.805 8.351-3.039a.593.593 0 0 0 .274-.214.613.613 0 0 0 .101-.329.626.626 0 0 0-.101-.332.585.585 0 0 0-.274-.21l-16.168-6.477a.65.65 0 0 0-.32-.059.612.612 0 0 0-.305.11.614.614 0 0 0-.21.246.591.591 0 0 0-.063.316s4.262 15.219 5.129 17.727Zm-3.508-16.653 13.621 5.372c-1.824.675-4.906 1.843-6.387 2.44-.66.255-.925.364-1.086.567-.156.207.395-1.023-1.918 6.114Zm37.125-46.195c.02.094.07.18.144.242.075.059.168.09.266.09.328 0 10.508.977 12.582.426 1.34-.363 1.574-2.727 1.7-4.113.16-2.094 0-7.23-.88-8.98-1.195-2.364-10.023-1.575-12.585-1.118a4.577 4.577 0 0 0-1.903.723c-.336.39-.527.875-.55 1.386a51.044 51.044 0 0 0 1.226 11.344Zm.457-11.516c2.484-.773 9.562-1.07 11.812 0 .77 2.047 1.18 9.09.254 10.731-1.464.375-10.398.375-11.894.39-.047-1.226-.77-7.859-.172-11.12Zm20.652 11.454a.452.452 0 0 0 .149.238c.074.059.168.09.261.094.333 0 10.508.976 12.586.425 1.336-.363 1.575-2.726 1.715-4.113.14-2.094 0-7.23-.898-8.98-1.196-2.38-10.02-1.575-12.586-1.117a4.81 4.81 0 0 0-1.902.722c-.325.39-.52.88-.551 1.387a51.276 51.276 0 0 0 1.226 11.344Zm.457-11.516c2.485-.79 9.567-1.074 11.817 0 .77 2.047 1.18 9.09.25 10.71-1.465.395-10.399.395-11.895.411-.047-1.226-.77-7.86-.172-11.121Zm21.633 12.207c.016.098.067.18.145.242a.402.402 0 0 0 .261.09c.332 0 10.508.977 12.586.426 1.336-.363 1.575-2.727 1.7-4.113.156-2.094 0-7.23-.883-8.98-1.196-2.36-10.02-1.575-12.582-1.118a4.73 4.73 0 0 0-1.907.726 2.291 2.291 0 0 0-.55 1.387 51.038 51.038 0 0 0 1.23 11.34Zm.453-11.516c2.489-.77 9.567-1.07 11.817 0 .77 2.051 1.18 9.09.25 10.73-1.461.38-10.399.38-11.89.395-.048-1.23-.774-7.863-.177-11.125ZM197.84 75.121c.11.317.36.348.406.332.348 0 10.508.977 12.586.426 1.336-.363 1.574-2.727 1.715-4.113.14-2.094 0-7.23-.879-8.965-1.215-2.38-10.04-1.574-12.586-1.133a4.735 4.735 0 0 0-1.922.723 2.41 2.41 0 0 0-.547 1.402 50.905 50.905 0 0 0 1.227 11.328Zm.469-11.516c2.488-.773 9.55-1.07 11.8 0 .77 2.047 1.18 9.09.25 10.727-1.46.379-10.382.379-11.875.395-.062-1.227-.789-7.86-.175-11.122Zm36.308-1.449c2.516-3.718 4.719-7.074 4.797-7.23.082-.16-1.066-1.578-1.746-.57-4.813 7.421-4.152 6.71-4.496 6.585-2.77-1.007-11.707-.66-13.106.649-.945.879-.582 4.078-.472 5.45-1.008-.567-1.778-.978-2.059-1.087-.726-.285-.68.426-.285.676l2.453 1.578c.2 2.07.52 4.125.961 6.16.016.094.066.18.14.242a.38.38 0 0 0 .27.086c.328 0 10.508.977 12.582.426 2.707-.754 1.875-10.695.961-12.965Zm-13.496.645c3.7-.844 7.535-.914 11.262-.203l-5.457 8.617c-.551-.317-3.492-2.047-5.946-3.434a26.699 26.699 0 0 1 .141-4.933Zm12.066 10.715c-1.48.394-10.398.394-11.894.41 0-.633-.234-2.696-.344-4.98l5.977 3.718a.818.818 0 0 0 .441-.078.811.811 0 0 0 .328-.3c.504-.645 3.035-4.333 5.618-8.13.488 2.836.644 8.004-.094 9.36Zm-62.546-33.7a2.153 2.153 0 0 0 2.148-2.555 2.16 2.16 0 0 0-1.676-1.718 2.174 2.174 0 0 0-2.226.898 2.193 2.193 0 0 0-.371 1.2 2.179 2.179 0 0 0 2.125 2.175Zm0 0"/></svg>