<svg xmlns="http://www.w3.org/2000/svg" width="400" height="400" version="1.0" viewBox="0 0 300 300"><defs><clipPath id="a"><path d="M0 30h300v250.5H0Zm0 0"/></clipPath></defs><path d="M200.184 174.223h-.094ZM68.828 220.109c.598.098 3.867.254 3.867-.312 0-.332-.597-.317-.597-.317.082-2.515 3.273-3.144 5.554-1.824.63.364 1.211.801 1.73 1.305-3.226.176-7.503 2.375-7.218 5.57.16.832.512 1.617 1.02 2.297a5.622 5.622 0 0 0 1.921 1.621 8.954 8.954 0 0 0 3.157 1.504 8.937 8.937 0 0 0 3.496.164 9.225 9.225 0 0 0 5.16-3.492c2.852.09 5.64-.844 7.867-2.629a.85.85 0 0 0 .227-.273.8.8 0 0 0 .101-.34c0-.551 0-.52-3.144-4.012a.86.86 0 0 0-.719-.273.862.862 0 0 0-.637.43c-.05.07-.101.144-.14.222-.25.469-.653.836-1.145 1.043a2.303 2.303 0 0 1-1.543.09c-1.574-.457-3.605-4.625-7.3-7.113-3.227-2.168-7.551-2.813-10.602-.235a8.4 8.4 0 0 0-2.676 4.309 2.15 2.15 0 0 0 .094 1.574c.414.402.953.644 1.527.691Zm5.914 5.836a2.12 2.12 0 0 1-.84-1.285 2.11 2.11 0 0 1 .258-1.512c.7-.964 1.668-1.699 2.785-2.109a25.279 25.279 0 0 0-2.203 4.828Zm14.82-2.484c.376-1.133 0-.738.63-1.024a4.493 4.493 0 0 0 1.273-.94l1.43 1.698a11.763 11.763 0 0 1-3.868 1.57c.157-.406.407-1.035.535-1.382Zm-5.695-4.012c1.492 1.871 2.738 3.54 5.016 3.352a12.547 12.547 0 0 0-.785 2.11c-1.149.077-1.305-.192-1.762 0-.898.343-2.375 3.57-5.961 3.554a5.14 5.14 0 0 0 .422-1.574 6.433 6.433 0 0 0 2.77-1.305c.343-.3.57-.715.628-1.164 0-.55-.187-1.258-1.351-2.188.433-.918.777-1.879 1.023-2.863Zm-5.285 5.946c-1.387-.739.973-2.043 2.5-1.997.352.004.691.106.988.293.297.192.532.461.68.778-.21.336-.488.629-.816.855a2.898 2.898 0 0 1-2.27.465 2.888 2.888 0 0 1-1.082-.473Zm1.856-9.625a20.078 20.078 0 0 1 2.894 3.035 12.1 12.1 0 0 0-1.133 2.879 5.046 5.046 0 0 0-2.035-.153c-.684.09-1.34.317-1.93.672-2.879 1.574-2.203 5.02 1.793 4.625-.234.453-.41.934-.52 1.43a9.822 9.822 0 0 1-4.339-2.059 22.18 22.18 0 0 0 2.578-5.586 5.013 5.013 0 0 1 1.945-.457 4.996 4.996 0 0 1 1.973.332l.332-1.242-.348-.156c-.738-.504-1.07-.899-1.918-1.574.313-.575.551-1.188.707-1.825Zm-6.106-2.52c1.969.04 3.875.7 5.445 1.89a9.637 9.637 0 0 0-.629 1.997 5.78 5.78 0 0 0-5.414-.926c.332-.957.536-1.95.598-2.961Zm-3.602 1.23a5.778 5.778 0 0 1 3.02-1.195 10.154 10.154 0 0 0-.895 3.348 3.036 3.036 0 0 0-1.464 2.738 8.025 8.025 0 0 1-3.239-.488 6.658 6.658 0 0 1 2.547-4.403Zm-23.503-2.628c-2.829-1.227-9.122 2.406-10.27 4.359-.168.43-.168.906 0 1.336.988 3.758 10.238 17.035 11.953 19.098.3.378.711-.141.442-.583-.817-1.351-.723 1.368 3.46-12.175.387-.153.75-.364 1.07-.63a.883.883 0 0 0 0-1.18 2.941 2.941 0 0 0-.487-.472l.992-3.664 3.933 2.168a29.973 29.973 0 0 0-1.73 6.168 16.112 16.112 0 0 0-4.406 2.422c-.93 1.024.535 2.91 1.449 4.043.91 1.133 1.68 1.903 1.855 2.078.172.172.723 0 .676-.285a2.702 2.702 0 0 0-.394-.629 26.794 26.794 0 0 1-2.188-4.183 22.015 22.015 0 0 1 3.855-1.825c.489-.175 2-.644 2.407-.394a40.464 40.464 0 0 0 6.293 2.66.37.37 0 0 0 .504-.453.364.364 0 0 0-.188-.207l-2.723-1.652c.579-1.317.95-2.711 1.102-4.137l6.715 3.633c.41.234.726-.41.426-.582-.297-.172-20.688-13.137-24.746-14.914Zm-2.391 1.668a2.941 2.941 0 0 1 1.684 0c.363.156 1.242.628 2.437 1.289a15.581 15.581 0 0 0-.816 3.445c-1.055-.598-1.684-1.055-2.516-.91a3.012 3.012 0 0 0-1.242.597c.156-1.23.297-2.171.453-4.421Zm-6.293 3.46a14.198 14.198 0 0 1 5.773-3.335 85.633 85.633 0 0 0-1.761 11.265 45.964 45.964 0 0 1-3.992-7.945Zm7.145 13.23a256.688 256.688 0 0 1-2.708-4.577c.536-2.25.708-3.29 1.04-5.41a28.276 28.276 0 0 0 2.972 4.214 27.804 27.804 0 0 0-1.289 5.774Zm2.753 4.532c-.566-.898-1.293-2.11-2.234-3.668.598-1.972.992-4 1.18-6.054.343.832 3.43-.364 4.261-.676-.613 1.933-2.753 8.668-3.191 10.398Zm-.472-10.21a44.319 44.319 0 0 1-2.582-5.239l.488-.27c.223.13 5.602 3.305 5.992 3.559a21.75 21.75 0 0 1-3.883 1.95Zm4.718-3.462c-1.18-.785-2.785-1.746-4.011-2.453.418-1.113.695-2.277.816-3.46l4.469 2.515c-.078.598-.613 1.824-1.18 3.398Zm10.415 6.293-2.422-1.465a4.596 4.596 0 0 0-3.352 0 32.106 32.106 0 0 0 1.32-5.644l5.696 3.144a14.13 14.13 0 0 0-1.149 4.043Zm0 0"/><g clip-path="url(#a)"><path d="M298.266 232.965c-2.547-23.723-24.508-60.203-37.63-80.137 7.325.586 14.68.77 22.024.55 2.094 0 7.567-.378 8.621-.581.614-.125.707-.707-.219-.738-.93-.032-7.535-.348-8.433-.364h-16c-2.453.094-6.29.317-6.512.317-4.719-7.192-8.008-11.688-8.039-11.703a.326.326 0 0 0-.129-.086.321.321 0 0 0-.148-.024.405.405 0 0 0-.149.043.315.315 0 0 0-.117.098.344.344 0 0 0-.066.137.4.4 0 0 0-.004.152.38.38 0 0 0 .062.14.285.285 0 0 0 .114.102c.722.582 32.515 47.04 42.234 79.035 3.855 12.696 6.137 28.63-6.29 33.035-29.51 10.54-260.651 13.97-282.5 1.575-3.038-1.715-3.745-5.286-3.147-10.102.93-6.684 4.53-15.73 8.874-25.86 4.891 4.72 45.477 41.985 52.051 40.587 6.578-1.403 43.563-18.579 45.086-21.868a20.497 20.497 0 0 0 1.387-7.156c.184-.258.273-.574.242-.89a1.286 1.286 0 0 0-.402-.825c-2.438-2.425-50.809-40.777-53.926-40.668-2.168.098-6.102 2.328-7.973 3.43a5.548 5.548 0 0 0-2.586-2.219 5.554 5.554 0 0 0-3.394-.297 7.64 7.64 0 0 0-2.8 1.957 7.59 7.59 0 0 0-1.665 2.985c.016.082.063.16.129.215a.375.375 0 0 0 .238.082.375.375 0 0 0 .371-.297 7.58 7.58 0 0 1 4.215-3.367 3.946 3.946 0 0 1 2.172.28c.684.302 1.266.786 1.684 1.403l-17.493 7.473a7.73 7.73 0 0 0-3.367-2.031c-2.988-.786-5.004 1.18-6.199 4.058a.378.378 0 0 0 .176.446c.074.039.164.054.25.039a.361.361 0 0 0 .219-.121c2.015-2.91 4.343-3.903 7.125-1.575-3.364 1.496-8.07 3.618-11.372 5.254.235-.379 34.184-61.855 34.184-62.012 1.492-2.769 4.5-7.722 7.598-8.37a20.582 20.582 0 0 1 4.261-.47c-2.183 3.618-19.93 33.036-19.96 37.188 0 4.719.816 3.98 3.335 4.719 2.516.738 143.356-.125 143.61-.125 2.437 0 11.969-.316 12.851-.961 2.739-2.012 2.125-5.02.926-8.18-.281-.754-1.715-3.886-3.633-8.07 8.258-2.484 14.473.676 15.04 14.16.566 11.656-4.028 15.211-12.82 14.707-7.063-.41-11.942-2.484-13.481.266-1.73 3.07 3.05 9.96 5.129 12.824-.301 0-13.47-.27-16.786-.41-4.68-.18-9.363-.125-14.035.172-3.215.07-6.414.508-9.531 1.304-1.18.582-2.707 3.621-3.352 4.895-1.273 2.5-7.078 18.2-8.683 22.73-.946 2.614-4.137 11.266-1.996 12.79-.078 1.683.187 3.933 1.668 4.718 1.476.79 21.8 1.356 23.36 1.387 2.753.078 30.581.437 48.339-.348 17.762-.785 25.516-2.484 25.062-2.437a2.547 2.547 0 0 0 1.778-1.98 6.61 6.61 0 0 0-.223-3.497c1.984-3.851-13.008-35.847-17.16-38.097a1.717 1.717 0 0 0-.805-.223c-.832 0-19.488-.785-26.742-1.02-1.574-2.218-6.684-10.574-4.719-12.351 2.989-2.61 27.953 10.476 26.618-15.574-.692-11.782-6.122-18.688-17.133-14.692a8687.852 8687.852 0 0 0-11.168-23.863c8.347.5 16.726.312 25.043-.55a10.675 10.675 0 0 0 4.058 7.534c6.293 4.719 31.336 4.012 35.883-1.761a14.926 14.926 0 0 0 2.582-5.856c.426-2.117.387-4.3-.11-6.398.419-.27.743-.66.927-1.118.253-.488 0-1.101-1.086-1.324a23.946 23.946 0 0 0-4.23-.25c0-1.289.077-3.695 0-6.433.14-.094 1.163-1.32 1.273-1.465a16.712 16.712 0 0 0 2.925-4.938c.52-1.465.723-3.148-.644-3.965-2.11-1.148-3.586.961-4.293 3.32-.66-3.636-2.188-8.968-5.836-8.433-6.2.945-1.922 15.969.094 21.914-1.77-.25-3.567-.25-5.332 0 1.964-4.941 2.972-11.328-2.078-12.285a4.01 4.01 0 0 0-4.122 1.57 2.187 2.187 0 0 0-3.555-1.035c-2.312 1.664-.991 5.489 1.7 6.746a27.328 27.328 0 0 0 0 4.864 17.682 17.682 0 0 0-5.035.109 67.786 67.786 0 0 0-1.258-11.438 8.486 8.486 0 0 0 3.492-5.851c.219-2.094-.52-3.84-2.265-4.293-2.188-.566-3.477.957-3.856 3.144-1.934-2.675-5.726-3.632-7.566-.566-5.899-6.137-8.746-2.707-7.25 0 1.117 2.078 4.027 3.242 6.293 3.887 0 3.523 1.57 6.496 3.523 9.531 1.305 2.047 2.766 4.012 3.899 5.461a38.205 38.205 0 0 0-7.313.469c-1.48.394-1.715 1.465-.348 2.234a19.371 19.371 0 0 0-.472 5.633c-8.45-.45-16.922-.25-25.34.598-.535-1.149-2.125-4.5-2.313-4.891-.191-.395 1.32-4.957 3.442-47.367 9.754-.82 53.613.156 57.64-1.403a1.37 1.37 0 0 0 .899-1.066c1.336-4.39 2.246-42.113 0-45.621-.551-.867-2.52-1.133-3.606-1.29-14.015-2.046-72.504-1.163-75.507.423-3.004 1.59-1.73 17.101-1.165 20.183-30.378-.976-100.523.93-107.128 3.399-1.575.566-2.157 2.722-2.47 4.34-2.612 13.484 4.72 56.87 7.173 70.273-.157 0 0 0-1.918 2.988a19.512 19.512 0 0 0-4.864.25c-3.586.551-6.89 5.508-8.714 8.59-.079.16-4.72 7.867-5.41 9.125-3.95-.613-22.31-.379-24.637-.25-2.328.125-4.719.297-6.825.453-.378 0-.41.727 0 .743 4.403.265 6.024.359 9.438.406 8.352.129 20.672.472 21.063.426-.817 1.433-12.93 22.984-14.551 26.035-7.047 13.215-12.586 25.312-12.914 26.336a23.968 23.968 0 0 0-5.114 3.144 15.348 15.348 0 0 0-.898 4.309c-.078 2.535.836 3.148 2.234 4.562a162.587 162.587 0 0 0-9.234 24.95 24.974 24.974 0 0 0-.094 10.527 32.823 32.823 0 0 0 3.555 9.91 5.187 5.187 0 0 0 2.848 1.477c4.136 1.164 16.96 2.66 21.253 3.148a24.2 24.2 0 0 0-.27 5.82c.009 2 .298 3.992.868 5.914a.35.35 0 0 0 .043.137.48.48 0 0 0 .09.11c.039.027.082.05.125.062.047.016.098.02.144.016a.482.482 0 0 0 .133-.043.318.318 0 0 0 .11-.094.298.298 0 0 0 .066-.125.345.345 0 0 0 .012-.14c.254-1.962.32-3.942.207-5.915a26.15 26.15 0 0 0-.649-5.648c2.172.187 4.266.343 6.09.41-.289 1.836-.37 3.7-.234 5.55.004 2.005.297 3.997.863 5.915 0 .097.04.187.106.258a.364.364 0 0 0 .512 0c.07-.07.105-.16.105-.258.261-1.957.336-3.938.222-5.914a25.39 25.39 0 0 0-.629-5.457c3.508.078 55.137 4.718 144.301 2.957 23.895-.473 52.621-1.575 76.282-4.168a24.786 24.786 0 0 0-.27 5.742c.008 1.996.305 3.984.883 5.898a.37.37 0 0 0 0 .16c.012.051.039.102.07.141a.388.388 0 0 0 .125.102.413.413 0 0 0 .313 0 .32.32 0 0 0 .125-.102.32.32 0 0 0 .07-.14.32.32 0 0 0 .004-.16 29.08 29.08 0 0 0 .219-5.915 26.83 26.83 0 0 0-.676-5.773c1.746-.192 5.789-.695 6.137-.742a24.103 24.103 0 0 0-.254 5.71c0 2.004.293 3.997.867 5.915a.361.361 0 0 0 .398.324.368.368 0 0 0 .246-.133.373.373 0 0 0 .078-.27c.258-1.953.329-3.93.204-5.898a25.744 25.744 0 0 0-.676-5.758c7.094-.96 28.789-3.886 31.746-9.941 3.492-6.906 3.21-15.89 1.762-23.375Zm-143.153-25.328c.172-.426 5.442-1.575 11.2 0a.37.37 0 0 1 .16 0c.054.015.101.039.144.074.04.031.074.074.098.125a.348.348 0 0 1 0 .309.349.349 0 0 1-.242.195.317.317 0 0 1-.16.004 29.026 29.026 0 0 1-8.684.219c-1.352-.22-3.066-.235-2.563-.926Zm80.875 37.406c-14.554 2.77-94.937 2.14-96.152 1.574-1.211-.566-1.32-2.39-1.352-3.586 8.715 2.832 93.868.645 98.602-1.855.254 1.383.316 3.601-1.149 3.867Zm-30.535-37.234c0-.536 3.461-.832 3.617-.848 2.059-.16 4.125-.16 6.184 0 1.148.125 2.734.281 2.61.77-.126.488-2.5.69-2.91.753a44.575 44.575 0 0 1-4.626.192c-1.039-.031-4.984-.223-4.922-.867Zm20.215 5.238a152.997 152.997 0 0 1 9.879 23.36c.336 1.019.52 2.077.55 3.148-7.097 2.203-88.867 4.468-97.14 2.093-.394-.113-.504 0-.598-.664-.597-4.277 6.403-21.28 8.024-25.246 29.762-.992 78.969-2.52 79.238-2.691ZM212.422 109.05a18.603 18.603 0 0 1-4.625-3.59c-.613-.926-.473-1.57 1.336-.691 1.133.52 2.722 1.449 3.793 2.093a7.522 7.522 0 0 0-.504 2.188Zm37.754 2.812c1.258-2.265 2.5-2.91 2.375-1.57a31.035 31.035 0 0 1-2.863 6.86 56.707 56.707 0 0 0-.329-3.669c.063-.218.375-.879.77-1.62Zm-6.688 13.688c.317.898.52 1.43.535 1.465a.385.385 0 0 0 .196.199.335.335 0 0 0 .277.004c.692-.27-.328-.914-1.965-10.399-.488-2.832-1.937-11.562.926-11.972 2.328-.344 3.59 5.43 4.027 7.71.817 4.395 1.344 8.84 1.575 13.31 0 .085.03.167.086.237.054.063.132.11.218.122a.35.35 0 0 0 .25-.051.351.351 0 0 0 .153-.2c.007-.09.007-.18 0-.269a19.99 19.99 0 0 1 4.218.582 1.73 1.73 0 0 1-.648.473c-3.3 1.699-13.29 1.367-16.734 1.304.468-.941.8-1.668 1.164-2.53 1.879.308 3.797.316 5.675.015Zm-12.27-3.446c.364-3.144 1.165-8.164 4.345-7.566 3.175.598 2.375 5.207 1.683 8.29a49.308 49.308 0 0 1-1.574 5.222h-4.719c-.039-1.985.035-3.969.219-5.946Zm-1.995-7.394a.745.745 0 0 1 .254-.156.746.746 0 0 1 .586.043c.09.047.167.113.23.191.25.254.477.527.676.82a12.447 12.447 0 0 0-.93 3.145c-.816-1.133-1.871-3.192-.816-4.043Zm-4.957-9.563c2.047.645.441 6.024-.926 7.66a23.564 23.564 0 0 0-1.684-4.906c.457-1.386 1.227-3.195 2.61-2.77Zm-3.868 20.575c.77.976 1.274 1.574 1.274 1.574a.371.371 0 0 0 .23.105.371.371 0 0 0 .38-.293.385.385 0 0 0-.044-.254s-2.785-3.964-5.082-8.07c-1.73-3.144-3.383-6.293-2.926-9.77.364-2.734 1.81-3.898 4.247-2.312 3.523 2.266 5.128 16.238 5.632 20.453.004.11.043.215.114.305.066.086.16.148.265.184.422 0 .36-.457.344-.68-.016-.219 0-1.32 0-1.43 1.672.211 3.363.211 5.035 0a34.18 34.18 0 0 0 .281 2.516c-5.582 0-12.332.379-16.957-1.43a50.82 50.82 0 0 1 7.207-.898Zm-7.535 2.312c2.301.895 4.723 1.422 7.188 1.574 2.785.25 21.742.286 23.894.172 3.25-.05 6.47-.652 9.52-1.777a14.164 14.164 0 0 1-2.941 10.965c-3.825 4.484-28.004 5.508-33.81 1.418-3.82-2.63-4.515-7.883-3.85-12.367Zm-12.68 46.188c.329 1.054-149.667 1.101-149.824 1.086-6.293 0-4.718 0-6.828-.52-.566-.125-.676-.125-.785-.676a11.703 11.703 0 0 1-.11-2.613.33.33 0 0 0 .36.176s157.14-2.14 158.16-2.172c.426 1.84.489 3.555-.972 4.719Zm44.25-95.473s.094-.156.126-.11c.03.047-.125.094-.204.11Zm-78.23-39.672c0-1.023.41-4.894 1.32-5.367 2.079-1.035 68.07-1.918 77.082.898 1.575 3.305 1.07 40.414-.25 44.141-7.738 1.21-46.69 1.117-56.82 2.156.613-12.379.88-22.808.375-24.84a1.77 1.77 0 0 0-.457-.695 1.776 1.776 0 0 0-.723-.422c-3.445-1.496-16.406-1.918-20.18-2.043a85.162 85.162 0 0 1-.347-13.828ZM57.422 78.688c-.234-3.305-1.399-19.977 1.746-21.141 1.574-.55 7.11-1.102 15.148-1.574 15.403-.961 39.676-1.73 61.762-1.887 4.906 0 46.375-.363 50.434 2.422 1.195 5.441-2.625 65.914-3.477 71.75-37.172 1.21-81.219 3.035-118.707 2.12-.629-3.6-5.441-31.398-6.906-51.69Zm6.418 52.746a.512.512 0 0 0 0-.11c26.508.817 109.457-1.902 119.558-1.965 1.118 2.594 16.801 37.391 17.461 39.328-.172 0-157.988 2.137-158.191 2.293 1.98-6.636 18.371-34.699 21.172-39.546Zm43.246 105.398c-1.164 2.266-36.434 18.027-43.688 20.215.141-.727.196-1.465.16-2.203 10.712-3.711 33.962-13.512 44.391-20.45-.199.848-.488 1.668-.863 2.454Zm1.086-3.477c-3.149 1.856-6.152 3.149-44.629 20.641 0-.715-.094-1.422-.285-2.11 5.035-2.359 39.172-15.59 45.258-20.859a35.617 35.617 0 0 1-.344 2.344Zm-81.031-32.28a5.832 5.832 0 0 1 1.343 3.155 5.78 5.78 0 0 1-.683 3.36c-.254.39.347.8.597.39a6.079 6.079 0 0 0 1.59-3.77 6.1 6.1 0 0 0-1.164-3.92 1075.665 1075.665 0 0 1 17.223-7.708 7.878 7.878 0 0 1 .098 6.746c-.192.504.375.695.644.363a7.493 7.493 0 0 0 1.555-3.812 7.49 7.49 0 0 0-.707-4.055c1.699-.957 5.664-3.144 7.597-3.144 2.422 0 51.582 39.988 52.496 40.902-4.105 4.23-42.222 19.316-45.43 20.86-6.765-1.575-48.042-37.079-51.913-40.731 2.406-1.996 14.047-7.375 16.754-8.637Zm-17.95 9.363c4.907 4.796 45.856 40.539 52.715 41.671-.136.59-.203 1.2-.187 1.809-11.016-5.383-42.477-32.629-52.89-41.39.046 0 .284-1.54.41-2.09Zm.235 5.394a3.866 3.866 0 0 1-.63-2.281c10.29 10.383 39.329 35.914 52.903 41.23-.027.84.059 1.684.254 2.504-8.07-1.812-51.457-40.164-52.48-41.453Zm286.308 39.988C285.57 275.988 9.804 270.72 5.336 262.852a31.28 31.28 0 0 1-3.774-10.649 6.864 6.864 0 0 0 2.895 3.145c23.156 13.48 253.54 9.957 283.613-.848 6.371-2.297 9.582-7.254 10.305-14.16a31.557 31.557 0 0 1-2.672 15.48Zm0 0"/></g><path d="M60.176 148.832c111.234 1.574 121.851.613 124.969.125.738-.11 1.21-.36 1.18-1.227 0-2.28-5.352-12.742-6.766-13.464-.63-.328-113.266 1.257-113.657 1.382a.545.545 0 0 0-.347.27c-1.07 1.746-6.293 10.367-6.055 12.316a.69.69 0 0 0 .23.422c.122.11.282.172.446.176Zm6.183-12.098c1.13-.14 111.942-1.242 112.618-1.18a42.622 42.622 0 0 1 3.144 5.301c-2.578 0-117.887.618-118.484.633.691-1.386 1.605-2.96 2.722-4.754Zm-3.148 5.508c.613 0 117.293-.597 119.289-.644a29.353 29.353 0 0 1 2.438 6.07c-5.598.898-56.63.457-124.196 0a30.626 30.626 0 0 1 2.438-5.488Zm83.785 11.938a3.918 3.918 0 0 0-1.473-1.684 3.834 3.834 0 0 0-2.16-.578c-3.996 0-37.55-.93-40.574.297a25.265 25.265 0 0 0-4.402 7.867c-.094.691.25 1.004.675 1.05 9.438 1.024 40.727 2 48.844.505 1.008-.188 1.133-1.258.93-2.282a38.098 38.098 0 0 0-1.84-5.175Zm-47.492 5.902a31.68 31.68 0 0 1 3.648-7.223c2.391-.785 33.493.852 40.258.836a2.086 2.086 0 0 1 1.95 1.164 26.422 26.422 0 0 1 1.777 5.094c-7.977 1.246-41.844.535-47.633.129Zm156.746-3.887c-2.219-3.05-13.344-2.91-17.07-2.8-3.145 0-14.582.52-14.582 3.601a1.549 1.549 0 0 0 .723 1.242c.3.239-1.762 20.973 1.07 32.094.93 3.68 2.125 5.504 5.632 7.031 6.73 2.926 17.903 2.282 22.383-3.965.899-1.824.711-7.14.79-8.761 6.968 1.383 12.679-1.446 14.156-8.95.93-4.832-.266-7.992-2.329-9.914a11.034 11.034 0 0 0-4.742-2.246 11.04 11.04 0 0 0-5.246.203.38.38 0 0 1-.187.016.35.35 0 0 1-.172-.07.372.372 0 0 1-.117-.14.384.384 0 0 1-.043-.184c0-.832.296-6.48-.266-7.157Zm-29.89.332c4.245-2.488 21.55-2.675 27.136-.144.188.094.895.457.895.613 0 .16-.723.535-.895.613-4.219 1.907-19.273 2.77-27.184-.125-.55-.297 0-.894 0-.957Zm31.117 8.809a9.147 9.147 0 0 1 4.394-.172 9.177 9.177 0 0 1 3.973 1.887c1.699 1.57 2.547 4.277 1.761 8.289a8.934 8.934 0 0 1-1.41 3.906 8.941 8.941 0 0 1-3.027 2.844 12.135 12.135 0 0 1-8.211.629 1.018 1.018 0 0 0-.828.05 1.044 1.044 0 0 0-.523.64c-.426 1.196.171 6.025-.692 9.08-3.98 5.394-14.16 5.882-20.184 3.347-3.05-1.305-3.902-2.656-4.718-5.914-2.11-7.723-2.235-23.453-1.762-31.195 4.953 2.343 22.117 3.023 28.867-.438 0 4.875-.597 5.691.63 6.684.233.18.51.304.8.367.289.062.59.058.883-.004Zm-152.813 33.332a88.702 88.702 0 0 0-13.277-9.313 27.897 27.897 0 0 0-5.742-2.562c-1.684-.441-2.391.426-2.047 1.574a19.222 19.222 0 0 0 2.785 4.574 72.234 72.234 0 0 0 12.398 12.29c7.016 5.867 16.106 12.976 22.746 18.027a3.165 3.165 0 0 0 2.375.562c.41-.07.809-.218 1.16-.445a3.09 3.09 0 0 0 .899-.86c1.164-1.273 1.89-3.507.582-4.718-1.508-1.352-10.742-10.05-21.879-19.129Zm-15.07-3.492-2.156-3.477a3.997 3.997 0 0 0 1.855-1.57l3.414 1.383a3.87 3.87 0 0 0-3.113 3.664Zm4.828 4.012a25.71 25.71 0 0 1-3.145-3.145c.11-1.906.707-2.754 2.61-2.816a18.924 18.924 0 0 1 3.57 2.218 3.965 3.965 0 0 0-2.148 1.36 3.995 3.995 0 0 0-.887 2.382Zm26.898 22.89c-1.746-1.465-24.965-21.16-26.394-22.418a4.395 4.395 0 0 1 1.101-2.36 4.349 4.349 0 0 1 2.25-1.32c5.426 4.028 13.23 10.696 26.836 22.024a3.64 3.64 0 0 0-2.843 1.152 3.609 3.609 0 0 0-.797 1.356 3.668 3.668 0 0 0-.153 1.566Zm124.657 17.43c1.964 1.336 3.335.722 4.609-1.133 3.144-4.469 14.156-24.242 14.156-24.398 0-.16.125.14-.394-6.215a1.27 1.27 0 0 0-.25-.66 1.32 1.32 0 0 0-.551-.442c-.219-.097-.461-.129-.7-.097a1.324 1.324 0 0 0-.652.269l-5.382 3.918s-11.938 24.684-12.063 24.902a3.51 3.51 0 0 0 .004 2.121 3.51 3.51 0 0 0 1.223 1.735Zm16.66-30.754c.093 1.148.218 2.672.312 3.726a18.888 18.888 0 0 0-3.648-1.304Zm-4.5 3.492a10.495 10.495 0 0 0 4.593 1.824c-.238.41-12.253 22.336-12.382 22.559a3.768 3.768 0 0 0-4.105-2.031c1.226-2.282 11.452-21.567 11.894-22.352Zm0 0"/><path d="M250.898 181.05a2.135 2.135 0 0 0-.632-.593 2.158 2.158 0 0 0-.813-.305 23.438 23.438 0 0 0-2.832-.566c.535 3.746.848 7.867.832 8.23a.908.908 0 0 1-.324.61.899.899 0 0 1-.664.207.94.94 0 0 1-.617-.336.944.944 0 0 1-.203-.672c0-.266-.094-1.352-.172-8.195-3.149-.395-18.297-1.575-17.7 1.449 0 .156-1.242 7.863 3.57 11.562 4.817 3.696 14.442 2.973 17.81-.789a8.29 8.29 0 0 0 1.824-3.996 18.403 18.403 0 0 0-.079-6.605Zm3.778-14.238c0 .711-.946 6.122-1.574 13.387l.753.16c2.77.586 5.653.274 8.23-.898a5.596 5.596 0 0 0 2.15-2.129c.507-.894.757-1.91.73-2.937a7.503 7.503 0 0 0-.649-3.727 7.488 7.488 0 0 0-5.89-4.34 7.494 7.494 0 0 0-3.75.484Zm.707.536a7.13 7.13 0 0 1 5.68 1.574 6.597 6.597 0 0 1 1.69 2.48c.368.95.509 1.97.415 2.977-.14 4.043-4.293 4.816-8.273 4.406.187-2.863.347-6.152.488-11.437ZM103.12 152.859s.016.016 0 0Zm135.414-77.851a2.09 2.09 0 0 0 .153.816c.101.262.257.5.453.7a2.13 2.13 0 0 0 1.504.636c.425.012.847-.105 1.207-.34a2.14 2.14 0 0 0 .957-2.203 2.143 2.143 0 0 0-1.68-1.719 2.151 2.151 0 0 0-2.594 2.11ZM66.36 126.902c.36.711.832.79 1.13.567.3-.219 99.925-1.086 107.335-1.477a17.02 17.02 0 0 0 4.719-.597c3.539-3.149 4.926-61.965 3.539-64.688-3.539-7.062-114.316-2.516-121.129-.457-5.426 1.637 1.902 61.637 4.406 66.652Zm-4.707-64.101c0-.285.348-1.387.614-1.465 7.535-2.266 116.945-5.992 119.922-.078.25 1.183.367 2.39.343 3.601.27 6.86 0 21.551-.707 34.72-.14 2.515-1.258 23.14-2.894 25.01-6.528 1.388-107.13 1.7-111.598 1.876-2.547-5.918-8.055-53.281-5.68-63.664Zm179.196-22.48a2.165 2.165 0 0 0 2.023-1.294c.168-.394.219-.828.145-1.246a2.166 2.166 0 0 0-.575-1.117 2.114 2.114 0 0 0-1.097-.605 2.133 2.133 0 0 0-1.25.105c-.399.16-.739.434-.98.785a2.165 2.165 0 0 0-.376 1.2 2.125 2.125 0 0 0 .602 1.527c.195.203.43.363.687.472.262.11.54.168.82.172Zm0 0"/><path d="M92.441 102.441h18.688a8.171 8.171 0 0 0 5.758-2.406 8.175 8.175 0 0 0 2.375-5.773V79.098a8.245 8.245 0 0 0-8.133-8.243H92.44a8.217 8.217 0 0 0-5.84 2.402 8.217 8.217 0 0 0-1.785 2.68 8.183 8.183 0 0 0-.62 3.16v15.165a8.262 8.262 0 0 0 .636 3.14 8.244 8.244 0 0 0 1.793 2.657 8.12 8.12 0 0 0 2.672 1.77c.996.41 2.066.616 3.144.612Zm-6.906-23.343a6.965 6.965 0 0 1 6.906-6.86h18.688a6.955 6.955 0 0 1 6.488 4.262c.356.848.54 1.758.543 2.676v15.086a7.002 7.002 0 0 1-.547 2.675 6.966 6.966 0 0 1-1.527 2.266 7.022 7.022 0 0 1-2.277 1.508 7.009 7.009 0 0 1-2.68.52H92.44a6.936 6.936 0 0 1-6.906-6.97Zm57.434 34.578c.312.926 1.101.722 1.32.14.3-.836 2.047-6.828 2.266-7.867 1.21-.375-2.203.805 8.351-3.035a.593.593 0 0 0 .274-.215.613.613 0 0 0 .101-.328c0-.117-.039-.23-.101-.328a.593.593 0 0 0-.274-.215l-16.168-6.465a.65.65 0 0 0-.32-.058.612.612 0 0 0-.305.11.603.603 0 0 0-.21.241.613.613 0 0 0-.063.32s4.262 15.196 5.129 17.7Zm-3.508-16.63 13.621 5.364c-1.824.676-4.906 1.84-6.387 2.438-.66.254-.925.363-1.086.566-.156.207.395-1.023-1.918 6.106Zm37.125-46.124c.02.094.07.18.144.238a.409.409 0 0 0 .266.094c.328 0 10.508.973 12.582.422 1.34-.36 1.574-2.719 1.7-4.106.16-2.09 0-7.218-.88-8.965-1.195-2.359-10.023-1.574-12.585-1.117a4.577 4.577 0 0 0-1.903.723 2.268 2.268 0 0 0-.55 1.387 50.896 50.896 0 0 0 1.226 11.324Zm.457-11.5c2.484-.77 9.562-1.07 11.812 0 .77 2.047 1.18 9.078.254 10.715-1.464.375-10.398.375-11.894.39-.047-1.226-.77-7.847-.172-11.105Zm20.652 11.437a.433.433 0 0 0 .41.332c.333 0 10.508.973 12.586.422 1.336-.36 1.575-2.718 1.715-4.105.14-2.09 0-7.219-.898-8.965-1.196-2.375-10.02-1.574-12.586-1.117a4.81 4.81 0 0 0-1.902.722 2.4 2.4 0 0 0-.551 1.383 51.137 51.137 0 0 0 1.226 11.328Zm.457-11.5c2.485-.785 9.567-1.07 11.817 0 .77 2.047 1.18 9.078.25 10.7-1.465.39-10.399.39-11.895.406-.047-1.227-.77-7.848-.172-11.106Zm21.633 12.192c.016.094.067.18.145.242.074.059.168.09.261.09.332 0 10.508.972 12.586.426 1.336-.364 1.575-2.723 1.7-4.11.156-2.09 0-7.219-.883-8.965-1.196-2.359-10.02-1.574-12.582-1.117a4.782 4.782 0 0 0-1.907.723 2.291 2.291 0 0 0-.55 1.387 50.9 50.9 0 0 0 1.23 11.324Zm.453-11.5c2.489-.77 9.567-1.067 11.817 0 .77 2.047 1.18 9.078.25 10.715-1.461.379-10.399.379-11.89.394-.048-1.23-.774-7.851-.177-11.11ZM197.84 75.055c.11.312.36.343.406.328.348 0 10.508.976 12.586.426 1.336-.364 1.574-2.723 1.715-4.106.14-2.094 0-7.219-.879-8.95-1.215-2.378-10.04-1.573-12.586-1.132a4.735 4.735 0 0 0-1.922.723c-.328.394-.52.886-.547 1.398a50.792 50.792 0 0 0 1.227 11.313Zm.469-11.5c2.488-.77 9.55-1.07 11.8 0 .77 2.043 1.18 9.078.25 10.71-1.46.38-10.382.38-11.875.395-.062-1.226-.789-7.847-.175-11.105Zm36.308-1.45c2.516-3.71 4.719-7.062 4.797-7.218.082-.157-1.066-1.575-1.746-.567-4.813 7.41-4.152 6.703-4.496 6.575-2.77-1.004-11.707-.66-13.106.644-.945.883-.582 4.078-.472 5.445-1.008-.566-1.778-.976-2.059-1.086-.726-.28-.68.426-.285.676l2.453 1.574c.2 2.067.52 4.122.961 6.153.016.094.066.18.14.242a.42.42 0 0 0 .27.086c.328 0 10.508.976 12.582.426 2.707-.754 1.875-10.684.961-12.95Zm-13.496.649c3.7-.844 7.535-.914 11.262-.207l-5.457 8.605c-.551-.312-3.492-2.043-5.946-3.43-.105-1.64-.058-3.288.141-4.921Zm12.066 10.695c-1.48.395-10.398.395-11.894.41 0-.629-.234-2.691-.344-4.972l5.977 3.715a.818.818 0 0 0 .441-.079.811.811 0 0 0 .328-.3c.504-.645 3.035-4.328 5.618-8.118.488 2.832.644 7.993-.094 9.344Zm-62.546-33.648c.425.008.843-.114 1.203-.348a2.143 2.143 0 0 0 .945-2.203 2.19 2.19 0 0 0-.578-1.113 2.164 2.164 0 0 0-1.098-.602 2.174 2.174 0 0 0-2.226.899 2.17 2.17 0 0 0-.371 1.195c0 .566.222 1.113.617 1.52.398.406.937.64 1.508.652Zm0 0"/></svg>