<svg xmlns="http://www.w3.org/2000/svg" width="50" height="50" version="1.0" viewBox="0 0 37.5 37.5"><defs><clipPath id="a"><path d="M1.828 4h33.305v6H1.828Zm0 0"/></clipPath><clipPath id="b"><path d="M3 7h31v30.008H3Zm0 0"/></clipPath></defs><g clip-path="url(#a)"><path fill="#e82127" d="M1.832 7.594s14.695-7.594 33.297 0l-.75 1.836S19.215 2.19 3 9.43Zm0 0"/></g><g clip-path="url(#b)"><path fill="#e82127" d="M33.508 10.414s-2.672 2.793-4.477 3.258c0 0 .235-2.5-2.613-2.5h-3.371L18.48 37.008 13.81 11.172h-3.625c-.485 0-.918.144-1.301.441-.551.426-1.184 1.149-.942 2.117 0 0-3.312-1.453-4.59-3.316 0 0 4.524-2.344 11.497-2.992l3.632 4.215 3.391-4.215a38.066 38.066 0 0 1 11.637 2.992Zm0 0"/></g></svg>