<svg xmlns="http://www.w3.org/2000/svg" width="50" height="50" version="1.0" viewBox="0 0 37.5 37.5"><defs><clipPath id="a"><path d="M9 11.035h10V24H9Zm0 0"/></clipPath><clipPath id="b"><path d="M26 14h11v11.836H26Zm0 0"/></clipPath></defs><path fill="#f5af02" d="M23.422 18.871c-1.68.055-2.727.356-2.727 1.457 0 .715.575 1.485 2.024 1.485 1.941 0 2.984-1.051 2.984-2.778v-.187l-2.281.027Zm4.14 2.277.063 1.54h-1.723a9.701 9.701 0 0 1-.066-1.157c-.93 1.137-2.04 1.461-3.582 1.461-2.277 0-3.5-1.191-3.5-2.574 0-2.008 1.66-2.711 4.555-2.777.789-.016 1.671-.016 2.402-.016v-.2c0-1.335-.867-1.882-2.371-1.882-1.113 0-1.942.46-2.024 1.246h-1.949c.207-1.973 2.297-2.469 4.13-2.469 2.21 0 4.054.778 4.054 3.082v3.754Zm0 0"/><path fill="#e53238" d="M7.387 17.898c-.074-1.718-1.328-2.359-2.664-2.359-1.442 0-2.598.723-2.797 2.36Zm-5.5 1.22c.101 1.671 1.258 2.655 2.855 2.655 1.102 0 2.086-.437 2.414-1.418H9.07c-.37 1.97-2.488 2.641-4.3 2.641-3.31 0-4.77-1.808-4.77-4.242 0-2.684 1.516-4.445 4.805-4.445 2.617 0 4.53 1.355 4.53 4.32v.488Zm0 0"/><g clip-path="url(#a)"><path fill="#0064d2" d="M14.086 21.738c1.723 0 2.898-1.23 2.898-3.082 0-1.855-1.175-3.082-2.898-3.082-1.715 0-2.899 1.227-2.899 3.082 0 1.852 1.184 3.082 2.899 3.082Zm-4.75-10.656h1.851v4.617c.91-1.074 2.16-1.383 3.391-1.383 2.067 0 4.356 1.383 4.356 4.368 0 2.496-1.82 4.32-4.395 4.32-1.348 0-2.605-.48-3.39-1.43 0 .38-.016.762-.063 1.121H9.262l.066-1.898v-9.715Zm0 0"/></g><g clip-path="url(#b)"><path fill="#86b817" d="m36.996 14.613-5.734 11.164h-2.078l1.648-3.097-4.309-8.067h2.168l3.172 6.301 3.164-6.3Zm0 0"/></g></svg>