<svg xmlns="http://www.w3.org/2000/svg" width="50" height="50" version="1.0" viewBox="0 0 37.5 37.5"><defs><clipPath id="a"><path d="M0 0h37.008v37.008H0Zm0 0"/></clipPath></defs><g clip-path="url(#a)"><path fill="#0061ff" d="M5.55 0h25.907c.363 0 .723.035 1.082.105a5.65 5.65 0 0 1 2 .828 5.53 5.53 0 0 1 1.531 1.536c.203.3.375.62.516.957.137.336.242.683.312 1.043.075.355.11.718.11 1.082v25.906a5.683 5.683 0 0 1-.422 2.121c-.14.34-.313.66-.516.961a5.49 5.49 0 0 1-.691.84 5.49 5.49 0 0 1-.84.691 5.404 5.404 0 0 1-2 .828c-.36.075-.719.11-1.082.11H5.551c-.364 0-.727-.035-1.082-.11a5.631 5.631 0 0 1-1.043-.312 5.508 5.508 0 0 1-.957-.516 5.522 5.522 0 0 1-2.047-2.492 5.695 5.695 0 0 1-.317-1.039A5.613 5.613 0 0 1 0 31.457V5.551a5.583 5.583 0 0 1 .422-2.125A5.522 5.522 0 0 1 3.426.422 5.74 5.74 0 0 1 4.469.105C4.824.035 5.187 0 5.55 0Zm0 0"/></g><path fill="#fff" d="m11.422 26.887 7.082 4.554 7.082-4.554-7.082-4.48Zm0-19.586-7.156 4.554 21.32 13.586 7.156-4.554-14.238-9.032 7.082-4.554 7.156 4.554-21.32 13.586-7.156-4.554 14.238-9.032"/></svg>