<svg xmlns="http://www.w3.org/2000/svg" width="50" height="50" version="1.0" viewBox="0 0 37.5 37.5"><defs><clipPath id="a"><path d="M0 0h37.008v37.008H0Zm0 0"/></clipPath></defs><g clip-path="url(#a)"><path fill="#d2252d" d="M37.008 31.383a5.622 5.622 0 0 1-5.621 5.62H5.62A5.62 5.62 0 0 1 0 31.384V5.625A5.62 5.62 0 0 1 5.621.004H31.38A5.62 5.62 0 0 1 37 5.625Zm0 0"/></g><path fill="#fff" d="M18.086 6.852c-6.676 0-12.082 5.41-12.082 12.082 0 4.949 2.98 9.195 7.234 11.066-.031-.844-.008-1.852.211-2.77.235-.984 1.555-6.585 1.555-6.585s-.39-.766-.39-1.91c0-1.794 1.042-3.13 2.327-3.13 1.094 0 1.63.825 1.63 1.813 0 1.105-.712 2.754-1.067 4.281-.309 1.281.637 2.328 1.902 2.328 2.293 0 3.832-2.941 3.832-6.425 0-2.649-1.785-4.63-5.027-4.63-3.664 0-5.945 2.731-5.945 5.786 0 1.05.312 1.797.8 2.367.223.27.254.371.172.672-.05.223-.191.762-.242.965-.086.308-.328.418-.601.308-1.692-.683-2.477-2.535-2.477-4.613 0-3.434 2.89-7.55 8.64-7.55 4.61 0 7.653 3.343 7.653 6.917 0 4.746-2.633 8.281-6.52 8.281-1.304 0-2.535-.707-2.957-1.507 0 0-.703 2.789-.851 3.32-.254.926-.758 1.867-1.215 2.59 1.09.316 2.238.492 3.43.492 6.675 0 12.078-5.41 12.078-12.082-.004-6.648-5.422-12.066-12.09-12.066Zm0 0"/></svg>